<svg width="20" height="20" viewBox="0 0 20 20" fill="none" xmlns="http://www.w3.org/2000/svg">
<path d="M13.3334 10.75V14.25C13.3334 17.1667 12.1667 18.3334 9.25008 18.3334H5.75008C2.83341 18.3334 1.66675 17.1667 1.66675 14.25V10.75C1.66675 7.83335 2.83341 6.66669 5.75008 6.66669H9.25008C12.1667 6.66669 13.3334 7.83335 13.3334 10.75Z" fill="white"/>
<path d="M14.25 1.66669H10.75C8.2466 1.66669 7.03846 2.53234 6.746 4.61577C6.66858 5.16727 7.13004 5.62502 7.68695 5.62502H9.25005C12.75 5.62502 14.375 7.25002 14.375 10.75V12.3131C14.375 12.87 14.8328 13.3315 15.3843 13.2541C17.4677 12.9616 18.3334 11.7535 18.3334 9.25002V5.75002C18.3334 2.83335 17.1667 1.66669 14.25 1.66669Z" fill="white"/>
</svg>
