<svg width="16" height="16" viewBox="0 0 16 16" fill="none" xmlns="http://www.w3.org/2000/svg">
<path d="M14.1667 6.09995C12.6267 3.67995 10.3733 2.28662 8.00001 2.28662C6.81334 2.28662 5.66001 2.63329 4.60668 3.27995C3.55334 3.93329 2.60668 4.88662 1.83334 6.09995C1.16668 7.14662 1.16668 8.84662 1.83334 9.89329C3.37334 12.32 5.62668 13.7066 8.00001 13.7066C9.18668 13.7066 10.34 13.36 11.3933 12.7133C12.4467 12.06 13.3933 11.1066 14.1667 9.89329C14.8333 8.85329 14.8333 7.14662 14.1667 6.09995ZM8.00001 10.6933C6.50668 10.6933 5.30668 9.48662 5.30668 7.99995C5.30668 6.51329 6.50668 5.30662 8.00001 5.30662C9.49334 5.30662 10.6933 6.51329 10.6933 7.99995C10.6933 9.48662 9.49334 10.6933 8.00001 10.6933Z" fill="white"/>
<path d="M8.00001 6.09326C6.95334 6.09326 6.10001 6.94659 6.10001 7.99993C6.10001 9.04659 6.95334 9.89993 8.00001 9.89993C9.04667 9.89993 9.90667 9.04659 9.90667 7.99993C9.90667 6.95326 9.04667 6.09326 8.00001 6.09326Z" fill="white"/>
</svg>
