<svg width="24" height="22" viewBox="0 0 24 22" fill="none" xmlns="http://www.w3.org/2000/svg">
<path fill-rule="evenodd" clip-rule="evenodd" d="M12 0C5.64625 0 0.5 5.04701 0.5 11.2782C0.5 16.2688 3.79187 20.4841 8.36312 21.9785C8.93812 22.0771 9.15375 21.7388 9.15375 21.4427C9.15375 21.1749 9.13938 20.2867 9.13938 19.3422C6.25 19.8638 5.5025 18.6514 5.2725 18.017C5.14313 17.6927 4.5825 16.6918 4.09375 16.4239C3.69125 16.2125 3.11625 15.6908 4.07938 15.6767C4.985 15.6626 5.63188 16.4944 5.8475 16.8328C6.8825 18.5386 8.53563 18.0593 9.19688 17.7632C9.2975 17.0301 9.59937 16.5367 9.93 16.2548C7.37125 15.9728 4.6975 15 4.6975 10.6861C4.6975 9.45962 5.14313 8.44458 5.87625 7.6551C5.76125 7.37314 5.35875 6.21712 5.99125 4.66637C5.99125 4.66637 6.95437 4.37032 9.15375 5.82239C10.0737 5.56863 11.0513 5.44175 12.0288 5.44175C13.0063 5.44175 13.9838 5.56863 14.9038 5.82239C17.1031 4.35622 18.0662 4.66637 18.0662 4.66637C18.6987 6.21712 18.2962 7.37314 18.1812 7.6551C18.9144 8.44458 19.36 9.44552 19.36 10.6861C19.36 15.0141 16.6719 15.9728 14.1131 16.2548C14.53 16.6072 14.8894 17.2839 14.8894 18.3412C14.8894 19.8497 14.875 21.0621 14.875 21.4427C14.875 21.7388 15.0906 22.0912 15.6656 21.9785C20.2081 20.4841 23.5 16.2548 23.5 11.2782C23.5 5.04701 18.3538 0 12 0Z" fill="white"/>
</svg>
