<svg width="20" height="21" viewBox="0 0 20 21" fill="none" xmlns="http://www.w3.org/2000/svg">
<path d="M9.99996 18.5416C9.74163 18.5416 9.49163 18.5083 9.28329 18.4333C6.09996 17.3416 1.04163 13.4666 1.04163 7.74165C1.04163 4.82498 3.39996 2.45831 6.29996 2.45831C7.70829 2.45831 9.02496 3.00831 9.99996 3.99165C10.975 3.00831 12.2916 2.45831 13.7 2.45831C16.6 2.45831 18.9583 4.83331 18.9583 7.74165C18.9583 13.475 13.9 17.3416 10.7166 18.4333C10.5083 18.5083 10.2583 18.5416 9.99996 18.5416ZM6.29996 3.70831C4.09163 3.70831 2.29163 5.51665 2.29163 7.74165C2.29163 13.4333 7.76663 16.6 9.69163 17.2583C9.84163 17.3083 10.1666 17.3083 10.3166 17.2583C12.2333 16.6 17.7166 13.4416 17.7166 7.74165C17.7166 5.51665 15.9166 3.70831 13.7083 3.70831C12.4416 3.70831 11.2666 4.29998 10.5083 5.32498C10.275 5.64165 9.74163 5.64165 9.50829 5.32498C8.73329 4.29165 7.56663 3.70831 6.29996 3.70831Z" fill="white"/>
</svg>
