<svg width="20" height="20" viewBox="0 0 20 20" fill="none" xmlns="http://www.w3.org/2000/svg">
<path fill-rule="evenodd" clip-rule="evenodd" d="M4.5739 1.68562C3.84258 1.85367 3.33325 2.52204 3.33325 3.31366C3.33325 4.03064 3.82332 4.69416 4.49426 4.88565C4.70051 4.94452 5.11453 4.93051 5.33877 4.85714C5.97694 4.64822 6.41102 4.01913 6.4121 3.30165C6.41317 2.58696 6.00824 1.98138 5.37216 1.74642C5.18015 1.67548 4.758 1.64333 4.5739 1.68562ZM12.5709 6.08724C12.2371 6.1648 11.9831 6.28041 11.6822 6.49164C11.4607 6.64714 11.3159 6.79608 10.901 7.29492L10.8088 7.40581L10.8079 6.98288C10.8069 6.49829 10.7754 6.38854 10.6015 6.2633L10.4942 6.18603L9.40251 6.18616C8.36589 6.18625 8.30589 6.18945 8.21337 6.24924C8.15977 6.28386 8.08921 6.35863 8.05654 6.41544C7.998 6.51714 7.99711 6.58402 7.99702 10.8915L7.9969 15.2642L8.0725 15.3821C8.2105 15.5974 8.20042 15.5957 9.40197 15.5957C10.6003 15.5957 10.5843 15.5983 10.7382 15.3844L10.822 15.268L10.8373 12.525C10.8545 9.46092 10.8411 9.64747 11.0708 9.27273C11.8516 7.99909 13.6822 8.42386 13.8871 9.92621C13.9024 10.0388 13.9152 11.2829 13.9157 12.6968C13.9164 15.2011 13.9178 15.2656 13.9758 15.3663C14.0085 15.4231 14.079 15.4979 14.1326 15.5325C14.2249 15.5922 14.285 15.5955 15.2768 15.5956C16.4586 15.5957 16.4689 15.5939 16.5993 15.3548L16.6666 15.2314L16.6582 12.0156L16.6499 8.79984L16.568 8.50224C16.4697 8.1455 16.301 7.75441 16.1308 7.48878C15.7153 6.84034 15.0387 6.33494 14.3176 6.13439C14.0563 6.06171 13.9491 6.0504 13.4229 6.04C12.9212 6.03009 12.7841 6.03769 12.5709 6.08724ZM3.73684 6.21591C3.63666 6.25922 3.5143 6.41009 3.48135 6.53096C3.46013 6.60877 3.45295 8.0673 3.45896 11.0866C3.46775 15.5155 3.46796 15.528 3.52942 15.6152C3.56333 15.6633 3.6282 15.7321 3.67361 15.768C3.75355 15.8313 3.79163 15.8334 4.87285 15.8334C5.95407 15.8334 5.99216 15.8313 6.0721 15.768C6.11751 15.7321 6.18238 15.6633 6.21628 15.6152C6.27778 15.5279 6.27796 15.5167 6.2857 11.0463C6.29335 6.63484 6.29257 6.56305 6.23431 6.44205C6.20178 6.37444 6.12944 6.28919 6.07353 6.25259C5.975 6.18806 5.93885 6.18609 4.88427 6.18802C4.28607 6.18913 3.76972 6.20168 3.73684 6.21591Z" fill="white"/>
</svg>
