<svg width="16" height="16" viewBox="0 0 16 16" fill="none" xmlns="http://www.w3.org/2000/svg">
<path d="M8.66667 7.83329C8.54 7.83329 8.41333 7.78662 8.31333 7.68662C8.12 7.49329 8.12 7.17329 8.31333 6.97995L13.78 1.51329C13.9733 1.31995 14.2933 1.31995 14.4867 1.51329C14.68 1.70662 14.68 2.02662 14.4867 2.21995L9.02 7.68662C8.92 7.78662 8.79333 7.83329 8.66667 7.83329Z" fill="#436FCC"/>
<path d="M14.6667 5.03337C14.3933 5.03337 14.1667 4.80671 14.1667 4.53337V1.83337H11.4667C11.1933 1.83337 10.9667 1.60671 10.9667 1.33337C10.9667 1.06004 11.1933 0.833374 11.4667 0.833374H14.6667C14.94 0.833374 15.1667 1.06004 15.1667 1.33337V4.53337C15.1667 4.80671 14.94 5.03337 14.6667 5.03337Z" fill="#436FCC"/>
<path d="M10 15.1667H6C2.38 15.1667 0.833333 13.62 0.833333 10V6.00004C0.833333 2.38004 2.38 0.833374 6 0.833374H7.33333C7.60667 0.833374 7.83333 1.06004 7.83333 1.33337C7.83333 1.60671 7.60667 1.83337 7.33333 1.83337H6C2.92667 1.83337 1.83333 2.92671 1.83333 6.00004V10C1.83333 13.0734 2.92667 14.1667 6 14.1667H10C13.0733 14.1667 14.1667 13.0734 14.1667 10V8.66671C14.1667 8.39337 14.3933 8.16671 14.6667 8.16671C14.94 8.16671 15.1667 8.39337 15.1667 8.66671V10C15.1667 13.62 13.62 15.1667 10 15.1667Z" fill="#436FCC"/>
</svg>
