<svg width="23" height="23" viewBox="0 0 23 23" fill="none" xmlns="http://www.w3.org/2000/svg">
<path d="M13.3999 19.4199H8.93325C4.84816 19.4199 3.02429 17.5994 3.02429 13.5219V9.06365C3.02429 4.98618 4.84816 3.16571 8.93325 3.16571H13.3999C17.485 3.16571 19.3088 4.98618 19.3088 9.06365V13.5219C19.3088 17.5994 17.485 19.4199 13.3999 19.4199ZM8.93325 4.55892C5.6019 4.55892 4.42011 5.73851 4.42011 9.06365V13.5219C4.42011 16.8471 5.6019 18.0267 8.93325 18.0267H13.3999C16.7312 18.0267 17.913 16.8471 17.913 13.5219V9.06365C17.913 5.73851 16.7312 4.55892 13.3999 4.55892H8.93325Z" fill="white"/>
<path d="M13.3999 19.4199H8.93325C4.84816 19.4199 3.02429 17.5994 3.02429 13.5219V9.06365C3.02429 4.98618 4.84816 3.16571 8.93325 3.16571H13.3999C17.485 3.16571 19.3088 4.98618 19.3088 9.06365V13.5219C19.3088 17.5994 17.485 19.4199 13.3999 19.4199ZM8.93325 4.55892C5.6019 4.55892 4.42011 5.73851 4.42011 9.06365V13.5219C4.42011 16.8471 5.6019 18.0267 8.93325 18.0267H13.3999C16.7312 18.0267 17.913 16.8471 17.913 13.5219V9.06365C17.913 5.73851 16.7312 4.55892 13.3999 4.55892H8.93325Z" fill="url(#paint0_linear_38_55)"/>
<path d="M12.5624 16.6335H9.77073C7.07215 16.6335 5.81592 15.3796 5.81592 12.686V9.89959C5.81592 7.20604 7.07215 5.95215 9.77073 5.95215H12.5624C15.2609 5.95215 16.5172 7.20604 16.5172 9.89959V12.686C16.5172 15.3796 15.2609 16.6335 12.5624 16.6335ZM9.77073 7.34536C7.8352 7.34536 7.21174 7.96766 7.21174 9.89959V12.686C7.21174 14.6179 7.8352 15.2402 9.77073 15.2402H12.5624C14.4979 15.2402 15.1214 14.6179 15.1214 12.686V9.89959C15.1214 7.96766 14.4979 7.34536 12.5624 7.34536H9.77073Z" fill="white"/>
<path d="M12.5624 16.6335H9.77073C7.07215 16.6335 5.81592 15.3796 5.81592 12.686V9.89959C5.81592 7.20604 7.07215 5.95215 9.77073 5.95215H12.5624C15.2609 5.95215 16.5172 7.20604 16.5172 9.89959V12.686C16.5172 15.3796 15.2609 16.6335 12.5624 16.6335ZM9.77073 7.34536C7.8352 7.34536 7.21174 7.96766 7.21174 9.89959V12.686C7.21174 14.6179 7.8352 15.2402 9.77073 15.2402H12.5624C14.4979 15.2402 15.1214 14.6179 15.1214 12.686V9.89959C15.1214 7.96766 14.4979 7.34536 12.5624 7.34536H9.77073Z" fill="url(#paint1_linear_38_55)"/>
<path d="M7.45365 4.55894C7.06282 4.55894 6.75574 4.24314 6.75574 3.86233V2.00471C6.75574 1.6239 7.07212 1.30811 7.45365 1.30811C7.83517 1.30811 8.15155 1.6239 8.15155 2.00471V3.86233C8.15155 4.24314 7.83517 4.55894 7.45365 4.55894Z" fill="white"/>
<path d="M7.45365 4.55894C7.06282 4.55894 6.75574 4.24314 6.75574 3.86233V2.00471C6.75574 1.6239 7.07212 1.30811 7.45365 1.30811C7.83517 1.30811 8.15155 1.6239 8.15155 2.00471V3.86233C8.15155 4.24314 7.83517 4.55894 7.45365 4.55894Z" fill="url(#paint2_linear_38_55)"/>
<path d="M11.1665 4.55894C10.785 4.55894 10.4686 4.24314 10.4686 3.86233V2.00471C10.4686 1.6239 10.785 1.30811 11.1665 1.30811C11.5481 1.30811 11.8644 1.6239 11.8644 2.00471V3.86233C11.8644 4.24314 11.5481 4.55894 11.1665 4.55894Z" fill="white"/>
<path d="M11.1665 4.55894C10.785 4.55894 10.4686 4.24314 10.4686 3.86233V2.00471C10.4686 1.6239 10.785 1.30811 11.1665 1.30811C11.5481 1.30811 11.8644 1.6239 11.8644 2.00471V3.86233C11.8644 4.24314 11.5481 4.55894 11.1665 4.55894Z" fill="url(#paint3_linear_38_55)"/>
<path d="M14.8887 4.55894C14.5072 4.55894 14.1908 4.24314 14.1908 3.86233V2.00471C14.1908 1.6239 14.5072 1.30811 14.8887 1.30811C15.2702 1.30811 15.5866 1.6239 15.5866 2.00471V3.86233C15.5866 4.24314 15.2702 4.55894 14.8887 4.55894Z" fill="white"/>
<path d="M14.8887 4.55894C14.5072 4.55894 14.1908 4.24314 14.1908 3.86233V2.00471C14.1908 1.6239 14.5072 1.30811 14.8887 1.30811C15.2702 1.30811 15.5866 1.6239 15.5866 2.00471V3.86233C15.5866 4.24314 15.2702 4.55894 14.8887 4.55894Z" fill="url(#paint4_linear_38_55)"/>
<path d="M20.472 8.27419H18.6109C18.2293 8.27419 17.913 7.9584 17.913 7.57759C17.913 7.19678 18.2293 6.88098 18.6109 6.88098H20.472C20.8535 6.88098 21.1699 7.19678 21.1699 7.57759C21.1699 7.9584 20.8628 8.27419 20.472 8.27419Z" fill="white"/>
<path d="M20.472 8.27419H18.6109C18.2293 8.27419 17.913 7.9584 17.913 7.57759C17.913 7.19678 18.2293 6.88098 18.6109 6.88098H20.472C20.8535 6.88098 21.1699 7.19678 21.1699 7.57759C21.1699 7.9584 20.8628 8.27419 20.472 8.27419Z" fill="url(#paint5_linear_38_55)"/>
<path d="M20.472 11.9894H18.6109C18.2293 11.9894 17.913 11.6736 17.913 11.2928C17.913 10.912 18.2293 10.5962 18.6109 10.5962H20.472C20.8535 10.5962 21.1699 10.912 21.1699 11.2928C21.1699 11.6736 20.8628 11.9894 20.472 11.9894Z" fill="white"/>
<path d="M20.472 11.9894H18.6109C18.2293 11.9894 17.913 11.6736 17.913 11.2928C17.913 10.912 18.2293 10.5962 18.6109 10.5962H20.472C20.8535 10.5962 21.1699 10.912 21.1699 11.2928C21.1699 11.6736 20.8628 11.9894 20.472 11.9894Z" fill="url(#paint6_linear_38_55)"/>
<path d="M20.472 15.7046H18.6109C18.2293 15.7046 17.913 15.3888 17.913 15.008C17.913 14.6272 18.2293 14.3114 18.6109 14.3114H20.472C20.8535 14.3114 21.1699 14.6272 21.1699 15.008C21.1699 15.3888 20.8628 15.7046 20.472 15.7046Z" fill="white"/>
<path d="M20.472 15.7046H18.6109C18.2293 15.7046 17.913 15.3888 17.913 15.008C17.913 14.6272 18.2293 14.3114 18.6109 14.3114H20.472C20.8535 14.3114 21.1699 14.6272 21.1699 15.008C21.1699 15.3888 20.8628 15.7046 20.472 15.7046Z" fill="url(#paint7_linear_38_55)"/>
<path d="M14.8887 21.2775C14.5072 21.2775 14.1908 20.9617 14.1908 20.5809V18.7233C14.1908 18.3425 14.5072 18.0267 14.8887 18.0267C15.2702 18.0267 15.5866 18.3425 15.5866 18.7233V20.5809C15.5866 20.9617 15.2702 21.2775 14.8887 21.2775Z" fill="white"/>
<path d="M14.8887 21.2775C14.5072 21.2775 14.1908 20.9617 14.1908 20.5809V18.7233C14.1908 18.3425 14.5072 18.0267 14.8887 18.0267C15.2702 18.0267 15.5866 18.3425 15.5866 18.7233V20.5809C15.5866 20.9617 15.2702 21.2775 14.8887 21.2775Z" fill="url(#paint8_linear_38_55)"/>
<path d="M11.1758 21.2775C10.7943 21.2775 10.4779 20.9617 10.4779 20.5809V18.7233C10.4779 18.3425 10.7943 18.0267 11.1758 18.0267C11.5573 18.0267 11.8737 18.3425 11.8737 18.7233V20.5809C11.8737 20.9617 11.5573 21.2775 11.1758 21.2775Z" fill="white"/>
<path d="M11.1758 21.2775C10.7943 21.2775 10.4779 20.9617 10.4779 20.5809V18.7233C10.4779 18.3425 10.7943 18.0267 11.1758 18.0267C11.5573 18.0267 11.8737 18.3425 11.8737 18.7233V20.5809C11.8737 20.9617 11.5573 21.2775 11.1758 21.2775Z" fill="url(#paint9_linear_38_55)"/>
<path d="M7.45365 21.2775C7.07212 21.2775 6.75574 20.9617 6.75574 20.5809V18.7233C6.75574 18.3425 7.07212 18.0267 7.45365 18.0267C7.83517 18.0267 8.15155 18.3425 8.15155 18.7233V20.5809C8.15155 20.9617 7.83517 21.2775 7.45365 21.2775Z" fill="white"/>
<path d="M7.45365 21.2775C7.07212 21.2775 6.75574 20.9617 6.75574 20.5809V18.7233C6.75574 18.3425 7.07212 18.0267 7.45365 18.0267C7.83517 18.0267 8.15155 18.3425 8.15155 18.7233V20.5809C8.15155 20.9617 7.83517 21.2775 7.45365 21.2775Z" fill="url(#paint10_linear_38_55)"/>
<path d="M3.72221 8.27419H1.86112C1.47959 8.27419 1.16321 7.96769 1.16321 7.57759C1.16321 7.18749 1.47959 6.88098 1.86112 6.88098H3.72221C4.10373 6.88098 4.42012 7.19678 4.42012 7.57759C4.42012 7.9584 4.11304 8.27419 3.72221 8.27419Z" fill="white"/>
<path d="M3.72221 8.27419H1.86112C1.47959 8.27419 1.16321 7.96769 1.16321 7.57759C1.16321 7.18749 1.47959 6.88098 1.86112 6.88098H3.72221C4.10373 6.88098 4.42012 7.19678 4.42012 7.57759C4.42012 7.9584 4.11304 8.27419 3.72221 8.27419Z" fill="url(#paint11_linear_38_55)"/>
<path d="M3.72221 11.9894H1.86112C1.47959 11.9894 1.16321 11.6736 1.16321 11.2928C1.16321 10.912 1.47959 10.5962 1.86112 10.5962H3.72221C4.10373 10.5962 4.42012 10.912 4.42012 11.2928C4.42012 11.6736 4.11304 11.9894 3.72221 11.9894Z" fill="white"/>
<path d="M3.72221 11.9894H1.86112C1.47959 11.9894 1.16321 11.6736 1.16321 11.2928C1.16321 10.912 1.47959 10.5962 1.86112 10.5962H3.72221C4.10373 10.5962 4.42012 10.912 4.42012 11.2928C4.42012 11.6736 4.11304 11.9894 3.72221 11.9894Z" fill="url(#paint12_linear_38_55)"/>
<path d="M3.72221 15.7046H1.86112C1.47959 15.7046 1.16321 15.3888 1.16321 15.008C1.16321 14.6272 1.47959 14.3114 1.86112 14.3114H3.72221C4.10373 14.3114 4.42012 14.6272 4.42012 15.008C4.42012 15.3888 4.11304 15.7046 3.72221 15.7046Z" fill="white"/>
<path d="M3.72221 15.7046H1.86112C1.47959 15.7046 1.16321 15.3888 1.16321 15.008C1.16321 14.6272 1.47959 14.3114 1.86112 14.3114H3.72221C4.10373 14.3114 4.42012 14.6272 4.42012 15.008C4.42012 15.3888 4.11304 15.7046 3.72221 15.7046Z" fill="url(#paint13_linear_38_55)"/>
<defs>
<linearGradient id="paint0_linear_38_55" x1="17.6715" y1="3.16571" x2="2.75998" y2="3.47478" gradientUnits="userSpaceOnUse">
<stop stop-color="#1A76DB"/>
<stop offset="1" stop-color="#8A3BEF"/>
</linearGradient>
<linearGradient id="paint1_linear_38_55" x1="15.4412" y1="5.95215" x2="5.64222" y2="6.15525" gradientUnits="userSpaceOnUse">
<stop stop-color="#1A76DB"/>
<stop offset="1" stop-color="#8A3BEF"/>
</linearGradient>
<linearGradient id="paint2_linear_38_55" x1="8.01121" y1="1.3081" x2="6.73263" y2="1.31946" gradientUnits="userSpaceOnUse">
<stop stop-color="#1A76DB"/>
<stop offset="1" stop-color="#8A3BEF"/>
</linearGradient>
<linearGradient id="paint3_linear_38_55" x1="11.7241" y1="1.3081" x2="10.4455" y2="1.31946" gradientUnits="userSpaceOnUse">
<stop stop-color="#1A76DB"/>
<stop offset="1" stop-color="#8A3BEF"/>
</linearGradient>
<linearGradient id="paint4_linear_38_55" x1="15.4463" y1="1.3081" x2="14.1677" y2="1.31946" gradientUnits="userSpaceOnUse">
<stop stop-color="#1A76DB"/>
<stop offset="1" stop-color="#8A3BEF"/>
</linearGradient>
<linearGradient id="paint5_linear_38_55" x1="20.8424" y1="6.88098" x2="17.8658" y2="7.02494" gradientUnits="userSpaceOnUse">
<stop stop-color="#1A76DB"/>
<stop offset="1" stop-color="#8A3BEF"/>
</linearGradient>
<linearGradient id="paint6_linear_38_55" x1="20.8424" y1="10.5962" x2="17.8658" y2="10.7401" gradientUnits="userSpaceOnUse">
<stop stop-color="#1A76DB"/>
<stop offset="1" stop-color="#8A3BEF"/>
</linearGradient>
<linearGradient id="paint7_linear_38_55" x1="20.8424" y1="14.3114" x2="17.8658" y2="14.4554" gradientUnits="userSpaceOnUse">
<stop stop-color="#1A76DB"/>
<stop offset="1" stop-color="#8A3BEF"/>
</linearGradient>
<linearGradient id="paint8_linear_38_55" x1="15.4463" y1="18.0267" x2="14.1677" y2="18.038" gradientUnits="userSpaceOnUse">
<stop stop-color="#1A76DB"/>
<stop offset="1" stop-color="#8A3BEF"/>
</linearGradient>
<linearGradient id="paint9_linear_38_55" x1="11.7334" y1="18.0267" x2="10.4548" y2="18.038" gradientUnits="userSpaceOnUse">
<stop stop-color="#1A76DB"/>
<stop offset="1" stop-color="#8A3BEF"/>
</linearGradient>
<linearGradient id="paint10_linear_38_55" x1="8.01121" y1="18.0267" x2="6.73263" y2="18.038" gradientUnits="userSpaceOnUse">
<stop stop-color="#1A76DB"/>
<stop offset="1" stop-color="#8A3BEF"/>
</linearGradient>
<linearGradient id="paint11_linear_38_55" x1="4.09265" y1="6.88098" x2="1.11603" y2="7.02494" gradientUnits="userSpaceOnUse">
<stop stop-color="#1A76DB"/>
<stop offset="1" stop-color="#8A3BEF"/>
</linearGradient>
<linearGradient id="paint12_linear_38_55" x1="4.09265" y1="10.5962" x2="1.11603" y2="10.7401" gradientUnits="userSpaceOnUse">
<stop stop-color="#1A76DB"/>
<stop offset="1" stop-color="#8A3BEF"/>
</linearGradient>
<linearGradient id="paint13_linear_38_55" x1="4.09265" y1="14.3114" x2="1.11603" y2="14.4554" gradientUnits="userSpaceOnUse">
<stop stop-color="#1A76DB"/>
<stop offset="1" stop-color="#8A3BEF"/>
</linearGradient>
</defs>
</svg>
