<svg width="18" height="15" viewBox="0 0 18 15" fill="none" xmlns="http://www.w3.org/2000/svg">
<path d="M5.74296 14.5C3.72109 14.5 1.83636 13.9119 0.25 12.8973C1.59687 12.9844 3.97379 12.7757 5.45224 11.3655C3.22817 11.2634 2.22516 9.55768 2.09434 8.82873C2.28331 8.90162 3.18456 8.9891 3.69334 8.78499C1.13494 8.14351 0.742455 5.89833 0.829673 5.21311C1.30937 5.54843 2.12341 5.66506 2.44321 5.6359C0.0592456 3.93015 0.916891 1.36422 1.33845 0.810218C3.04927 3.18042 5.61325 4.51161 8.78524 4.58565C8.72543 4.32335 8.69385 4.05026 8.69385 3.76978C8.69385 1.75682 10.3209 0.125 12.3279 0.125C13.3766 0.125 14.3215 0.570471 14.9848 1.28302C15.6856 1.11882 16.7402 0.734417 17.2558 0.402003C16.9959 1.33507 16.1868 2.11343 15.6974 2.40192C15.7015 2.41174 15.6935 2.39207 15.6974 2.40192C16.1273 2.3369 17.2905 2.11336 17.75 1.8016C17.5228 2.32578 16.665 3.19733 15.9611 3.68526C16.092 9.46129 11.6728 14.5 5.74296 14.5Z" fill="white"/>
</svg>
