<svg width="64" height="64" viewBox="0 0 64 64" fill="none" xmlns="http://www.w3.org/2000/svg">
<g clip-path="url(#clip0_741_5021)">
<path d="M41.2583 49.185C41.805 51.25 42.32 53.2133 42.845 55.1733C42.99 55.7117 43.0067 56.46 43.3667 56.72C43.755 57.0017 44.475 56.84 45.0517 56.845C46.4033 56.855 47.755 56.865 49.105 56.8417C49.7667 56.83 50.14 57.0967 50.3333 57.735C50.7633 59.165 51.2367 60.5833 51.6883 62.0067C52.0517 63.15 51.72 63.615 50.5283 63.615C43.5217 63.615 36.5167 63.615 29.51 63.615C24.2083 63.615 18.9067 63.615 13.6067 63.615C12.41 63.615 12.0717 63.155 12.435 62.0133C12.8933 60.57 13.3717 59.1317 13.8133 57.6833C13.9933 57.095 14.3433 56.84 14.95 56.845C16.7383 56.8567 18.5267 56.86 20.3133 56.8333C20.52 56.83 20.865 56.66 20.9083 56.5C21.575 54.105 22.2017 51.6983 22.8667 49.185C22.5617 49.185 22.325 49.185 22.0883 49.185C16.3917 49.185 10.695 49.19 5 49.1817C3.03167 49.1783 1.61 48.1083 1.19833 46.3333C1.115 45.975 1.10667 45.5917 1.10667 45.22C1.10167 31.665 1.10167 18.11 1.105 4.55667C1.105 2.12833 2.60833 0.616667 5.02167 0.616667C23.0467 0.613333 41.07 0.613333 59.095 0.616667C61.5117 0.616667 63.02 2.12667 63.02 4.55C63.0233 18.125 63.0233 31.7017 63.02 45.2767C63.02 47.6633 61.52 49.1767 59.1333 49.1817C53.4583 49.1933 47.7817 49.185 42.1067 49.185C41.8583 49.185 41.6117 49.185 41.2583 49.185ZM3.01667 39.4733H61.0017C61.0017 39.215 61.0017 39.0083 61.0017 38.8017C61.0017 27.4317 61.0017 16.06 61.0017 4.69C61.0017 3.16833 60.37 2.53833 58.8367 2.53833C40.96 2.53833 23.0833 2.53833 5.20667 2.53833C3.64167 2.53833 3.01833 3.16833 3.01833 4.73833C3.01833 16.0883 3.01833 27.4383 3.01833 38.7867C3.01833 39.0083 3.01833 39.2317 3.01833 39.475L3.01667 39.4733ZM61.0817 41.4933H3.12167C3.12167 42.3967 3.12167 43.2483 3.12167 44.1C3.12167 44.4333 3.12167 44.765 3.12167 45.0983C3.12333 46.625 3.75667 47.2683 5.27167 47.2683C23.1533 47.2683 41.0333 47.2683 58.915 47.2683C59.1017 47.2683 59.29 47.2733 59.475 47.2517C60.365 47.1483 61.0233 46.5783 61.065 45.6883C61.1283 44.3033 61.0817 42.9133 61.0817 41.4933ZM22.885 56.6983H41.1767C41.1767 56.585 41.19 56.5217 41.175 56.4633C40.59 54.1283 40.0117 51.7933 39.3983 49.4667C39.3567 49.31 39.0567 49.1167 38.875 49.115C34.365 49.095 29.8567 49.1033 25.3467 49.0917C24.9767 49.0917 24.85 49.24 24.7667 49.5717C24.465 50.78 24.135 51.98 23.8167 53.1833C23.51 54.3417 23.2033 55.4983 22.885 56.6967V56.6983ZM49.57 61.5583C49.335 60.7767 49.085 60.095 48.9317 59.3917C48.8083 58.8233 48.5633 58.6517 47.9667 58.6517C37.3867 58.6733 26.8083 58.6667 16.2283 58.6683C16.0833 58.6683 15.93 58.6433 15.7933 58.6783C15.6717 58.7083 15.4983 58.7817 15.4633 58.8767C15.1517 59.7467 14.865 60.6267 14.5533 61.5583H49.57Z" fill="white"/>
<path d="M32.0233 27.81C23.8333 27.81 15.6417 27.81 7.45167 27.81C6.22333 27.81 5.93667 27.5283 5.93667 26.3167C5.93667 19.83 5.93667 13.345 5.93667 6.85833C5.93667 5.65333 6.13833 5.45667 7.36167 5.45667C23.785 5.45667 40.2067 5.45667 56.63 5.45667C57.8967 5.45667 58.1067 5.66833 58.1067 6.945C58.1067 13.41 58.1067 19.875 58.1067 26.34C58.1067 27.5683 57.8683 27.8083 56.6583 27.8083C48.4467 27.8083 40.235 27.8083 32.025 27.8083L32.0233 27.81ZM31.0567 7.42667H7.89833V25.815H31.0567V7.42667ZM33.08 7.41V25.8117H56.2117V7.41H33.08Z" fill="white"/>
<path d="M47.0967 34.6767C46.3083 34.6767 45.52 34.6867 44.7317 34.6733C44.06 34.6617 43.6767 34.2967 43.6767 33.7083C43.6767 33.1433 44.0283 32.755 44.67 32.745C46.33 32.72 47.99 32.7183 49.65 32.745C50.3 32.755 50.6433 33.1367 50.6433 33.7083C50.6433 34.2967 50.26 34.6633 49.5883 34.6733C48.7583 34.6867 47.9283 34.6767 47.0983 34.6767L47.0967 34.6767Z" fill="white"/>
<path d="M16.9217 34.6767C16.1333 34.6767 15.3467 34.685 14.5583 34.6733C13.8783 34.6633 13.495 34.3167 13.4817 33.7317C13.4667 33.1433 13.8317 32.75 14.51 32.74C16.1467 32.7167 17.785 32.7167 19.4217 32.74C20.0617 32.75 20.4683 33.1983 20.4483 33.7533C20.4267 34.3283 20.0367 34.6633 19.3467 34.6717C18.5383 34.6817 17.73 34.6733 16.9217 34.6733V34.6767Z" fill="white"/>
<path d="M27.0217 34.6767C26.2317 34.6767 25.4417 34.685 24.6517 34.675C23.9433 34.6667 23.5833 34.35 23.5633 33.75C23.5417 33.1283 23.8717 32.7533 24.565 32.7417C26.2067 32.7167 27.85 32.715 29.4917 32.7417C30.145 32.7517 30.5317 33.1933 30.505 33.7667C30.4783 34.33 30.11 34.6617 29.455 34.6733C28.645 34.6867 27.8333 34.6767 27.0233 34.6767H27.0217Z" fill="white"/>
<path d="M37.0883 34.6767C36.28 34.6767 35.47 34.6883 34.6617 34.6733C33.9883 34.6617 33.6133 34.2983 33.6167 33.7017C33.62 33.1333 33.9683 32.7533 34.6133 32.7433C36.2717 32.72 37.9317 32.7167 39.5883 32.7467C40.2683 32.7583 40.5933 33.1533 40.56 33.7767C40.53 34.3467 40.1767 34.6633 39.5133 34.675C38.705 34.6883 37.8967 34.6783 37.0867 34.6783L37.0883 34.6767Z" fill="white"/>
<path d="M55.9967 34.675C55.6033 34.675 55.21 34.69 54.8183 34.6717C54.215 34.6433 53.8783 34.3117 53.8567 33.7567C53.8333 33.1833 54.125 32.7933 54.7233 32.76C55.5683 32.715 56.42 32.7117 57.265 32.755C57.8767 32.7867 58.2083 33.2183 58.175 33.7917C58.1417 34.3333 57.795 34.6483 57.1783 34.6717C56.7867 34.6867 56.3917 34.675 56 34.6733L55.9967 34.675Z" fill="white"/>
<path d="M8.11 34.6733C7.695 34.6733 7.27833 34.695 6.865 34.6683C6.315 34.6333 5.98167 34.275 5.97333 33.745C5.96333 33.1867 6.22667 32.7933 6.79333 32.7667C7.68167 32.725 8.57667 32.725 9.465 32.7733C10.0367 32.8033 10.285 33.21 10.265 33.765C10.245 34.3033 9.94 34.6167 9.41667 34.6633C8.985 34.7017 8.54667 34.6717 8.11 34.6717L8.11 34.675L8.11 34.6733Z" fill="white"/>
<path d="M32.06 43.3933C33.2 43.3933 34.34 43.3867 35.4817 43.395C36.2333 43.4017 36.5917 43.7183 36.595 44.345C36.5983 44.9767 36.2383 45.3033 35.4933 45.305C33.2133 45.3117 30.9317 45.3117 28.6517 45.305C27.9367 45.3033 27.535 44.9467 27.5283 44.3467C27.5217 43.73 27.8917 43.4 28.6383 43.395C29.7783 43.385 30.9183 43.3933 32.06 43.3933Z" fill="white"/>
<path d="M14.9433 16.6283C14.9433 15.2567 14.95 13.8867 14.94 12.515C14.9367 12.0333 15 11.5983 15.4633 11.335C15.9167 11.0767 16.2917 11.29 16.675 11.5283C18.84 12.88 21.0117 14.2217 23.1733 15.5783C23.43 15.74 23.695 15.94 23.86 16.185C24.1967 16.6883 24.02 17.1533 23.36 17.5667C21.4967 18.735 19.625 19.8917 17.7567 21.0533C17.3333 21.3167 16.91 21.5767 16.485 21.8383C15.6317 22.3633 14.9617 22.0033 14.9483 20.99C14.9317 19.5367 14.9433 18.0817 14.9433 16.6283ZM16.8917 19.2733C18.37 18.3533 19.76 17.4867 21.2233 16.575C19.7317 15.6483 18.3517 14.7917 16.8917 13.885V19.2733Z" fill="white"/>
<path d="M48.7817 22.685C50.1467 22.685 51.475 22.675 52.8033 22.6883C53.4833 22.695 53.8433 23.0617 53.8283 23.6683C53.8133 24.265 53.4517 24.5917 52.7467 24.595C50.5217 24.6033 48.2983 24.6133 46.0733 24.5933C44.705 24.58 43.3117 24.66 41.9717 24.4433C37.73 23.76 34.915 19.8017 35.435 15.415C35.9133 11.38 39.7333 8.265 43.89 8.57833C47.2567 8.83167 49.66 10.57 50.8567 13.695C52.0717 16.865 51.4133 19.7783 49.0517 22.265C48.9667 22.355 48.8833 22.445 48.8017 22.5367C48.79 22.5483 48.795 22.575 48.78 22.6833L48.7817 22.685ZM43.295 22.765C46.645 22.85 49.4017 20.1733 49.485 16.7533C49.565 13.4883 46.9017 10.6817 43.6417 10.595C40.2317 10.505 37.3767 13.14 37.3 16.4467C37.22 19.94 39.815 22.675 43.295 22.7633V22.765Z" fill="white"/>
<path d="M40.785 16.6783C40.7833 15.2133 41.915 14.0783 43.3817 14.0767C44.835 14.075 46.0017 15.2283 46.005 16.67C46.0083 18.1 44.8233 19.2867 43.39 19.2883C41.9433 19.2917 40.7867 18.1317 40.785 16.6783ZM44.1567 16.7983C44.1533 16.6983 44.1517 16.6 44.1483 16.5C43.8867 16.3317 43.6383 16.0533 43.36 16.0217C42.965 15.975 42.7033 16.2833 42.7217 16.695C42.7383 17.0967 42.995 17.4033 43.4033 17.3183C43.6783 17.26 43.9083 16.98 44.1583 16.7983H44.1567Z" fill="white"/>
<path d="M47.76 16.2333C47.2 16.2233 46.705 15.66 46.72 15.0467C46.7317 14.5333 47.17 14.1083 47.6933 14.1017C48.245 14.095 48.76 14.655 48.7683 15.2683C48.775 15.8083 48.3217 16.2417 47.7617 16.2317L47.76 16.2333Z" fill="white"/>
<path d="M40.0467 15.1133C40.0317 15.78 39.5767 16.2517 38.9667 16.2317C38.41 16.2133 37.9983 15.77 38.0217 15.215C38.045 14.6333 38.545 14.1083 39.0783 14.1033C39.6017 14.0967 40.0583 14.575 40.045 15.115L40.0467 15.1133Z" fill="white"/>
<path d="M40.865 21.295C40.255 21.3083 39.6667 20.7733 39.66 20.195C39.6533 19.6883 40.025 19.335 40.5767 19.325C41.285 19.3117 41.7917 19.7383 41.8 20.355C41.8067 20.895 41.4217 21.2817 40.8667 21.2933L40.865 21.295Z" fill="white"/>
<path d="M43.375 11.075C44.0533 11.0717 44.4217 11.395 44.4333 12.005C44.445 12.6233 44.0833 12.9767 43.4267 12.9883C42.7467 13.0017 42.3167 12.6267 42.32 12.025C42.3233 11.44 42.725 11.0783 43.3767 11.075H43.375Z" fill="white"/>
<path d="M47.1367 20.24C47.1333 20.8133 46.5967 21.3033 45.9817 21.2967C45.4467 21.29 45.0367 20.8667 45.0567 20.34C45.0767 19.7733 45.5717 19.3267 46.1767 19.3283C46.74 19.33 47.1417 19.7117 47.1367 20.24Z" fill="white"/>
</g>
<defs>
<clipPath id="clip0_741_5021">
<rect width="64" height="64" fill="white"/>
</clipPath>
</defs>
</svg>
