<svg width="64" height="64" viewBox="0 0 64 64" fill="none" xmlns="http://www.w3.org/2000/svg">
<g clip-path="url(#clip0_741_5023)">
<g clip-path="url(#clip1_741_5023)">
<path d="M64.0001 44.9084C63.6467 45.415 63.1634 45.5467 62.5551 45.5434C57.8567 45.5234 53.1601 45.5317 48.4617 45.5317C47.3184 45.5317 47.0317 45.2434 47.0317 44.095C47.0317 39.7084 47.0317 35.3217 47.0317 30.935C47.0317 29.87 47.3401 29.56 48.4001 29.5584C53.1184 29.5584 57.8367 29.5667 62.5551 29.5467C63.1634 29.5434 63.6484 29.675 64.0017 30.1817V44.9084H64.0001ZM49.0551 43.4917H61.9551V34.5817H49.0551V43.4917ZM61.9751 31.5867H49.0667V32.5084H61.9751V31.5867Z" fill="white"/>
<path d="M26.0468 50.5266C26.0568 50.34 26.0568 50.255 26.0685 50.1733C26.2635 48.7333 25.8785 47.74 24.5702 46.7766C21.5652 44.5683 20.2052 41.3733 20.0602 37.5983C19.1735 37.4283 19.0535 36.7733 19.0702 35.9733C19.1035 34.31 19.0802 32.645 19.0802 30.9816C19.0802 30.0166 19.1802 29.8633 19.9185 29.54C20.1218 28.195 20.1768 26.8883 20.5302 25.6666C21.7452 21.4716 25.6052 18.6166 29.9768 18.58C32.5768 18.5583 35.1752 18.5733 37.7752 18.5766C38.7018 18.5766 39.0385 18.9233 39.0418 19.8666C39.0452 20.78 39.0418 21.6933 39.0418 22.6433C40.6485 22.9816 41.9518 23.7633 42.9102 25.0833C43.8602 26.3933 44.1252 27.8816 44.0202 29.5116C44.8818 29.665 45.0552 30.25 45.0418 31.0233C45.0085 32.77 45.0218 34.5183 45.0368 36.265C45.0418 36.87 44.8668 37.3116 44.2585 37.5383C44.1452 37.58 44.0435 37.805 44.0352 37.95C43.7835 42.1466 41.8918 45.385 38.3918 47.7016C38.2418 47.8016 38.0685 48 38.0618 48.1583C38.0268 48.9216 38.0468 49.6883 38.0468 50.5283C39.1068 50.5283 40.1185 50.5116 41.1302 50.5316C44.3952 50.5966 47.2168 52.805 47.8218 56.005C48.1035 57.4966 47.9918 59.0666 48.0068 60.6016C48.0118 61.14 47.5118 61.5183 46.9968 61.5016C46.4785 61.4833 46.0602 61.0966 46.0435 60.5366C46.0152 59.6216 46.0352 58.7066 46.0318 57.7916C46.0235 54.66 43.9135 52.5366 40.7968 52.5233C39.8818 52.52 38.9668 52.54 38.0518 52.515C37.6502 52.505 37.3452 52.5983 37.0702 52.91C36.6852 53.345 36.2568 53.7433 35.8385 54.1483C35.4802 54.495 35.0585 54.6516 34.5885 54.4116C32.9035 53.55 31.2302 53.5616 29.5435 54.4066C29.0485 54.655 28.6152 54.4883 28.2435 54.1166C28.2135 54.0866 28.1785 54.0616 28.1552 54.0283C27.2418 52.6783 25.9552 52.2966 24.3935 52.5116C23.6568 52.6133 22.8902 52.5116 22.1602 52.6366C19.8268 53.0366 18.1385 55.04 18.0885 57.4C18.0685 58.3766 18.0885 59.355 18.0802 60.3333C18.0735 61.0633 17.6802 61.5116 17.0735 61.505C16.4702 61.4983 16.0735 61.05 16.0935 60.3133C16.1335 58.8616 16.0235 57.375 16.3052 55.9683C16.9468 52.765 19.7468 50.5933 23.0285 50.535C24.0218 50.5183 25.0135 50.5316 26.0485 50.5316L26.0468 50.5266ZM22.2185 37.5616C22.1635 37.5883 22.1102 37.615 22.0552 37.6416C22.2418 41.4516 23.9202 44.4 27.2852 46.2966C30.7668 48.26 35.0902 47.865 38.2335 45.3816C40.6418 43.48 42.4902 39.5866 41.9185 37.525C41.7968 37.7333 41.7035 37.9066 41.5968 38.075C41.0135 39.0066 40.1735 39.5333 39.0718 39.5366C34.3952 39.55 29.7185 39.55 25.0435 39.5366C23.9418 39.5333 23.1035 39.0066 22.5168 38.0783C22.4102 37.91 22.3168 37.735 22.2168 37.5633L22.2185 37.5616ZM41.9018 29.5416C41.9468 29.5266 41.9918 29.51 42.0368 29.495C42.0368 29.145 42.0468 28.795 42.0368 28.4466C41.9735 26.4016 40.3818 24.7333 38.3452 24.575C37.3018 24.4933 37.0535 24.2266 37.0518 23.1783C37.0518 22.315 37.0518 21.4533 37.0518 20.575C34.6018 20.575 32.2535 20.5533 29.9052 20.58C26.3918 20.6216 23.2485 23.0916 22.3502 26.485C22.0868 27.4833 22.0052 28.495 22.1235 29.5383C22.2035 29.515 22.2318 29.515 22.2402 29.5033C22.3152 29.3816 22.3868 29.2583 22.4585 29.135C23.0535 28.1233 23.9302 27.5666 25.1118 27.565C29.7485 27.5566 34.3852 27.5566 39.0218 27.565C40.2018 27.5666 41.0785 28.1283 41.6702 29.1433C41.7485 29.2766 41.8268 29.4083 41.9068 29.5416H41.9018ZM32.0735 37.545C34.3168 37.545 36.5602 37.5466 38.8035 37.545C39.6702 37.545 40.0368 37.195 40.0402 36.3566C40.0468 34.4866 40.0468 32.6166 40.0402 30.7466C40.0368 29.93 39.6752 29.5616 38.8635 29.5616C34.3352 29.5566 29.8068 29.5566 25.2785 29.5616C24.4268 29.5616 24.0768 29.9216 24.0735 30.7816C24.0685 32.61 24.0685 34.4383 24.0735 36.2666C24.0752 37.2083 24.4085 37.545 25.3452 37.545C27.5885 37.5483 29.8318 37.545 32.0752 37.545H32.0735ZM36.0485 48.83C33.3685 49.7583 30.7368 49.7416 28.0802 48.845C28.1085 50.01 27.7418 51.16 28.8985 51.975C29.2568 52.2266 29.5018 52.3966 29.9235 52.1833C31.3235 51.4716 32.7385 51.435 34.1468 52.1633C34.6035 52.4 34.9568 52.32 35.2602 51.905C35.5102 51.5633 35.9418 51.27 36.0152 50.9C36.1402 50.2633 36.0502 49.5833 36.0502 48.83H36.0485ZM21.1235 31.5766V35.5166H22.0368V31.5766H21.1235ZM42.9952 35.5483V31.5833H42.0718V35.5166C42.1802 35.53 42.2585 35.5466 42.3368 35.5483C42.5418 35.5516 42.7485 35.5483 42.9968 35.5483H42.9952Z" fill="white"/>
<path d="M12.0932 4.59998C17.5982 4.59998 22.0799 9.09664 22.0732 14.615C22.0665 20.0633 17.5815 24.5633 12.1565 24.5666C6.63153 24.57 2.11653 20.0933 2.10987 14.61C2.10487 9.08831 6.5782 4.60164 12.0932 4.60164V4.59998ZM9.6082 22.1816C12.7065 23.0316 15.3815 22.465 17.6149 20.315C19.8082 18.205 20.4832 15.5933 19.8249 12.585C19.5515 12.585 19.3249 12.585 19.0982 12.585C17.4149 12.585 15.7299 12.6083 14.0465 12.5766C12.7899 12.5516 11.8632 11.93 11.3549 10.7816C10.8549 9.65331 11.0265 8.57331 11.8432 7.64664C12.1615 7.28498 12.5965 7.02498 13.0665 6.64831C10.3232 6.40164 8.04153 7.21164 6.2332 9.18664C4.30487 11.2933 3.70487 13.77 4.37153 16.58C5.6682 16.58 6.8932 16.565 8.1182 16.5833C9.57653 16.6066 10.7582 17.5816 11.0315 19.0116C11.2799 20.3133 10.7432 21.3166 9.60987 22.18L9.6082 22.1816ZM18.8765 10.5816C18.9049 10.53 18.9332 10.4783 18.9615 10.4266C18.5215 9.90664 18.0915 9.37664 17.6382 8.86998C17.5249 8.74331 17.3349 8.60998 17.1782 8.60664C16.1199 8.58498 15.0615 8.57498 14.0032 8.60998C13.4599 8.62831 13.0699 9.09664 13.0999 9.61164C13.1315 10.1616 13.4465 10.5533 13.9832 10.5666C15.6132 10.6066 17.2465 10.5816 18.8782 10.5816H18.8765ZM5.28153 18.585C5.93987 20.11 6.80153 20.7 8.1282 20.57C8.6832 20.515 9.07153 20.13 9.0932 19.6133C9.1132 19.1016 8.7382 18.6183 8.20153 18.5966C7.23653 18.5583 6.26987 18.5866 5.28153 18.5866V18.585Z" fill="white"/>
<path d="M8.58689 45.5317C6.19522 45.5317 3.80522 45.5333 1.41355 45.5317C0.441888 45.5317 0.113555 45.1983 0.113555 44.2133C0.111888 40.4283 0.111888 36.645 0.113555 32.86C0.113555 31.885 0.445221 31.5567 1.42855 31.5567C6.21022 31.555 10.9919 31.555 15.7736 31.5567C16.7502 31.5567 17.0802 31.8883 17.0819 32.8683C17.0836 36.6317 17.0836 40.395 17.0819 44.16C17.0819 45.2033 16.7469 45.5317 15.6969 45.5333C13.3269 45.5333 10.9569 45.5333 8.58689 45.5333V45.5317ZM15.0536 33.5933H2.15689V43.465C3.16855 43.75 3.83855 43.4383 4.36855 42.5633C4.89355 41.6967 5.56355 40.9183 6.18522 40.1117C6.76522 39.3583 7.43522 39.365 8.02689 40.115C8.34355 40.5167 8.64855 40.925 9.00022 41.3817C9.71522 40.31 10.3819 39.3117 11.0502 38.315C11.7519 37.27 12.4419 37.2767 13.1519 38.335C13.7602 39.24 14.3636 40.1483 15.0552 41.1833V33.5933H15.0536ZM12.0902 40.345C11.3569 41.4467 10.6902 42.4483 10.0002 43.4867H14.1852C13.4752 42.4217 12.8119 41.4267 12.0902 40.345ZM6.19189 43.4217C6.21855 43.49 6.24522 43.5583 6.27189 43.6267C6.75022 43.5233 7.22856 43.42 7.70689 43.3167C7.53022 42.9883 7.35522 42.66 7.17189 42.335C7.15855 42.3117 7.09855 42.3167 7.03022 42.3033C6.75522 42.67 6.47189 43.045 6.19022 43.4217H6.19189Z" fill="white"/>
<path d="M47.0299 14.5816C45.4499 14.5816 43.8699 14.585 42.2882 14.5816C41.3916 14.5783 41.0432 14.2316 41.0416 13.3366C41.0382 10.175 41.0382 7.01331 41.0416 3.85331C41.0416 2.95664 41.3916 2.60664 42.2866 2.60498C45.4466 2.60164 48.6082 2.60164 51.7682 2.60498C52.6649 2.60498 53.0149 2.95664 53.0166 3.85164C53.0199 7.01331 53.0199 10.175 53.0166 13.335C53.0166 14.2316 52.6649 14.58 51.7699 14.5816C50.1899 14.5866 48.6099 14.5816 47.0282 14.5816H47.0299ZM43.0799 4.62498V12.535H50.9899V4.62664H43.0799V4.62498Z" fill="white"/>
<path d="M56.0134 20.0733C56.0134 20.8633 56.0234 21.6533 56.01 22.4433C55.9967 23.1817 55.6267 23.5583 54.89 23.5633C53.31 23.575 51.73 23.575 50.15 23.5633C49.4117 23.5583 49.0367 23.1833 49.0317 22.445C49.02 20.865 49.02 19.2833 49.0317 17.7033C49.0367 16.965 49.4117 16.5883 50.15 16.5833C51.73 16.5717 53.31 16.5717 54.89 16.5833C55.6284 16.5883 55.9984 16.965 56.01 17.7033C56.0234 18.4933 56.0134 19.2833 56.0134 20.0733ZM51.0617 18.5867V21.5267H53.9684V18.5867H51.0617Z" fill="white"/>
<path d="M35.0566 12.585C34.4116 12.585 33.7666 12.5983 33.1233 12.5817C32.4566 12.5633 32.0733 12.1933 32.0633 11.5317C32.0466 10.2433 32.0466 8.95334 32.0633 7.66334C32.0716 6.99668 32.4483 6.61168 33.1116 6.60334C34.3999 6.58501 35.6899 6.58668 36.9783 6.60334C37.6449 6.61168 38.0299 6.99001 38.0383 7.65168C38.0566 8.94001 38.0566 10.23 38.0383 11.52C38.0283 12.2083 37.6366 12.57 36.9266 12.5833C36.3033 12.5967 35.6783 12.5867 35.0549 12.585H35.0566ZM34.0749 10.54H36.0166V8.63168H34.0749V10.54Z" fill="white"/>
<path d="M55.5632 38.5433C54.4849 38.5433 53.4066 38.5467 52.3266 38.5433C51.5432 38.54 51.1099 38.165 51.1249 37.5217C51.1382 36.905 51.5582 36.5517 52.3149 36.55C54.4716 36.545 56.6299 36.545 58.7866 36.55C59.5549 36.5517 60.0166 36.95 59.9999 37.5717C59.9832 38.1717 59.5382 38.5383 58.7982 38.5433C57.7199 38.55 56.6416 38.5433 55.5616 38.5433H55.5632Z" fill="white"/>
<path d="M54.08 39.5433C54.7017 39.5433 55.3234 39.53 55.945 39.5467C56.5817 39.565 57 39.9667 57.0067 40.5283C57.0134 41.0933 56.5967 41.5217 55.9667 41.53C54.7034 41.5483 53.4384 41.5467 52.175 41.53C51.5284 41.5217 51.1317 41.1283 51.125 40.5483C51.12 39.965 51.5117 39.5633 52.1534 39.545C52.795 39.525 53.4384 39.54 54.08 39.54V39.5433Z" fill="white"/>
<path d="M31.9949 34.55C30.4349 34.55 28.8766 34.5534 27.3166 34.55C26.5282 34.5484 26.0732 34.1784 26.0732 33.555C26.0732 32.9317 26.5282 32.5567 27.3149 32.5567C30.4749 32.5534 33.6366 32.5534 36.7966 32.5567C37.5832 32.5567 38.0399 32.9334 38.0399 33.555C38.0399 34.1784 37.5849 34.5484 36.7966 34.5517C35.1949 34.555 33.5949 34.5517 31.9932 34.5517L31.9949 34.55Z" fill="white"/>
<path d="M5.10997 37.54C4.57497 37.5267 4.1183 37.0517 4.13163 36.5233C4.14497 35.9883 4.61663 35.54 5.1533 35.5533C5.7033 35.5667 6.12663 36.0133 6.11497 36.5683C6.10497 37.1217 5.6583 37.5533 5.10997 37.54Z" fill="white"/>
</g>
</g>
<defs>
<clipPath id="clip0_741_5023">
<rect width="64" height="64" fill="white"/>
</clipPath>
<clipPath id="clip1_741_5023">
<rect width="64" height="64" fill="white"/>
</clipPath>
</defs>
</svg>
