<svg width="64" height="64" viewBox="0 0 64 64" fill="none" xmlns="http://www.w3.org/2000/svg">
<g clip-path="url(#clip0_741_5038)">
<path d="M0 26.5733C0.27 26.3267 0.506667 26.02 0.816667 25.84C3.705 24.155 6.61167 22.5033 9.49667 20.815C10.07 20.4783 10.5533 20.4883 11.1183 20.8183C13.9867 22.495 16.8633 24.1583 19.7517 25.8C20.3683 26.15 20.615 26.5917 20.6067 27.3067C20.575 30.3417 20.6017 33.3767 20.5833 36.4117C20.58 36.8333 20.6967 37.0833 21.0767 37.29C22.17 37.8867 23.24 38.525 24.3183 39.1483C24.7133 39.3767 24.9817 39.73 24.8483 40.1717C24.7583 40.4717 24.51 40.835 24.2417 40.9417C23.97 41.05 23.54 40.9667 23.2583 40.8167C22.1767 40.2433 21.1167 39.625 20.0667 38.9933C19.74 38.7967 19.495 38.7983 19.165 38.99C16.5117 40.54 13.8367 42.055 11.1883 43.615C10.555 43.9883 10.0333 43.9767 9.4 43.6033C6.57333 41.9383 3.72 40.3183 0.886667 38.665C0.56 38.4767 0.295 38.1767 0 37.9267C0 34.1417 0 30.3583 0 26.5733ZM9.25333 41.2C9.28167 41.0183 9.305 40.94 9.305 40.8617C9.30667 38.3083 9.31833 35.7533 9.28833 33.2C9.285 32.9833 9.05 32.69 8.84167 32.5683C6.735 31.3233 4.61167 30.1067 2.49167 28.885C2.35667 28.8067 2.20667 28.755 1.99833 28.6617C1.99833 31.4067 1.995 34.08 2.00833 36.7533C2.00833 36.8833 2.12333 37.0683 2.23833 37.135C4.54667 38.4833 6.86333 39.8183 9.255 41.2H9.25333ZM3 26.88C5.41 28.2683 7.725 29.6133 10.0567 30.9283C10.2133 31.0167 10.53 30.9467 10.7133 30.845C12.215 30.0017 13.705 29.1333 15.1967 28.27C15.9767 27.82 16.755 27.3667 17.6067 26.8717C15.2017 25.485 12.885 24.145 10.56 22.82C10.43 22.7467 10.1883 22.7433 10.06 22.815C7.735 24.1417 5.41833 25.4833 3.00167 26.88H3ZM18.575 28.6583C18.415 28.735 18.34 28.7633 18.2717 28.8033C16.0767 30.0683 13.8883 31.3417 11.685 32.59C11.3517 32.78 11.2983 33.0183 11.3 33.3517C11.3083 35.7833 11.3033 38.215 11.3067 40.6467C11.3067 40.8017 11.335 40.9583 11.3567 41.1967C13.455 39.985 15.49 38.8117 17.6083 37.5883C16.4617 36.9233 15.4033 36.3183 14.3517 35.6983C13.7083 35.3183 13.53 34.7717 13.8517 34.245C14.1567 33.7433 14.7167 33.6283 15.325 33.965C15.8883 34.2767 16.44 34.6083 16.9983 34.9283C17.5067 35.22 18.02 35.5067 18.575 35.82V28.66V28.6583Z" fill="white"/>
<path d="M42.2414 13.6634C42.2414 15.2017 42.2598 16.7417 42.2298 18.2784C42.2214 18.7384 42.3781 18.9834 42.7731 19.2C43.9914 19.8717 45.1948 20.5717 46.3864 21.29C47.1031 21.7217 47.1381 22.6217 46.4898 23.0284C46.0581 23.2984 45.6581 23.17 45.2614 22.9384C44.0764 22.2484 42.8814 21.575 41.7098 20.8667C41.3631 20.6567 41.1048 20.665 40.7548 20.87C38.1198 22.4117 35.4648 23.9184 32.8348 25.47C32.2048 25.8417 31.6881 25.8484 31.0514 25.47C28.4248 23.9134 25.7698 22.4067 23.1331 20.8667C22.7914 20.6667 22.5331 20.6434 22.1798 20.86C21.0081 21.5717 19.8148 22.245 18.6231 22.925C17.9448 23.3117 17.3531 23.2117 17.0514 22.68C16.7464 22.1417 16.9581 21.5934 17.6348 21.1984C18.7664 20.54 19.8848 19.8584 21.0398 19.2467C21.5181 18.9934 21.6498 18.6884 21.6448 18.17C21.6214 15.1767 21.6481 12.1817 21.6231 9.18835C21.6164 8.46002 21.8698 7.99835 22.5148 7.63502C25.3898 6.01002 28.2498 4.35835 31.0964 2.68669C31.6881 2.33835 32.1781 2.32835 32.7714 2.67502C35.6381 4.35502 38.5164 6.01835 41.4048 7.66002C42.0014 8.00002 42.2631 8.43169 42.2514 9.11335C42.2248 10.63 42.2431 12.1484 42.2431 13.6667L42.2414 13.6634ZM24.6381 8.72835C27.0581 10.125 29.3531 11.4584 31.6648 12.7634C31.8281 12.855 32.1498 12.81 32.3298 12.7084C34.5314 11.46 36.7214 10.1884 38.9131 8.92002C38.9948 8.87335 39.0648 8.80502 39.1998 8.70169C36.8064 7.31835 34.4781 5.96669 32.1364 4.63835C32.0081 4.56502 31.7414 4.64335 31.5831 4.73002C30.6931 5.22169 29.8164 5.73669 28.9364 6.24502C27.5398 7.05169 26.1431 7.85835 24.6398 8.72835H24.6381ZM40.2014 10.54C40.0781 10.5834 39.9981 10.5984 39.9314 10.6367C37.6998 11.92 35.4664 13.1984 33.2498 14.5084C33.0764 14.61 32.9498 14.935 32.9481 15.1584C32.9264 17.6517 32.9348 20.145 32.9364 22.64C32.9364 22.7534 32.9548 22.8667 32.9714 23.0634C35.0814 21.8467 37.1181 20.6717 39.2231 19.4567C38.8998 19.26 38.6748 19.1184 38.4448 18.985C37.7614 18.59 37.0698 18.2117 36.3948 17.8017C35.8464 17.4684 35.6964 16.9117 35.9831 16.4134C36.2598 15.9317 36.8248 15.7967 37.3981 16.085C37.5831 16.1784 37.7614 16.2867 37.9398 16.3917C38.6681 16.81 39.3948 17.23 40.2014 17.6967V10.54ZM30.9381 23.0817C30.9381 20.2917 30.9481 17.6334 30.9181 14.9767C30.9164 14.7834 30.6698 14.5267 30.4714 14.41C28.3614 13.17 26.2381 11.9517 24.1164 10.73C23.9848 10.6534 23.8364 10.605 23.6698 10.5317V17.695C24.5831 17.17 25.4198 16.6867 26.2598 16.2084C26.9881 15.7917 27.5764 15.8667 27.8914 16.41C28.2098 16.96 27.9898 17.5067 27.2714 17.93C26.9498 18.12 26.6231 18.3 26.2998 18.4884C25.7764 18.7934 25.2548 19.1 24.6531 19.4517C26.7814 20.6817 28.8031 21.85 30.9364 23.0817H30.9381Z" fill="white"/>
<path d="M63.8752 32.255C63.8752 33.9383 63.8602 35.6233 63.8835 37.3067C63.8918 37.9217 63.6485 38.3117 63.1235 38.6133C60.2035 40.2833 57.2885 41.9633 54.3852 43.6633C53.8135 43.9983 53.3235 43.9767 52.7602 43.6467C50.1085 42.0933 47.4368 40.5733 44.7852 39.02C44.4135 38.8017 44.1435 38.7933 43.7718 39.02C42.7635 39.6383 41.7285 40.215 40.6985 40.8C40.0018 41.195 39.4385 41.0983 39.1268 40.55C38.8235 40.015 39.0385 39.46 39.7135 39.0683C40.7552 38.4633 41.7935 37.8533 42.8485 37.2733C43.1818 37.09 43.2968 36.8733 43.2952 36.4917C43.2785 33.415 43.3002 30.3383 43.2735 27.2617C43.2668 26.5717 43.5185 26.15 44.1118 25.8117C47.0185 24.1583 49.9135 22.4867 52.7985 20.7967C53.3518 20.4733 53.8185 20.4817 54.3635 20.8C57.2702 22.495 60.1835 24.175 63.1052 25.845C63.6535 26.1583 63.8935 26.57 63.8835 27.2083C63.8552 28.8917 63.8735 30.5767 63.8735 32.26L63.8752 32.255ZM54.5618 41.175C54.7318 41.1067 54.8085 41.0867 54.8752 41.0483C57.1052 39.765 59.3368 38.4883 61.5518 37.18C61.7252 37.0767 61.8618 36.76 61.8652 36.54C61.8868 34.255 61.8785 31.9717 61.8785 29.6867C61.8785 29.365 61.8785 29.0433 61.8785 28.725C61.7635 28.725 61.7152 28.71 61.6868 28.7267C59.4035 30.04 57.1185 31.3517 54.8435 32.6783C54.7118 32.755 54.5752 32.96 54.5752 33.1067C54.5585 35.7633 54.5635 38.4183 54.5635 41.175H54.5618ZM46.2735 26.8783C48.6035 28.2217 50.8568 29.5067 53.0918 30.825C53.4718 31.0483 53.7418 31.0117 54.0985 30.8033C56.1585 29.595 58.2302 28.4083 60.2952 27.2117C60.4652 27.1133 60.6268 27.0017 60.8568 26.8567C58.4718 25.4817 56.1552 24.1417 53.8302 22.8183C53.7018 22.745 53.4585 22.7433 53.3318 22.815C51.0068 24.14 48.6902 25.4833 46.2735 26.8783ZM52.5035 41.1867C52.5352 41.0383 52.5602 40.9767 52.5602 40.9167C52.5635 38.34 52.5752 35.7617 52.5452 33.185C52.5435 32.97 52.3018 32.6783 52.0918 32.555C50.0185 31.3317 47.9285 30.135 45.8418 28.9317C45.6868 28.8417 45.5235 28.7683 45.3302 28.67V35.8017C45.4985 35.7083 45.6085 35.6517 45.7152 35.59C46.6868 35.0317 47.6518 34.46 48.6335 33.9183C49.1685 33.6233 49.7102 33.7633 50.0035 34.2183C50.3002 34.68 50.1818 35.2317 49.6968 35.585C49.5302 35.7067 49.3435 35.8033 49.1652 35.9083C48.2202 36.4567 47.2752 37.0033 46.2668 37.585C48.3818 38.8067 50.4085 39.9767 52.5035 41.1867Z" fill="white"/>
<path d="M21.6333 49.7383C21.6333 48.1167 21.6516 46.495 21.6249 44.875C21.6133 44.1783 21.8449 43.7217 22.4766 43.365C25.3683 41.73 28.2449 40.0683 31.1083 38.3833C31.7049 38.0317 32.1899 38.0383 32.7799 38.3833C35.6449 40.0633 38.5216 41.725 41.4116 43.365C42.0099 43.705 42.2566 44.14 42.2533 44.82C42.2349 48.125 42.2333 51.43 42.2533 54.735C42.2583 55.4417 41.9966 55.885 41.3783 56.235C38.5066 57.8633 35.6466 59.5133 32.7999 61.185C32.1866 61.545 31.6849 61.5367 31.0716 61.1767C28.2083 59.4917 25.3299 57.835 22.4416 56.1933C21.8633 55.865 21.6183 55.4433 21.6266 54.7883C21.6483 53.105 21.6333 51.4217 21.6333 49.7367V49.7383ZM32.9366 58.79C35.2916 57.4317 37.5183 56.1367 39.7583 54.8683C40.1349 54.655 40.2616 54.4083 40.2583 53.9817C40.2383 51.6117 40.2499 49.2417 40.2483 46.87C40.2483 46.675 40.2299 46.4783 40.2199 46.275C40.0966 46.2933 40.0483 46.2883 40.0149 46.3083C37.7466 47.6133 35.4766 48.9133 33.2216 50.2417C33.0633 50.335 32.9516 50.6383 32.9483 50.8467C32.9266 52.4883 32.9366 54.1317 32.9366 55.775C32.9366 56.745 32.9366 57.7133 32.9366 58.7917V58.79ZM23.6649 46.1783C23.6483 46.5017 23.6299 46.685 23.6299 46.8667C23.6283 49.2367 23.6416 51.6067 23.6166 53.9767C23.6116 54.4433 23.7866 54.675 24.1716 54.8933C26.2333 56.0583 28.2783 57.25 30.3299 58.4317C30.5033 58.5317 30.6816 58.6233 30.8599 58.72C30.8983 58.6417 30.9316 58.6083 30.9316 58.575C30.9366 55.955 30.9449 53.3367 30.9233 50.7167C30.9233 50.5283 30.7249 50.2767 30.5483 50.1683C29.7549 49.675 28.9349 49.225 28.1266 48.7567C26.6733 47.9167 25.2183 47.0767 23.6649 46.18V46.1783ZM39.1983 44.46C39.0699 44.3633 38.9983 44.295 38.9149 44.2467C36.7083 42.9683 34.5049 41.6833 32.2816 40.435C32.0899 40.3267 31.7166 40.3667 31.5099 40.4817C29.3799 41.6833 27.2649 42.915 25.1466 44.14C24.9983 44.225 24.8633 44.3317 24.6766 44.4567C26.7283 45.64 28.7466 46.7133 30.6599 47.9467C31.6199 48.5667 32.3083 48.5283 33.2483 47.93C35.1649 46.7083 37.1733 45.6283 39.1966 44.4583L39.1983 44.46Z" fill="white"/>
</g>
<defs>
<clipPath id="clip0_741_5038">
<rect width="64" height="64" fill="white"/>
</clipPath>
</defs>
</svg>
