<svg width="64" height="64" viewBox="0 0 64 64" fill="none" xmlns="http://www.w3.org/2000/svg">
<g clip-path="url(#clip0_741_5017)">
<g clip-path="url(#clip1_741_5017)">
<path d="M0 29.1936C0.253125 28.1311 0.410938 27.0342 0.775 26.0108C2.59687 20.8967 7.27344 17.5749 12.7031 17.4702C12.9297 17.4655 13.1547 17.4702 13.3031 17.4702C13.8328 15.9249 14.2359 14.3952 14.8688 12.9686C17.4094 7.25143 21.6406 3.2858 27.5609 1.24674C29.25 0.665491 31.0703 0.467053 32.8297 0.0936157C32.9484 0.0686157 33.0672 0.0326782 33.1844 0.00299072C34.1828 0.00299072 35.1812 0.00299072 36.1781 0.00299072C37.0969 0.154553 38.0266 0.260803 38.9344 0.463928C46.2984 2.11862 51.5094 6.40455 54.5266 13.3249C54.75 13.8374 55.0641 14.1311 55.5484 14.3921C60.3109 16.9514 63.1609 20.8983 63.7422 26.2905C64.5766 34.0405 59.6359 40.9467 52.1156 42.7577C51.0516 43.0139 50.3078 42.5967 50.2563 41.7155C50.2156 40.9999 50.6156 40.6217 51.4922 40.3186C52.6828 39.9061 53.9359 39.5624 55 38.9217C59.3797 36.2842 61.5938 32.328 61.3219 27.2296C61.0531 22.2092 58.4703 18.5671 53.925 16.3827C53.1984 16.0342 52.7406 15.5842 52.4484 14.8296C49.2641 6.62643 41.3734 1.77174 32.6391 2.61393C24.3344 3.41393 17.2672 9.96393 15.8516 18.1717C15.8203 18.3561 15.7859 18.5389 15.7484 18.7217C15.5234 19.8108 15.0719 20.1624 13.9578 20.0358C12.6594 19.8874 11.3906 20.0046 10.1297 20.3311C5.55938 21.5155 2.36562 25.8577 2.50781 30.7092C2.64531 35.4186 6.10313 39.5217 10.6984 40.4311C10.9422 40.4796 11.1875 40.5327 11.4219 40.6139C12.0797 40.8467 12.3938 41.4327 12.2344 42.0936C12.0859 42.7092 11.4672 43.0967 10.7953 42.9967C5.28437 42.1655 0.803125 37.5327 0.120312 31.9671C0.103125 31.8296 0.040625 31.6983 0 31.5639C0 30.7733 0 29.9842 0 29.1936Z" fill="white"/>
<path d="M0 59.8828C0.295312 59.1125 0.876562 58.875 1.67031 58.8765C8.79688 58.8906 15.9234 58.8843 23.0484 58.889C23.3156 58.889 23.5953 58.9015 23.8453 58.9828C24.4031 59.1625 24.6922 59.5937 24.6797 60.164C24.6687 60.7062 24.3766 61.1172 23.8438 61.2828C23.5922 61.3609 23.3125 61.3765 23.0469 61.3765C15.9203 61.3812 8.79375 61.375 1.66875 61.389C0.875 61.3906 0.29375 61.1547 0 60.3828V59.8843L0 59.8828Z" fill="white"/>
<path d="M30.6906 53.1438C27.7328 53.1438 24.8656 53.1828 22 53.1313C19.5688 53.0875 17.7 51.9875 16.511 49.8438C15.125 47.3453 15.6469 44.2844 17.7563 42.3219C17.8906 42.1969 18.0266 42.0735 18.2031 41.911C16.625 40.6063 15.7453 38.9594 15.7453 36.9313C15.7453 34.9016 16.6156 33.25 18.2141 31.9375C17.1844 31.0766 16.4391 30.0797 16.0453 28.8375C14.7906 24.8891 17.7141 20.7516 21.8641 20.725C28.5797 20.6813 35.2953 20.7 42.0094 20.7188C44.4891 20.725 46.811 22.3438 47.6985 24.5953C48.6703 27.0578 48.0813 29.7219 46.1688 31.5125C46.0344 31.6391 45.8969 31.7625 45.7078 31.936C47.2578 33.2438 48.1531 34.8703 48.1578 36.9063C48.1625 38.9469 47.2844 40.5813 45.7438 41.8766C46.1719 42.3547 46.6156 42.7657 46.9594 43.25C48.3469 45.2078 48.5828 47.3282 47.5703 49.4969C46.5031 51.7844 44.6188 53.0313 42.1094 53.1172C39.3891 53.211 36.6625 53.1422 33.9391 53.1438C33.7141 53.1438 33.4891 53.1438 33.225 53.1438V56.611C34.3703 57.0922 35.1906 57.9047 35.5344 59.1266C36.0594 60.9938 35.0313 62.986 33.2406 63.6235C31.3594 64.2953 29.3688 63.4641 28.5406 61.6641C27.7313 59.9063 28.3985 57.8141 30.1328 56.8922C30.6 56.6438 30.7235 56.3766 30.7031 55.8891C30.6656 55 30.6922 54.1094 30.6922 53.1422L30.6906 53.1438ZM31.9344 33.1844C29.3172 33.1844 26.6985 33.1844 24.0813 33.1844C23.3328 33.1844 22.5844 33.1594 21.8375 33.1969C19.4735 33.3188 17.8422 35.4422 18.3328 37.7313C18.7125 39.5016 20.2344 40.6641 22.2188 40.6657C28.4297 40.6719 34.6422 40.6688 40.8531 40.6672C41.2688 40.6672 41.686 40.6875 42.0985 40.6516C43.6891 40.5141 44.8516 39.736 45.4125 38.2266C46.3438 35.7188 44.5703 33.2141 41.8422 33.1891C38.5391 33.161 35.236 33.1828 31.9328 33.1813L31.9344 33.1844ZM31.9031 30.6891C35.186 30.6891 38.4672 30.6985 41.75 30.686C43.9016 30.6766 45.5313 29.2063 45.6563 27.2C45.7922 25.0157 44.1406 23.2235 41.8828 23.2157C35.2563 23.1922 28.6297 23.2078 22.0016 23.2094C21.836 23.2094 21.6688 23.2235 21.5047 23.2453C19.375 23.5328 17.9438 25.4797 18.3063 27.5922C18.6235 29.4407 20.1578 30.6813 22.1797 30.6875C25.4203 30.6985 28.661 30.6907 31.9016 30.6907L31.9031 30.6891ZM31.9485 50.65C35.2094 50.65 38.4719 50.661 41.7328 50.6469C44.0172 50.6375 45.6891 49.0141 45.6656 46.8657C45.6438 44.7469 43.975 43.1719 41.7125 43.1688C35.211 43.161 28.7078 43.1657 22.2063 43.1688C21.9985 43.1688 21.7906 43.1735 21.5844 43.1985C19.3969 43.45 17.9219 45.4391 18.3141 47.5985C18.6438 49.4141 20.1719 50.6422 22.1641 50.65C25.425 50.6625 28.6875 50.6532 31.9485 50.6532V50.65ZM31.9266 58.8953C31.2735 58.9032 30.6938 59.4938 30.7 60.1453C30.7063 60.7985 31.2985 61.3782 31.95 61.3703C32.6047 61.3625 33.1844 60.7719 33.1766 60.1203C33.1688 59.4672 32.5766 58.886 31.9266 58.8938V58.8953Z" fill="white"/>
<path d="M51.5248 58.8859C55.0592 58.8859 58.592 58.8859 62.1264 58.8859C62.3342 58.8859 62.5451 58.8781 62.7482 58.9078C63.3998 59.0047 63.8623 59.5234 63.8623 60.1344C63.8623 60.7453 63.3998 61.2609 62.7451 61.3578C62.5404 61.3875 62.3311 61.3797 62.1232 61.3797C55.0139 61.3797 47.9045 61.3797 40.7951 61.3797C40.7529 61.3797 40.7123 61.3797 40.6701 61.3797C39.6592 61.3734 39.0561 60.9063 39.0576 60.1313C39.0607 59.3531 39.6607 58.8859 40.6717 58.8859C44.2889 58.8844 47.9061 58.8859 51.5217 58.8859H51.5248Z" fill="white"/>
<path d="M27.5623 38.0016C26.0451 38.0016 24.5279 38.0156 23.0107 37.9969C22.0217 37.9844 21.4717 37.4453 21.5576 36.6203C21.6185 36.0359 21.9498 35.6766 22.5232 35.5562C22.6842 35.5219 22.8529 35.5109 23.0185 35.5109C26.0732 35.5078 29.1295 35.5109 32.1842 35.5078C32.7592 35.5078 33.2607 35.6469 33.5326 36.2109C33.7513 36.6641 33.6935 37.1031 33.3951 37.5016C33.0576 37.9531 32.5592 38 32.0513 38.0016C30.5545 38.0047 29.0576 38.0016 27.5623 38.0016Z" fill="white"/>
<path d="M36.9077 35.5281C37.5796 35.5312 38.1468 36.0937 38.1421 36.7531C38.1374 37.414 37.5671 37.9703 36.8952 37.9672C36.2155 37.9656 35.6702 37.4172 35.6734 36.739C35.6765 36.0594 36.2218 35.5234 36.9093 35.5281H36.9077Z" fill="white"/>
<path d="M41.2499 35.5266C41.9233 35.5234 42.4936 36.075 42.4999 36.7359C42.5061 37.3969 41.9436 37.9609 41.2702 37.9672C40.5874 37.9734 40.0405 37.4375 40.0342 36.7563C40.028 36.0734 40.567 35.5297 41.2499 35.5266Z" fill="white"/>
<path d="M27.5405 28.0219C26.0436 28.0219 24.5467 28.0313 23.0499 28.0188C22.1483 28.011 21.6405 27.6235 21.5592 26.9281C21.4764 26.2188 21.8936 25.6641 22.6045 25.5656C22.8499 25.5313 23.1014 25.5297 23.3499 25.5297C26.1764 25.5281 29.0045 25.5297 31.8311 25.5297C31.9561 25.5297 32.0811 25.5266 32.2045 25.5297C33.1077 25.5594 33.6389 25.9969 33.6655 26.7328C33.692 27.4735 33.1264 28.0031 32.2155 28.0156C30.6561 28.036 29.0983 28.0219 27.5389 28.0219H27.5405Z" fill="white"/>
<path d="M36.8798 25.5469C37.5532 25.5375 38.1251 26.0812 38.1407 26.7453C38.1563 27.4 37.5891 27.9781 36.9219 27.9906C36.2438 28.0016 35.6829 27.4625 35.6735 26.7891C35.6626 26.1078 36.1985 25.5578 36.8798 25.5484V25.5469Z" fill="white"/>
<path d="M41.2282 25.5469C41.9047 25.5328 42.475 26.0657 42.4969 26.736C42.5188 27.3922 41.9625 27.9735 41.2922 27.9922C40.6157 28.011 40.0516 27.4766 40.036 26.8C40.0204 26.1125 40.5438 25.561 41.2282 25.5469Z" fill="white"/>
<path d="M27.5564 47.9765C26.1423 47.9765 24.7298 47.9797 23.3158 47.975C23.0673 47.975 22.8158 47.964 22.572 47.9234C21.933 47.814 21.533 47.339 21.5376 46.7187C21.5423 46.1031 21.9564 45.5437 22.5892 45.539C25.933 45.5094 29.2783 45.5094 32.622 45.5422C33.2345 45.5484 33.6751 46.1484 33.6689 46.739C33.6626 47.3344 33.2345 47.8515 32.6017 47.9219C32.0267 47.9859 31.4408 47.9734 30.8611 47.9781C29.7595 47.9859 28.658 47.9797 27.5564 47.9797V47.9765Z" fill="white"/>
<path d="M38.1408 46.7062C38.1549 47.3609 37.5892 47.9359 36.9205 47.9468C36.2392 47.9578 35.683 47.4234 35.672 46.7468C35.6611 46.0687 36.2017 45.5125 36.8798 45.5047C37.5486 45.4968 38.1267 46.0468 38.1408 46.7062Z" fill="white"/>
<path d="M42.4954 46.7531C42.4766 47.4172 41.9016 47.9625 41.2313 47.95C40.5532 47.9375 40.0204 47.3812 40.0345 46.6984C40.0485 46.0172 40.6001 45.4906 41.286 45.5047C41.9548 45.5187 42.5126 46.0953 42.4954 46.7515V46.7531Z" fill="white"/>
</g>
</g>
<defs>
<clipPath id="clip0_741_5017">
<rect width="64" height="64" fill="white"/>
</clipPath>
<clipPath id="clip1_741_5017">
<rect width="64" height="64" fill="white"/>
</clipPath>
</defs>
</svg>
