<svg width="64" height="64" viewBox="0 0 64 64" fill="none" xmlns="http://www.w3.org/2000/svg">
<g clip-path="url(#clip0_741_5040)">
<g clip-path="url(#clip1_741_5040)">
<path d="M11.4801 64V57.7467H14.5801V53.4117H24.7868C24.7984 53.3717 24.8118 53.3317 24.8234 53.2917C23.6901 52.6234 22.5284 51.9967 21.4318 51.27C20.5784 50.705 19.7034 50.5134 18.6868 50.5217C13.2168 50.56 7.74842 50.54 2.27842 50.54C2.03509 50.54 1.79009 50.54 1.51176 50.54V35.93H3.32676V48.635H17.6251C17.5601 47.8367 17.3434 47.0084 17.4601 46.23C17.7734 44.135 19.6934 42.9017 21.7884 43.3517C22.1151 43.4217 22.2751 43.3667 22.4384 43.0884C24.5684 39.4484 26.7068 35.815 28.8434 32.1784C28.8751 32.125 28.8901 32.065 28.9201 31.9917C27.9851 31.08 27.5251 29.975 27.7584 28.6684C28.2184 26.1067 30.9434 24.915 33.2601 26.255C35.2568 27.41 37.2351 28.5934 39.2218 29.7634C39.7018 30.0467 40.1851 30.3267 40.7401 30.65V2.02837H12.7234V11.3317H3.36342V33.885H1.50176C1.49176 33.6734 1.47509 33.4717 1.47509 33.27C1.47509 25.7217 1.46842 18.1734 1.49009 10.6267C1.49009 10.3 1.64842 9.8917 1.87509 9.6617C4.89842 6.59503 7.94009 3.54837 10.9984 0.518367C11.2168 0.301701 11.5968 0.131701 11.9001 0.130034C21.9451 0.110034 31.9901 0.113368 42.0351 0.113368C42.2184 0.113368 42.4018 0.113368 42.6651 0.113368C42.6651 0.423368 42.6651 0.686701 42.6651 0.948367C42.6651 11.1784 42.6634 21.4084 42.6751 31.64C42.6751 32.0417 42.7701 32.4567 42.8918 32.8417C43.1651 33.705 43.1701 34.5484 42.8801 35.41C42.7634 35.755 42.6784 36.1284 42.6751 36.49C42.6551 38.295 42.6651 40.1 42.6651 41.8667C43.2751 41.6617 43.8401 41.3634 44.4334 41.2917C46.6584 41.0234 48.4068 42.9834 47.8834 45.1584C47.7618 45.6634 47.9051 45.8367 48.2984 46.0617C50.1368 47.1167 51.9551 48.2034 53.7801 49.2784C53.9218 49.3617 54.0551 49.455 54.2484 49.58C53.9368 50.1067 53.6368 50.615 53.3084 51.1684C51.1284 49.8884 48.9868 48.6317 46.7868 47.34C45.9468 48.765 45.1284 50.1534 44.2951 51.5667C44.4118 51.65 44.5034 51.7284 44.6068 51.7884C48.6351 54.16 52.6651 56.5267 56.6901 58.9034C57.3934 59.3184 58.1251 59.45 58.8984 59.175C59.8184 58.8467 60.3834 58.1817 60.5168 57.2167C60.6601 56.1767 60.2868 55.3184 59.3851 54.7634C58.1118 53.98 56.8101 53.24 55.5234 52.4784C55.3301 52.3634 55.1434 52.2384 54.9318 52.1034C55.2451 51.5717 55.5401 51.0734 55.8534 50.5434C56.0168 50.6217 56.1651 50.6817 56.3018 50.7617C57.6101 51.5284 58.9251 52.285 60.2218 53.0717C62.3834 54.385 63.0601 56.9667 61.8134 59.075C60.5851 61.1534 57.9401 61.7967 55.7734 60.5284C51.8301 58.2184 47.8934 55.8967 43.9534 53.58C43.7584 53.465 43.5601 53.3567 43.3351 53.23C42.1968 54.43 40.8551 54.855 39.3368 54.1017C37.9168 53.3967 37.4501 52.1384 37.6134 50.575H32.8018C32.7201 51.5184 32.6418 52.4317 32.5584 53.395H37.0468V57.715H40.1851V63.9967H11.4801V64ZM38.2701 59.5617H29.3034V57.6967H35.1218V55.315H16.4918V57.7334H27.3068V59.6034H13.3668V62.0884H38.2701V59.5617ZM23.8484 44.365C25.9051 45.5734 27.9151 46.755 29.9518 47.95C32.2001 44.13 34.4051 40.38 36.6384 36.585C34.5768 35.3734 32.5668 34.1934 30.5351 33C28.2834 36.8267 26.0768 40.5767 23.8484 44.365ZM21.1484 45.1317C20.1868 45.125 19.5418 45.605 19.3134 46.3717C19.0734 47.1767 19.3918 47.9084 20.2318 48.405C22.8568 49.9567 25.4868 51.505 28.1218 53.04C28.4018 53.2034 28.7268 53.3384 29.0434 53.3784C29.8101 53.475 30.5451 52.9834 30.8034 52.2667C31.0818 51.4917 30.8284 50.6634 30.0734 50.21C27.3301 48.5717 24.5718 46.9567 21.8118 45.3484C21.5701 45.2067 21.2701 45.1684 21.1501 45.13L21.1484 45.1317ZM39.4501 35.8884C40.2734 35.8317 40.9651 35.3367 41.1718 34.6067C41.4018 33.7884 41.0918 33.0417 40.2718 32.555C37.6301 30.99 34.9851 29.4317 32.3334 27.8834C31.3301 27.2984 30.3101 27.5367 29.8018 28.44C29.3101 29.315 29.6168 30.2734 30.6034 30.8584C33.2268 32.4134 35.8551 33.96 38.4884 35.4984C38.7851 35.6717 39.1284 35.7617 39.4501 35.89V35.8884ZM46.1018 44.58C46.1018 43.85 45.7068 43.32 45.1668 43.17C44.5401 42.9967 43.9768 43.235 43.5934 43.8817C42.2901 46.08 40.9934 48.28 39.7084 50.4884C39.2718 51.2384 39.4401 52 40.0884 52.3934C40.7551 52.7984 41.5301 52.5717 41.9868 51.8017C43.2801 49.6217 44.5618 47.4367 45.8384 45.2484C45.9801 45.0034 46.0501 44.7184 46.1034 44.58H46.1018ZM4.68176 9.44837H10.8034V3.4567C10.7134 3.49503 10.6484 3.50337 10.6118 3.54003C8.67175 5.47003 6.73509 7.4017 4.68176 9.44837ZM39.3818 47.3434C39.8268 46.5867 40.2434 45.8767 40.6868 45.1184C38.9618 44.1067 37.2768 43.1184 35.5584 42.11C35.1034 42.885 34.6884 43.5917 34.2551 44.33C35.9901 45.35 37.6634 46.3334 39.3801 47.3417L39.3818 47.3434ZM36.5118 40.4967C37.9318 41.3284 39.3134 42.1367 40.7451 42.9734V37.67C39.9768 37.6334 39.2634 37.59 38.5501 37.5734C38.4151 37.57 38.2118 37.635 38.1501 37.735C37.5984 38.6317 37.0718 39.545 36.5134 40.495L36.5118 40.4967ZM33.3051 45.9434C32.7618 46.865 32.2568 47.7234 31.7301 48.62H37.8501C36.2668 47.6884 34.8284 46.84 33.3051 45.9434Z" fill="white"/>
<path d="M22.0532 19.8966C17.9249 19.8933 14.5766 16.52 14.5899 12.3766C14.6016 8.26662 17.9466 4.94496 22.0682 4.94996C26.2016 4.95496 29.5782 8.33996 29.5515 12.4533C29.5249 16.545 26.1466 19.8983 22.0549 19.8966H22.0532ZM22.0366 6.82162C18.9382 6.83329 16.4582 9.32496 16.4615 12.4233C16.4649 15.5116 18.9632 18.01 22.0532 18.02C25.1466 18.0283 27.7099 15.4533 27.6749 12.375C27.6399 9.28662 25.1249 6.80996 22.0349 6.82162H22.0366Z" fill="white"/>
<path d="M24.8282 33.9533H8.07324V32.1716H24.8282V33.9533Z" fill="white"/>
<path d="M8.05322 24.6016V22.83H24.8199V24.6016H8.05322Z" fill="white"/>
<path d="M8.06494 29.315V27.55H24.8199V29.315H8.06494Z" fill="white"/>
<path d="M8.02322 36.7866H17.3149V38.595C17.1316 38.6066 16.9499 38.6283 16.7682 38.6283C14.0682 38.63 11.3682 38.6166 8.66822 38.6416C8.14156 38.6466 7.96322 38.4866 8.01489 37.9733C8.05156 37.6066 8.02156 37.2333 8.02156 36.7866H8.02322Z" fill="white"/>
<path d="M18.5 12.405C19.0133 12.0316 19.4817 11.6916 19.9983 11.3166C20.38 11.8266 20.7467 12.3183 21.1583 12.87C22.1633 11.6833 23.1467 10.5216 24.1567 9.32996C24.645 9.73996 25.1017 10.125 25.585 10.5316C24.0733 12.3233 22.5883 14.0816 21.0383 15.92C20.1767 14.7266 19.3483 13.58 18.5 12.405Z" fill="white"/>
</g>
</g>
<defs>
<clipPath id="clip0_741_5040">
<rect width="64" height="64" fill="white"/>
</clipPath>
<clipPath id="clip1_741_5040">
<rect width="64" height="64" fill="white"/>
</clipPath>
</defs>
</svg>
