<svg width="64" height="64" viewBox="0 0 64 64" fill="none" xmlns="http://www.w3.org/2000/svg">
<path d="M48.8918 17.305C50.5185 14.8167 52.0435 12.4917 53.5585 10.1584C54.2718 9.06004 55.2202 8.31004 56.5318 8.08504C58.2985 7.7817 59.7502 8.36337 60.7968 9.7917C61.8485 11.2267 61.9268 12.7984 61.1085 14.375C60.7752 15.0184 60.3485 15.615 59.9518 16.2234C56.9518 20.815 53.9418 25.4 50.9618 30.005C50.7602 30.3167 50.6635 30.7834 50.7102 31.1534C51.3818 36.47 52.0868 41.7834 52.7802 47.0984C52.8768 47.84 53.0085 48.5817 53.0235 49.3267C53.0618 51.2317 51.7235 52.8417 49.8485 53.1484C48.5785 53.3567 47.2785 53.4117 46.0235 53.6834C44.4052 54.0334 42.8085 54.495 41.2202 54.9684C34.1818 57.0717 27.1502 59.2017 20.1135 61.3134C17.6052 62.0667 15.6085 60.9684 14.8502 58.4484C10.7485 44.815 6.64684 31.18 2.5435 17.5467C1.72517 14.825 2.7585 12.9 5.4835 12.085C7.71017 11.4184 9.9335 10.74 12.1635 10.085C12.5452 9.97337 12.7235 9.84004 12.7452 9.3817C12.8352 7.4467 14.3085 6.02337 16.3785 5.75337C23.3002 4.85004 30.2185 3.9367 37.1402 3.0267C39.0552 2.77504 40.9702 2.51504 42.8868 2.27337C45.0835 1.99504 46.9785 3.3567 47.2952 5.54337C47.8285 9.22337 48.2852 12.9134 48.7752 16.6C48.7985 16.78 48.8335 16.9567 48.8902 17.305H48.8918ZM48.9768 33.0334C48.7668 33.3334 48.6452 33.4984 48.5335 33.6684C47.3635 35.46 46.1968 37.255 45.0252 39.045C44.8902 39.2517 44.7468 39.4684 44.5635 39.6284C42.9052 41.0784 41.2418 42.525 39.5652 43.955C38.9268 44.5 38.1702 44.68 37.3468 44.47C35.9185 44.105 35.1185 42.73 35.5068 41.285C35.7235 40.4784 35.9802 39.6817 36.2435 38.8034C34.7285 39.0017 33.3318 39.1867 31.9352 39.3684C29.1952 39.725 26.4568 40.09 23.7152 40.4284C22.9602 40.5217 22.5268 40.215 22.4502 39.6417C22.3685 39.0284 22.7268 38.6367 23.4968 38.5317C27.7785 37.95 32.0602 37.37 36.3435 36.805C36.7652 36.75 37.0218 36.6267 37.1135 36.1717C37.3485 35.0117 37.9318 34.015 38.5968 33.0484C39.3935 31.89 40.1402 30.6967 40.9768 29.4117C40.6118 29.45 40.3718 29.4684 40.1335 29.5C37.8068 29.815 35.4835 30.145 33.1552 30.4417C32.3852 30.54 31.9268 30.205 31.8652 29.6067C31.8068 29.045 32.1885 28.6484 32.9135 28.55C35.9185 28.1434 38.9252 27.75 41.9285 27.325C42.1735 27.29 42.4702 27.11 42.6068 26.905C44.1035 24.6567 45.5785 22.395 47.0435 20.125C47.1652 19.9367 47.2368 19.66 47.2085 19.4417C46.6235 14.9717 46.0202 10.505 45.4185 6.03837C45.2468 4.76004 44.3502 4.05004 43.0652 4.2067C41.1885 4.43504 39.3152 4.68837 37.4418 4.93337C33.1585 5.49337 28.8735 6.05337 24.5902 6.6167C21.8302 6.98004 19.0702 7.3317 16.3135 7.7217C15.2068 7.87837 14.5118 8.82837 14.6468 9.9067C14.8835 11.7817 15.1318 13.6567 15.3785 15.53C16.2352 22.0167 17.0952 28.5034 17.9502 34.9917C18.7402 40.985 19.5235 46.9784 20.3168 52.9717C20.4902 54.285 21.3535 54.9634 22.6535 54.7967C26.8985 54.255 31.1402 53.6984 35.3835 53.1417C40.0385 52.53 44.6935 51.9184 49.3452 51.2917C50.5802 51.125 51.2452 50.1784 51.0785 48.9367C50.8052 46.8984 50.5435 44.8584 50.2735 42.82C49.8502 39.6117 49.4235 36.4034 48.9768 33.0334ZM12.9652 11.8234C10.5535 12.55 8.21184 13.2567 5.8685 13.9634C4.3935 14.4084 3.8885 15.3367 4.33184 16.8117C8.45517 30.52 12.5802 44.2267 16.7068 57.935C17.1485 59.405 18.0935 59.915 19.5652 59.4717C23.4785 58.2934 27.3902 57.1117 31.3018 55.93C31.6485 55.825 31.9968 55.7217 32.3452 55.6167C32.1202 55.515 31.9185 55.51 31.7202 55.5367C28.7752 55.9217 25.8302 56.295 22.8885 56.7034C20.7352 57.0034 18.7802 55.6284 18.4552 53.475C18.1335 51.34 17.8735 49.195 17.5918 47.055C16.9835 42.4434 16.3768 37.8317 15.7718 33.22C15.1702 28.6284 14.5702 24.0367 13.9685 19.445C13.6385 16.935 13.3068 14.425 12.9635 11.825L12.9652 11.8234ZM56.0468 18.6617C54.6835 17.7734 53.3668 16.9167 52.0135 16.035C47.8968 22.34 43.8168 28.5884 39.7218 34.8634C41.1002 35.7634 42.4018 36.6134 43.7518 37.4934C47.8602 31.2034 51.9435 24.9484 56.0485 18.6617H56.0468ZM54.9652 11.6267C56.2968 12.5034 57.6052 13.365 58.9068 14.2217C60.3468 12.5584 59.6335 10.935 58.6018 10.2834C57.4552 9.56004 55.7152 9.85504 54.9652 11.6267ZM38.9068 36.6317C38.6818 37.38 38.4835 38.0384 38.3252 38.56C39.2235 39.1534 40.0235 39.6817 40.8885 40.2534C41.3285 39.8684 41.8435 39.4167 42.4085 38.9234C41.2085 38.1384 40.1035 37.415 38.9068 36.6317ZM57.8852 15.85C56.5218 14.96 55.2068 14.1017 53.8568 13.22C53.5852 13.6367 53.3418 14.0117 53.0668 14.4317C54.4235 15.3167 55.7368 16.175 57.0835 17.0534C57.3535 16.6484 57.5935 16.2884 57.8852 15.85ZM37.7468 40.45C37.5702 41.01 37.3868 41.4134 37.3335 41.835C37.3052 42.05 37.4502 42.375 37.6235 42.5017C37.7702 42.6084 38.1252 42.585 38.2952 42.4767C38.6635 42.24 38.9735 41.9117 39.4018 41.5367C38.8235 41.1567 38.3352 40.8367 37.7468 40.45Z" fill="white"/>
<path d="M21.4752 23.2067C20.7268 23.225 20.2935 22.8967 20.2318 22.365C20.1718 21.8484 20.5418 21.4067 21.1585 21.3234C24.8435 20.8234 28.5285 20.3317 32.2135 19.8417C35.4468 19.4134 38.6802 18.9867 41.9135 18.5684C42.6868 18.4684 43.1435 18.755 43.2302 19.355C43.3152 19.94 42.9135 20.37 42.1685 20.4684C35.5168 21.3467 28.8652 22.2217 22.2135 23.0984C21.9252 23.1367 21.6385 23.1834 21.4735 23.2067H21.4752Z" fill="white"/>
<path d="M40.9968 9.9567C41.6285 9.93337 42.0435 10.2484 42.1035 10.7967C42.1635 11.3534 41.7985 11.775 41.1385 11.8634C37.7252 12.32 34.3102 12.77 30.8952 13.2217C29.4152 13.4184 27.9335 13.6134 26.4518 13.8084C26.2868 13.83 26.1218 13.85 25.9568 13.8534C25.3418 13.865 24.9152 13.5184 24.8702 12.9784C24.8285 12.475 25.1718 12.05 25.7552 11.9667C27.4802 11.72 29.2085 11.4917 30.9352 11.2617C34.1235 10.8384 37.3118 10.4217 40.5002 10.0034C40.6652 9.9817 40.8302 9.97337 40.9968 9.95837V9.9567Z" fill="white"/>
<path d="M24.8435 49.0317C24.1218 49.0517 23.7018 48.7384 23.6385 48.2017C23.5768 47.6717 23.9335 47.235 24.5452 47.1517C26.9468 46.8234 29.3485 46.5017 31.7518 46.1917C32.3552 46.1134 32.8485 46.5134 32.8985 47.0684C32.9468 47.605 32.5585 48.0417 31.9052 48.1284C30.2002 48.355 28.4935 48.5634 26.7885 48.78C26.1102 48.8667 25.4335 48.955 24.8418 49.0317H24.8435Z" fill="white"/>
<path d="M22.5735 31.8234C21.7702 31.8367 21.3702 31.535 21.3168 30.9884C21.2602 30.4067 21.5918 30.02 22.2718 29.9267C23.5668 29.7467 24.8618 29.575 26.1585 29.4184C26.8652 29.3317 27.3202 29.65 27.3918 30.2367C27.4618 30.8034 27.0752 31.2267 26.3718 31.3217C25.0568 31.5017 23.7402 31.67 22.5718 31.8234H22.5735Z" fill="white"/>
</svg>
