<svg width="64" height="64" viewBox="0 0 64 64" fill="none" xmlns="http://www.w3.org/2000/svg">
<g clip-path="url(#clip0_741_5018)">
<g clip-path="url(#clip1_741_5018)">
<path d="M24.4518 57.4617C24.7118 55.9367 24.8768 54.3117 25.2885 52.7517C25.6868 51.2417 25.4435 50.1567 24.1602 49.16C22.9535 48.2217 21.9368 47.04 20.8302 45.97C20.4802 45.6317 20.2385 45.2683 20.4218 44.7567C20.5985 44.2617 20.9852 44.095 21.4785 44.0267C23.5152 43.745 25.5518 43.455 27.5802 43.1233C27.8468 43.08 28.1735 42.825 28.2985 42.58C29.2102 40.8083 30.0802 39.015 30.9568 37.2233C31.1935 36.74 31.4402 36.29 32.0768 36.2983C32.7118 36.3067 32.9468 36.77 33.1802 37.2483C34.0485 39.0183 34.9402 40.78 35.7868 42.56C35.9752 42.9583 36.2318 43.0983 36.6352 43.155C38.6518 43.435 40.6635 43.74 42.6802 44.0233C43.1752 44.0933 43.6452 44.2783 43.6835 44.785C43.7118 45.16 43.5568 45.6633 43.2985 45.9283C41.8768 47.3867 40.4068 48.7983 38.9318 50.2033C38.6085 50.5117 38.5152 50.7983 38.5968 51.24C38.9668 53.2417 39.2985 55.25 39.6452 57.255C39.7252 57.715 39.6668 58.135 39.2685 58.4317C38.8468 58.7467 38.4235 58.6633 37.9852 58.4317C36.1885 57.4767 34.3785 56.545 32.5885 55.5783C32.2168 55.3767 31.9318 55.3683 31.5568 55.5717C29.7302 56.5583 27.8918 57.525 26.0468 58.4767C25.2168 58.905 24.4268 58.4217 24.4535 57.46L24.4518 57.4617ZM26.8368 55.73C28.3635 54.9333 29.7735 54.2367 31.1418 53.4633C31.8035 53.0883 32.3552 53.1033 33.0002 53.475C33.9702 54.0333 34.9818 54.52 35.9735 55.04C36.3702 55.2483 36.7635 55.4617 37.2802 55.7367C36.9968 54.085 36.7652 52.57 36.4685 51.07C36.3135 50.285 36.4602 49.7067 37.0668 49.1267C38.1868 48.0533 39.2085 46.88 40.2418 45.78C40.1702 45.765 39.9568 45.71 39.7418 45.6783C38.3052 45.4667 36.8685 45.245 35.4285 45.0567C34.8968 44.9883 34.5568 44.7333 34.3302 44.2633C33.7885 43.1417 33.2352 42.0267 32.6852 40.9117C32.4968 40.53 32.3035 40.1533 32.0685 39.6883C31.9085 39.99 31.7985 40.1833 31.7002 40.3817C31.0668 41.665 30.4302 42.9467 29.8085 44.2367C29.5718 44.7283 29.2235 45 28.6652 45.0617C27.7985 45.1567 26.9385 45.3017 26.0768 45.43C25.2968 45.5467 24.5168 45.6733 23.8968 45.77C24.9318 46.88 25.9435 48.04 27.0418 49.1117C27.6318 49.6867 27.8185 50.255 27.6568 51.0517C27.3535 52.5517 27.1268 54.0683 26.8418 55.7317L26.8368 55.73Z" fill="white"/>
<path d="M17.0917 40.3734C17.3767 37.9034 17.6484 35.655 17.8934 33.405C18.07 31.7733 18.15 30.13 18.3767 28.5067C19.0134 23.9417 21.8634 21.1433 26.4634 20.5483C30.17 20.0683 33.885 20.0467 37.59 20.5617C41.55 21.1117 44.3734 23.665 45.255 27.6234C45.6017 29.175 45.67 30.7884 45.8684 32.3734C46.1834 34.8867 46.5 37.4017 46.815 39.915C46.9134 40.7034 46.5684 41.24 45.9334 41.3C45.3234 41.3584 44.875 40.9284 44.785 40.1767C44.33 36.3834 43.9 32.5867 43.4234 28.795C42.9717 25.2117 40.6267 22.9933 37.04 22.5567C33.4884 22.125 29.95 22.1883 26.4084 22.6067C23.5134 22.9483 21.275 24.9667 20.6084 28.0034C20.2984 29.415 20.2517 30.8833 20.085 32.325C19.78 34.9667 19.485 37.6083 19.1667 40.2467C19.075 41.015 18.62 41.3917 17.98 41.3117C17.42 41.2417 17.0717 40.7817 17.09 40.375L17.0917 40.3734Z" fill="white"/>
<path d="M5.98654 57.4583C6.20487 56.17 6.40154 54.7916 6.68821 53.4333C6.82987 52.7583 6.73821 52.2883 6.19321 51.81C5.21154 50.9483 4.30821 49.995 3.36821 49.085C3.01487 48.745 2.79487 48.3733 2.97821 47.8666C3.15821 47.37 3.55321 47.2133 4.04321 47.1483C5.48321 46.955 6.92154 46.7516 8.35321 46.5083C8.58654 46.4683 8.86821 46.2483 8.97988 46.035C9.65154 44.7483 10.2882 43.4416 10.9199 42.135C11.1349 41.69 11.4215 41.3633 11.9465 41.3616C12.4732 41.36 12.7632 41.6883 12.9765 42.13C13.6015 43.4183 14.2499 44.695 14.8649 45.9866C15.0365 46.3483 15.2615 46.4966 15.6632 46.545C17.1049 46.7233 18.5465 46.9166 19.9732 47.185C20.3232 47.25 20.7215 47.5583 20.9049 47.8683C21.1432 48.2683 20.9349 48.7033 20.5882 49.0383C19.5415 50.0483 18.5149 51.08 17.4549 52.075C17.1415 52.37 17.0832 52.6416 17.1632 53.0566C17.4332 54.4616 17.6449 55.88 17.8982 57.2883C17.9849 57.7666 17.9149 58.2333 17.4849 58.4233C17.1532 58.57 16.6499 58.6 16.3315 58.45C15.0382 57.84 13.7749 57.16 12.5249 56.4633C12.1065 56.23 11.7965 56.245 11.3849 56.475C10.1332 57.17 8.85987 57.8266 7.58487 58.475C6.75154 58.8983 5.96321 58.425 5.98487 57.455L5.98654 57.4583ZM8.37321 55.735C9.41321 55.1916 10.3249 54.7466 11.2032 54.2466C11.7332 53.945 12.1965 53.9583 12.7215 54.2516C13.6032 54.7466 14.5099 55.195 15.5282 55.7266C15.3432 54.645 15.1982 53.685 15.0082 52.735C14.8749 52.065 15.0082 51.5483 15.5349 51.0633C16.2599 50.3933 16.9049 49.6366 17.5932 48.9083C17.0549 48.8283 16.4849 48.745 15.9165 48.6566C13.4165 48.2633 13.9282 48.6766 12.8299 46.485C12.5515 45.9283 12.2665 45.3733 11.9432 44.7333C11.4899 45.6533 11.0432 46.4316 10.7149 47.2566C10.3699 48.1283 9.77487 48.4816 8.87154 48.545C8.00321 48.6066 7.14154 48.7866 6.29321 48.9116C7.05487 49.7066 7.75987 50.465 8.49321 51.1966C8.87987 51.5833 9.03321 51.9866 8.92154 52.54C8.71821 53.5516 8.56987 54.575 8.37488 55.735H8.37321Z" fill="white"/>
<path d="M58.1436 57.4967C58.1319 58.44 57.3619 58.8883 56.5519 58.4767C55.2586 57.8183 53.9719 57.1417 52.7002 56.4417C52.3302 56.2383 52.0452 56.2334 51.6702 56.44C50.4352 57.12 49.1736 57.7534 47.9286 58.4167C47.4969 58.6467 47.0736 58.7683 46.6436 58.4617C46.1952 58.1433 46.1552 57.7034 46.2519 57.1867C46.5152 55.78 46.7602 54.3683 46.9636 52.9517C47.0002 52.6983 46.8886 52.335 46.7119 52.1517C45.7136 51.125 44.6802 50.1283 43.6436 49.14C43.2686 48.7833 43.0236 48.395 43.1969 47.875C43.3702 47.3517 43.8069 47.21 44.3186 47.1433C45.7386 46.9583 47.1552 46.7534 48.5669 46.5117C48.8019 46.4717 49.0902 46.2583 49.2019 46.0467C49.8736 44.76 50.5086 43.4534 51.1419 42.1467C51.3552 41.705 51.6369 41.37 52.1636 41.365C52.6886 41.3617 52.9819 41.6783 53.1986 42.125C53.8319 43.4317 54.4652 44.7384 55.1419 46.0234C55.2602 46.2484 55.5686 46.4717 55.8202 46.5133C57.2719 46.76 58.7336 46.9533 60.1919 47.1617C60.6602 47.2283 61.1002 47.43 61.1336 47.915C61.1586 48.2783 61.0352 48.76 60.7936 49.015C59.7819 50.085 58.6869 51.0783 57.6552 52.1333C57.4769 52.315 57.3552 52.6717 57.3902 52.9217C57.5852 54.2984 57.8369 55.665 58.0686 57.0367C58.1002 57.22 58.1269 57.405 58.1419 57.5L58.1436 57.4967ZM55.7552 55.7233C55.5736 54.6367 55.4602 53.6667 55.2352 52.725C55.0602 51.9934 55.2919 51.505 55.8086 51.0183C56.5119 50.3567 57.1569 49.6334 57.8519 48.9084C56.8119 48.755 55.7919 48.585 54.7652 48.46C54.1852 48.39 53.8302 48.1067 53.5886 47.5867C53.1552 46.6567 52.6819 45.745 52.1736 44.72C51.7019 45.6717 51.2402 46.505 50.8736 47.3783C50.5602 48.1267 50.0402 48.445 49.2619 48.52C48.3386 48.6083 47.4219 48.77 46.5302 48.8967C47.2086 49.6167 47.8386 50.36 48.5502 51.015C49.1086 51.53 49.2569 52.0767 49.1036 52.7967C48.9052 53.7217 48.7786 54.6633 48.5986 55.7217C49.5236 55.2383 50.3519 54.8567 51.1269 54.3867C51.8452 53.9517 52.4836 53.9267 53.2119 54.375C53.9836 54.8517 54.8169 55.23 55.7536 55.7183L55.7552 55.7233Z" fill="white"/>
<path d="M31.9884 5.23334C35.4001 5.25 38.0984 7.27167 38.8534 10.3817C39.7134 13.9183 37.3618 18.3883 33.9584 19.6617C32.3751 20.255 30.8184 20.1517 29.3118 19.395C26.5601 18.01 24.5901 14.4567 24.8584 11.3883C25.1751 7.76167 28.1234 5.21667 31.9884 5.235V5.23334ZM36.9834 11.9383C36.9451 11.615 36.9368 11.2383 36.8534 10.8767C36.3351 8.61167 34.2168 7.14167 31.6984 7.28667C29.1968 7.43167 27.3718 8.88 26.9734 11.0367C26.5334 13.4317 28.0834 16.5033 30.2768 17.5733C31.4701 18.1567 32.6568 18.115 33.7851 17.4367C35.8284 16.2067 36.8384 14.35 36.9834 11.9383Z" fill="white"/>
<path d="M25.5819 30.1717C25.3435 33.615 25.1269 36.7667 24.9069 39.9184C24.8935 40.105 24.8752 40.2917 24.8369 40.475C24.7252 41.015 24.2952 41.34 23.7602 41.3034C23.2369 41.2667 22.8619 40.8717 22.8285 40.3167C22.8202 40.1934 22.8269 40.0667 22.8352 39.9434C23.0602 36.73 23.2785 33.515 23.5152 30.3034C23.5852 29.365 24.0002 28.91 24.6469 28.9684C25.3085 29.0284 25.6102 29.52 25.5819 30.1734V30.1717Z" fill="white"/>
<path d="M38.2948 30.645C38.2848 30.4383 38.2631 30.23 38.2665 30.0233C38.2798 29.4116 38.6948 28.97 39.2548 28.9583C39.7798 28.9466 40.2381 29.35 40.2915 29.92C40.3848 30.9333 40.4515 31.9483 40.5248 32.9616C40.6898 35.28 40.8515 37.6 41.0131 39.9183C41.0231 40.0633 41.0415 40.2116 41.0215 40.3533C40.9481 40.8833 40.6681 41.235 40.1148 41.3017C39.5781 41.3666 39.1115 41.065 39.0198 40.515C38.9131 39.8833 38.8881 39.2367 38.8431 38.595C38.6565 35.945 38.4765 33.2933 38.2948 30.6433V30.645Z" fill="white"/>
</g>
</g>
<defs>
<clipPath id="clip0_741_5018">
<rect width="64" height="64" fill="white"/>
</clipPath>
<clipPath id="clip1_741_5018">
<rect width="64" height="64" fill="white"/>
</clipPath>
</defs>
</svg>
