<svg width="64" height="64" viewBox="0 0 64 64" fill="none" xmlns="http://www.w3.org/2000/svg">
<g clip-path="url(#clip0_741_5016)">
<g clip-path="url(#clip1_741_5016)">
<path d="M57.0133 0C57.2633 0.0916667 57.515 0.178333 57.7617 0.276667C59.595 1.015 60.565 3.04 59.9967 4.93667C59.4317 6.81833 57.495 7.975 55.55 7.56667C55.235 7.5 55.0283 7.46333 54.8183 7.78167C52.2633 11.6467 49.695 15.5033 47.1317 19.3617C47.11 19.395 47.1 19.4383 47.0867 19.4767C48.315 21.4483 48.3283 23.04 47.13 24.5233C46.155 25.7283 44.4567 26.2 42.9517 25.6833C41.2033 25.0833 40.4233 23.7267 40.405 21.215C38.6983 20.3567 36.9767 19.4833 35.245 18.6367C35.1167 18.5733 34.845 18.64 34.725 18.7433C33.4367 19.865 32.0217 20.11 30.4367 19.4617C30.275 19.3967 29.9733 19.4233 29.86 19.5333C27.6317 21.7133 25.42 23.91 23.2 26.1117C23.7217 27.1133 23.8967 28.095 23.6117 29.125C22.8533 31.87 19.5933 32.8833 17.44 31.0233C17.095 30.725 16.8683 30.7033 16.4817 30.905C15.0833 31.6367 13.6733 32.345 12.25 33.025C11.7717 33.2533 11.5533 33.4783 11.585 34.0783C11.6917 36.0867 10.2483 37.75 8.26999 38.0233C6.36832 38.285 4.54166 37.0117 4.06999 35.0917C3.67999 33.5067 4.35832 31.8483 5.74832 30.99C7.17166 30.1117 8.97332 30.225 10.23 31.275C10.3883 31.4067 10.5367 31.55 10.7167 31.7117C12.445 30.8467 14.1717 29.9867 15.8867 29.1083C16.0083 29.0467 16.1233 28.8317 16.1217 28.6917C16.055 25.2233 18.58 23.515 21.91 24.8167C23.6217 23.1083 25.3417 21.39 27.0617 19.6733C27.2233 19.5117 27.3717 19.3317 27.5483 19.19C28.3617 18.545 28.775 17.93 28.375 16.72C27.8583 15.16 28.5733 13.765 29.9283 12.8333C31.2467 11.9267 32.6767 11.895 34.04 12.73C35.445 13.5917 36.0433 14.8967 35.84 16.5483C35.8317 16.61 35.8317 16.6717 35.8233 16.8033C36.2367 17.0167 36.6717 17.2433 37.11 17.465C38.3717 18.0983 39.63 18.74 40.9033 19.3467C41.0733 19.4283 41.4017 19.4167 41.5317 19.305C42.675 18.3033 43.96 18.0017 45.4883 18.445C48.1467 14.4533 50.8133 10.4467 53.495 6.42167C52.8567 5.60667 52.4783 4.71167 52.5217 3.66C52.5817 2.15 53.57 0.781667 55.02 0.243333C55.23 0.165 55.4383 0.0816667 55.6467 0.00166667C56.1033 0.00166667 56.5617 0.00166667 57.0183 0.00166667L57.0133 0ZM34.0233 15.9717C34.0133 14.92 33.115 14.0317 32.06 14.0333C31.0067 14.0333 30.1067 14.9233 30.0983 15.9733C30.09 17.0383 31.03 17.97 32.0933 17.9483C33.1417 17.9283 34.0333 17.0133 34.0233 15.9717ZM19.9033 26.195C18.8417 26.205 17.965 27.0883 17.9667 28.1467C17.9683 29.2333 18.87 30.1067 19.9717 30.0867C21.045 30.0667 21.8817 29.1933 21.8667 28.11C21.85 27.0367 20.9783 26.1867 19.9033 26.195ZM5.84332 34.195C5.83166 35.2717 6.67666 36.1567 7.73999 36.1783C8.82832 36.2017 9.73499 35.3133 9.73499 34.225C9.73499 33.1517 8.87666 32.29 7.79999 32.2833C6.71332 32.2767 5.85332 33.1167 5.84166 34.195H5.84332ZM58.28 3.84333C58.2867 2.77 57.4317 1.88833 56.3683 1.87333C55.2817 1.85667 54.3817 2.75167 54.3883 3.84167C54.3933 4.91333 55.26 5.77333 56.335 5.77333C57.4167 5.77333 58.2733 4.92333 58.28 3.845V3.84333ZM42.2567 22.0433C42.2467 23.1167 43.0967 23.9967 44.165 24.0183C45.245 24.04 46.1633 23.135 46.1567 22.0533C46.15 21 45.2583 20.1067 44.2067 20.1033C43.1533 20.0983 42.2667 20.98 42.2567 22.0433Z" fill="white"/>
<path d="M59.3065 15.4133H53.4065V61.9733H59.3065C59.3065 61.7033 59.3065 61.4433 59.3065 61.1833C59.3065 54.8217 59.3065 48.46 59.3065 42.0967C59.3065 40.955 59.5715 40.52 60.2599 40.5267C60.9432 40.5333 61.1782 40.94 61.1782 42.12C61.1782 48.4817 61.1782 54.8433 61.1782 61.2067V62.005C61.5932 62.005 61.9415 61.9917 62.2882 62.0083C62.8815 62.035 63.2565 62.3967 63.2632 62.925C63.2699 63.455 62.8982 63.83 62.3182 63.8717C62.1532 63.8833 61.9849 63.875 61.8199 63.875C41.9849 63.875 22.1515 63.875 2.31652 63.875C2.10819 63.875 1.89652 63.895 1.69319 63.8617C1.17819 63.7767 0.864857 63.4733 0.86819 62.9333C0.871524 62.395 1.18652 62.0783 1.70486 62.0217C2.08986 61.9783 2.48486 62.0133 2.94819 62.0133C2.94819 61.7067 2.94819 61.4617 2.94819 61.2167C2.94819 56.185 2.93486 51.1533 2.96819 46.1233C2.97152 45.6 3.11986 44.9583 3.44652 44.59C3.75319 44.245 4.38152 44.05 4.87486 44.035C6.80652 43.9733 8.74152 44.0033 10.6749 44.0117C11.9865 44.0167 12.6215 44.6533 12.6232 45.9683C12.6282 51.0417 12.6249 56.115 12.6249 61.1867C12.6249 61.4317 12.6249 61.6783 12.6249 61.9633H15.0865C15.0865 61.7117 15.0865 61.47 15.0865 61.2267C15.0865 54.22 15.0865 47.2133 15.0865 40.2067C15.0865 38.4767 15.6349 37.9217 17.3432 37.9217C19.0065 37.9217 20.6715 37.98 22.3315 37.9067C24.2815 37.82 24.8065 38.7417 24.7965 40.4033C24.7565 47.305 24.7799 54.2083 24.7799 61.1117C24.7799 61.38 24.7799 61.65 24.7799 61.9617H27.2099C27.2099 61.7 27.2099 61.4567 27.2099 61.2117C27.2099 50.13 27.2099 39.0483 27.2099 27.9667C27.2099 26.2967 27.7949 25.705 29.4449 25.7033C31.2332 25.7033 33.0215 25.7033 34.8082 25.7033C36.2865 25.7033 36.9182 26.3433 36.9182 27.8417C36.9182 38.9433 36.9182 50.0467 36.9182 61.1483V61.9717H39.3482V61.1733C39.3482 52.15 39.3465 43.1267 39.3549 34.1033C39.3549 33.695 39.3765 33.2567 39.5199 32.8817C39.8899 31.91 41.7082 31.3833 42.5249 32.03C42.7615 32.2183 42.9415 32.7033 42.8732 32.9867C42.8049 33.265 42.4199 33.52 42.1149 33.6683C41.8982 33.775 41.5882 33.6883 41.2699 33.6883V61.975H47.1232V33.6867C46.8215 33.6867 46.4865 33.7817 46.2649 33.6633C45.9532 33.4967 45.5582 33.1967 45.5132 32.905C45.4682 32.6133 45.7449 32.065 45.9999 31.9767C46.8165 31.695 47.6815 31.6767 48.4249 32.2533C48.9032 32.625 49.0465 33.1533 49.0449 33.7483C49.0349 36.3267 49.0415 38.905 49.0415 41.4833C49.0415 48.0533 49.0415 54.6233 49.0415 61.1933V61.965H51.5032V61.1567C51.5032 46.1033 51.5032 31.0517 51.5032 15.9983C51.5032 15.8117 51.5015 15.6233 51.5032 15.4367C51.5199 14.2067 52.1565 13.525 53.3765 13.51C55.3515 13.4883 57.3265 13.4883 59.3015 13.51C60.4965 13.5233 61.1715 14.1883 61.1732 15.3733C61.1832 22.5467 61.1815 29.7183 61.1765 36.8917C61.1765 37.5817 60.8165 37.9967 60.2665 38.0067C59.6982 38.0167 59.3165 37.5817 59.3132 36.8617C59.3032 34.5533 59.3099 32.2467 59.3099 29.9383C59.3099 25.365 59.3099 20.79 59.3099 16.2167C59.3099 15.97 59.3099 15.7233 59.3099 15.41L59.3065 15.4133ZM35.0315 27.63H29.1132V61.9533H35.0315V27.63ZM17.0015 39.82V61.98H22.8682V39.82H17.0015ZM10.7182 45.9367H4.86652V61.9767H10.7182V45.9367Z" fill="white"/>
</g>
</g>
<defs>
<clipPath id="clip0_741_5016">
<rect width="64" height="64" fill="white"/>
</clipPath>
<clipPath id="clip1_741_5016">
<rect width="64" height="64" fill="white"/>
</clipPath>
</defs>
</svg>
