<svg width="64" height="64" viewBox="0 0 64 64" fill="none" xmlns="http://www.w3.org/2000/svg">
<g clip-path="url(#clip0_741_5028)">
<path d="M0 11.5174C0.22 11.0912 0.388333 10.631 0.668333 10.2467C1.32167 9.35386 2.25 8.87594 3.37833 8.8711C7.05833 8.85334 10.74 8.8598 14.42 8.86464C15.1033 8.86464 15.5067 9.21823 15.5083 9.76881C15.5083 10.3242 15.11 10.6714 14.4267 10.6714C10.87 10.6762 7.315 10.6714 3.75833 10.6746C2.47 10.6746 1.87167 11.2429 1.87167 12.4652C1.87 21.6925 1.87167 30.9215 1.87167 40.1488C1.87167 40.3087 1.87167 40.4685 1.87167 40.7333H2.74C18.2317 40.7333 33.7233 40.7333 49.215 40.7333C49.485 40.7333 49.7583 40.7252 50.025 40.7575C50.4983 40.8172 50.7733 41.0966 50.8083 41.5583C50.845 42.0459 50.6083 42.3818 50.115 42.4932C49.8567 42.5513 49.5783 42.5432 49.31 42.5432C33.8183 42.5448 18.3267 42.5448 2.835 42.5448H1.93C1.90833 42.7063 1.875 42.8403 1.875 42.9743C1.87167 44.3645 1.865 45.7546 1.875 47.1448C1.88167 48.1684 2.46 48.7497 3.51333 48.8143C3.7 48.8256 3.88833 48.8191 4.075 48.8191C22.665 48.8191 41.255 48.8191 59.8467 48.8191C60.095 48.8191 60.3467 48.8191 60.5933 48.7901C61.42 48.6916 61.9883 48.1523 62.0033 47.3563C62.0317 45.7869 62.0117 44.2176 62.0117 42.5771C61.77 42.5658 61.5517 42.5465 61.335 42.5465C59.235 42.5448 57.135 42.5465 55.035 42.5432C54.8083 42.5432 54.5733 42.54 54.3567 42.4819C53.895 42.3608 53.66 42.025 53.6917 41.5793C53.7233 41.1402 53.985 40.8205 54.465 40.7624C54.7733 40.7252 55.0867 40.7333 55.3983 40.7333C57.5783 40.7317 59.7567 40.7333 62.0183 40.7333V40.039C62.0183 30.8924 62.0183 21.7442 62.0183 12.5976C62.0183 11.2074 61.4633 10.6746 60.0167 10.673C55.3583 10.673 50.7 10.673 46.0433 10.673H45.325C45.5033 10.9248 45.6233 11.1008 45.7517 11.272C53.33 21.4503 46.865 35.9138 34.0333 37.4864C24.815 38.6166 16.2783 32.4133 14.8733 23.567C13.4233 14.4285 19.8517 5.96 29.34 4.54402C31.9467 4.1549 34.5267 4.36318 37.0367 5.16402C37.37 5.27058 37.73 5.5612 37.88 5.85829C37.985 6.06818 37.8483 6.55417 37.6483 6.70433C37.4 6.89162 36.9633 6.95297 36.6317 6.90777C35.1367 6.7011 33.655 6.25063 32.16 6.22318C24.1467 6.06818 17.575 11.6885 16.6267 19.3966C15.6867 27.0432 21.3883 34.3573 29.2483 35.5876C37.9717 36.9519 45.9967 31.2185 46.9933 22.7388C47.645 17.191 45.545 12.6412 41.02 9.16172C40.8567 9.03579 40.68 8.92922 40.5233 8.79844C40.0833 8.43355 40.0067 7.91042 40.3217 7.51323C40.63 7.12573 41.1417 7.02886 41.6 7.33886C42.145 7.70698 42.6333 8.15261 43.1817 8.51266C43.4517 8.69027 43.8 8.84849 44.115 8.85011C49.4383 8.8711 54.7617 8.86303 60.085 8.86464C62.4867 8.86464 63.8917 10.2177 63.8917 12.5314C63.8917 24.0159 63.8917 35.5004 63.8917 46.985C63.8917 49.2664 62.4967 50.6323 60.13 50.6339C53.6217 50.642 47.1133 50.6371 40.6033 50.6371C40.3367 50.6371 40.0683 50.6371 39.755 50.6371V57.7122C40.4 57.7122 41.055 57.7122 41.7083 57.7122C42.02 57.7122 42.3383 57.6832 42.6417 57.7316C43.1517 57.8124 43.4683 58.1143 43.4533 58.6406C43.4383 59.1589 43.1333 59.4495 42.6067 59.5157C42.505 59.5287 42.3983 59.5238 42.295 59.5238C35.3283 59.5238 28.3633 59.5238 21.3967 59.5238C21.3767 59.5238 21.355 59.5238 21.335 59.5238C20.5983 59.5109 20.195 59.1847 20.205 58.6067C20.215 58.0384 20.6233 57.7187 21.3667 57.7122C22.1967 57.7058 23.0283 57.7122 23.9067 57.7122V50.6371H23.1017C16.8217 50.6371 10.5417 50.6371 4.26167 50.6371C1.75833 50.6371 0.928333 50.1059 0.005 47.9101C0 35.7765 0 23.6462 0 11.5174ZM25.8567 57.6703H37.7767V50.6662H25.8567V57.6703Z" fill="white"/>
<path d="M25.3651 14.7595C25.6751 14.7595 25.9217 14.7595 26.1701 14.7595C30.4317 14.7595 34.6917 14.7595 38.9534 14.7595C40.2051 14.7595 40.6034 15.2406 40.3701 16.4225C39.8517 19.03 39.3451 21.6392 38.8284 24.2451C38.6651 25.0734 38.4067 25.2736 37.5117 25.2752C34.3934 25.2769 31.2767 25.2752 28.1584 25.2752C27.9351 25.2752 27.7101 25.2752 27.4151 25.2752C27.5451 25.9534 27.6601 26.5572 27.7884 27.2273C28.0384 27.2273 28.2601 27.2273 28.4817 27.2273C31.3917 27.2273 34.3017 27.224 37.2117 27.2321C37.4734 27.2321 37.8284 27.2257 37.9767 27.3742C38.2067 27.6067 38.4617 28.0071 38.4001 28.2671C38.3301 28.5609 37.9551 28.837 37.6451 29.0065C37.4417 29.118 37.1201 29.0275 36.7717 29.0275C37.2934 29.9931 37.3051 30.8552 36.3984 31.5334C35.8151 31.9693 34.9601 31.9419 34.3601 31.5156C33.6401 31.0054 33.5284 30.3305 33.9584 29.0566H30.4501C30.5217 29.5168 30.7284 30.0076 30.6267 30.429C30.5251 30.8552 30.1917 31.2976 29.8317 31.5818C29.2684 32.029 28.3784 31.9096 27.8134 31.443C27.1501 30.894 27.0651 30.2046 27.5201 29.0824C26.2601 28.9452 26.1951 28.8709 25.9584 27.6471C25.1151 23.278 24.2567 18.9122 23.4251 14.5399C23.3201 13.9861 23.1101 13.7051 22.4934 13.7939C22.2517 13.8278 21.9317 13.8666 21.7634 13.7487C21.4734 13.5453 21.1051 13.2321 21.0834 12.9447C21.0634 12.6573 21.3867 12.1293 21.6351 12.0825C22.5467 11.9081 23.5467 11.7854 24.3017 12.4603C24.7017 12.8171 24.9251 13.3758 25.1751 13.8698C25.2984 14.1136 25.2967 14.4156 25.3651 14.7578V14.7595ZM28.9684 19.0882C28.9034 18.2308 28.8417 17.4381 28.7801 16.6211H25.7167C25.8867 17.4768 26.0467 18.2793 26.2084 19.0882H28.9684ZM37.9351 19.0752C38.0951 18.2663 38.2567 17.4526 38.4217 16.613H35.4401C35.3817 17.4461 35.3267 18.2405 35.2684 19.0752H37.9351ZM33.3784 19.0752C33.4384 18.2227 33.4967 17.4203 33.5534 16.6178H30.6651C30.7301 17.4574 30.7901 18.2502 30.8534 19.0752H33.3784ZM26.5701 20.9578C26.7167 21.7248 26.8434 22.4546 27.0051 23.1779C27.0301 23.2893 27.2117 23.4459 27.3267 23.4508C27.9634 23.4766 28.6034 23.4637 29.3001 23.4637C29.2301 22.5821 29.1667 21.7748 29.1017 20.9595H26.5684L26.5701 20.9578ZM34.9234 23.4637C35.6117 23.4637 36.2067 23.4782 36.8017 23.4508C36.9201 23.4459 37.1067 23.299 37.1301 23.1892C37.2934 22.4578 37.4217 21.7199 37.5651 20.9627H35.1167C35.0534 21.7877 34.9917 22.5805 34.9234 23.4637ZM30.9934 20.9611C31.0601 21.8087 31.1234 22.6176 31.1884 23.433H33.0451C33.1051 22.5983 33.1651 21.791 33.2251 20.9611H30.9951H30.9934Z" fill="white"/>
<path d="M56.4452 19.1027C56.4452 19.8422 56.4535 20.5025 56.4435 21.1629C56.4318 21.8588 56.0585 22.2818 55.4918 22.264C54.9452 22.2479 54.5935 21.841 54.5802 21.1742C54.5668 20.5122 54.5768 19.8519 54.5768 19.1027C53.8485 19.1027 53.1652 19.1447 52.4935 19.0849C52.1518 19.0542 51.7402 18.9186 51.5218 18.6877C51.3518 18.5069 51.3118 18.0387 51.4368 17.8191C51.5768 17.5737 51.9585 17.3444 52.2568 17.317C52.9935 17.2459 53.7418 17.2944 54.5785 17.2944C54.5785 16.5323 54.5735 15.8348 54.5802 15.1373C54.5852 14.6497 54.7735 14.2702 55.3052 14.1411C55.8952 13.9974 56.4085 14.3784 56.4335 15.0194C56.4635 15.7411 56.4402 16.4645 56.4402 17.2895C57.1718 17.2895 57.8468 17.2863 58.5235 17.2895C59.3035 17.2944 59.7435 17.6286 59.7302 18.2001C59.7168 18.7459 59.2802 19.0865 58.5502 19.0995C57.8868 19.1091 57.2235 19.1011 56.4468 19.1011L56.4452 19.1027Z" fill="white"/>
<path d="M11.2301 36.5385C12.8918 36.5385 14.5551 36.5353 16.2168 36.5385C16.9468 36.5401 17.3601 36.884 17.3485 37.4556C17.3368 38.003 16.9335 38.3452 16.2451 38.3469C12.9201 38.3533 9.59679 38.3517 6.27179 38.3469C5.59679 38.3469 5.17179 37.9884 5.16179 37.4524C5.15179 36.8937 5.58179 36.5401 6.30513 36.5385C7.94679 36.5337 9.58846 36.5385 11.2301 36.5385Z" fill="white"/>
<path d="M8.88646 34.254C8.01313 34.254 7.1398 34.2605 6.26646 34.2524C5.5848 34.2459 5.16813 33.8988 5.16313 33.3579C5.15813 32.8186 5.58146 32.4473 6.25146 32.4441C7.99813 32.436 9.7448 32.4344 11.4915 32.4441C12.1531 32.4473 12.5815 32.8348 12.5648 33.3724C12.5498 33.8923 12.1448 34.2411 11.5065 34.2492C10.6331 34.2605 9.7598 34.2524 8.88646 34.2524V34.254Z" fill="white"/>
</g>
<defs>
<clipPath id="clip0_741_5028">
<rect width="64" height="62" fill="white" transform="translate(0 1)"/>
</clipPath>
</defs>
</svg>
