<svg width="64" height="64" viewBox="0 0 64 64" fill="none" xmlns="http://www.w3.org/2000/svg">
<g clip-path="url(#clip0_741_5027)">
<path d="M64 22.2059C63.5448 23.9772 62.3229 24.9388 60.6762 25.5984C57.7294 26.7803 54.8336 28.09 51.906 29.3199C51.4875 29.4956 51.3677 29.7176 51.3725 30.1504C51.3949 32.1677 51.3326 34.185 51.3933 36.2006C51.4843 39.2561 50.1091 41.5497 47.7964 43.3657C45.0188 45.5459 41.7909 46.7198 38.3601 47.3428C32.1789 48.4624 26.1095 48.127 20.2574 45.6705C18.0708 44.7521 16.1014 43.4967 14.5633 41.6423C13.3638 40.1953 12.7457 38.5406 12.7425 36.6606C12.7393 34.4773 12.7281 32.2939 12.7537 30.1105C12.7585 29.6841 12.6195 29.4876 12.2362 29.3311C10.8147 28.7481 9.40754 28.1316 7.99401 27.531C7.86623 27.4767 7.73047 27.4432 7.51645 27.3729C7.51645 27.6428 7.51645 27.8425 7.51645 28.0421C7.51645 32.1805 7.51964 36.3172 7.51165 40.4556C7.51165 40.8565 7.56117 41.12 7.99401 41.3309C9.32768 41.9841 10.27 43.9391 8.83095 45.9372C10.0129 47.1223 9.7733 48.7211 9.95059 50.2002C10.1646 51.9938 10.2876 53.8003 10.4537 55.6003C10.6086 57.2774 9.82441 58.1399 8.12338 58.1415C7.00055 58.1431 5.87771 58.151 4.75488 58.1383C3.3701 58.1223 2.54914 57.1624 2.68011 55.7744C2.91969 53.2508 3.10497 50.7208 3.39246 48.2021C3.46913 47.5296 3.85246 46.8971 4.06489 46.2359C4.12718 46.041 4.1719 45.7631 4.08086 45.6066C3.11615 43.9391 3.58892 42.195 5.26439 41.2382C5.4305 41.1424 5.5982 40.8757 5.5982 40.6872C5.61737 36.092 5.61737 31.4969 5.59501 26.9017C5.59501 26.7085 5.38098 26.4289 5.19411 26.3411C4.38912 25.9562 3.55698 25.6319 2.73761 25.2758C1.09568 24.5634 0.145346 23.332 0.13736 21.5223C0.129374 19.7127 1.05895 18.4573 2.70567 17.7497C11.2699 14.073 19.8341 10.3994 28.4063 6.7402C30.8612 5.69244 33.3369 5.71799 35.7918 6.76895C44.3017 10.4122 52.8052 14.0714 61.3215 17.7018C62.7574 18.3136 63.6007 19.3645 63.9984 20.8323V22.2043L64 22.2059ZM9.68226 26.0185V26.1526C9.86913 26.2389 10.0528 26.3315 10.2413 26.413C16.4225 29.0611 22.61 31.6901 28.78 34.3639C30.9922 35.3222 33.1388 35.3254 35.3493 34.3639C40.4492 32.1469 45.5715 29.9763 50.6825 27.7866C53.9632 26.381 57.2438 24.9723 60.5245 23.5684C61.2416 23.2617 61.8278 22.8288 62.0083 22.0159C62.2686 20.8483 61.7687 19.9906 60.4941 19.4428C52.0657 15.8251 43.6308 12.2218 35.2072 8.59137C33.0526 7.66339 30.957 7.70811 28.8136 8.63289C20.4857 12.2218 12.1451 15.782 3.81093 19.3565C3.52503 19.4795 3.23913 19.6121 2.98038 19.7798C1.72977 20.5896 1.70422 22.4855 2.99636 23.2218C3.98183 23.784 5.06474 24.1769 6.1141 24.6257C6.24667 24.6832 6.43674 24.6289 6.59486 24.6017C13.1817 23.4645 19.7686 22.3225 26.3571 21.1869C26.8011 21.1103 27.1429 21.008 27.3426 20.5065C27.4847 20.1487 27.8361 19.8373 28.1619 19.5929C30.1057 18.1395 34.0732 18.1682 36.0122 19.6265C37.4337 20.695 37.4385 22.3305 36.0122 23.3831C34.8574 24.236 33.5158 24.4852 32.1246 24.4788C30.6296 24.4724 29.165 24.2599 27.9687 23.2585C27.6364 22.9806 27.3537 22.9263 26.9592 22.9966C22.5014 23.7808 18.042 24.5538 13.5842 25.3317C12.2825 25.5585 10.9824 25.7901 9.68066 26.0201L9.68226 26.0185ZM14.8396 38.1157C14.9802 38.8856 15.3811 39.6011 15.8954 40.2496C17.6283 42.4361 20.0082 43.642 22.5669 44.5285C26.4305 45.8653 30.4188 46.2375 34.4853 45.9372C37.9368 45.6817 41.259 44.9438 44.348 43.3306C46.1385 42.3962 47.75 41.235 48.7691 39.427C49.0086 39.0037 49.1492 38.5246 49.3361 38.0726L49.1875 37.9927C47.972 39.3072 46.5218 40.2975 44.939 41.1009C44.2825 41.4347 43.7395 41.3277 43.4727 40.8198C43.2092 40.3166 43.4216 39.7848 44.0254 39.427C44.7026 39.0245 45.3974 38.646 46.0522 38.2083C48.8202 36.3572 49.9494 33.7873 49.3472 30.4571C49.1236 30.5449 48.8745 30.6344 48.6317 30.7398C44.3767 32.5606 40.1202 34.3766 35.8716 36.207C33.3273 37.3027 30.7989 37.3011 28.2577 36.207C24.1977 34.4597 20.1328 32.7235 16.0695 30.9842C15.635 30.7989 15.199 30.6184 14.6176 30.3756C14.6879 31.6518 14.6112 32.8353 14.8444 33.9534C15.3028 36.1416 16.9032 37.5088 18.7017 38.6252C22.3114 40.8661 26.3315 41.7318 30.5114 41.8995C32.2907 41.9698 34.0796 41.8116 35.8636 41.7366C36.7213 41.7014 37.274 42.2541 37.0344 42.9696C36.8635 43.4807 36.4322 43.6069 35.9515 43.6564C33.0446 43.9535 30.1425 43.9535 27.2467 43.5286C24.0172 43.0543 20.901 42.195 18.0931 40.4796C16.9527 39.7816 15.9193 38.9079 14.8428 38.1173L14.8396 38.1157ZM8.58657 56.2472C8.33102 53.4505 8.09783 50.748 7.82471 48.0487C7.76561 47.4657 7.37749 47.084 6.77375 46.969C5.97834 46.8189 5.36341 47.3827 5.26599 48.3809C5.13342 49.7226 5.01682 51.0642 4.89863 52.4075C4.78842 53.6613 4.6862 54.9151 4.57759 56.1977C4.77085 56.22 4.89064 56.244 5.00883 56.2456C6.16681 56.2488 7.32478 56.2472 8.58657 56.2472ZM28.9637 21.5143C29.9029 22.971 34.3607 22.9071 35.1625 21.5016C34.2744 20.0625 29.7719 20.0976 28.9637 21.5143ZM6.5741 45.0156C7.14749 45.0156 7.62985 44.5221 7.62825 43.9359C7.62825 43.337 7.16666 42.8754 6.5693 42.877C5.98632 42.877 5.49758 43.3641 5.49918 43.9391C5.50077 44.5029 6.01188 45.0156 6.5741 45.014V45.0156Z" fill="white"/>
<path d="M39.4126 43.0718C38.7626 43.0574 38.4048 42.8482 38.2994 42.3515C38.1987 41.8739 38.3473 41.4475 38.8296 41.2893C39.5931 41.0386 40.3725 40.8278 41.16 40.6664C41.6535 40.5658 42.0113 40.8613 42.1407 41.3309C42.27 41.8004 42.1103 42.2397 41.6391 42.4074C40.8629 42.6837 40.0595 42.8834 39.4142 43.0718L39.4126 43.0718Z" fill="white"/>
</g>
<defs>
<clipPath id="clip0_741_5027">
<rect width="64" height="64" fill="white"/>
</clipPath>
</defs>
</svg>
