<svg width="64" height="64" viewBox="0 0 64 64" fill="none" xmlns="http://www.w3.org/2000/svg">
<g clip-path="url(#clip0_741_5020)">
<path d="M32.3119 -1.18001e-05C33.0535 0.359988 33.3035 0.968322 33.2869 1.76999C33.2569 3.28332 33.2935 4.79665 33.2669 6.30832C33.2602 6.66832 33.1902 7.06332 33.0235 7.37499C32.7685 7.84999 32.2902 8.04499 31.7519 7.96165C31.2219 7.87999 30.7169 7.57832 30.7035 7.04499C30.6485 4.99999 30.6485 2.95166 30.7269 0.908322C30.7385 0.594988 31.2719 0.301655 31.5635 -0.00167847C31.8135 -0.00167847 32.0619 -0.00167847 32.3119 -0.00167847V-1.18001e-05Z" fill="white"/>
<path d="M0.000201823 31.5633C0.360202 30.8217 0.966869 30.5733 1.7702 30.5883C3.3452 30.6183 4.9202 30.5833 6.4952 30.6033C7.53687 30.6167 8.25187 31.4467 7.89687 32.2933C7.74354 32.6617 7.30854 33.1567 6.98354 33.17C4.9802 33.2483 2.97187 33.2467 0.968535 33.1633C0.633535 33.15 0.320202 32.61 -0.00146484 32.3133C-0.00146484 32.0633 -0.00146484 31.815 -0.00146484 31.565L0.000201823 31.5633Z" fill="white"/>
<path d="M34.8452 26.605C35.1369 26.605 35.3602 26.605 35.5835 26.605C38.2235 26.605 40.8635 26.61 43.5035 26.6017C44.1369 26.6 44.7169 26.6817 45.0619 27.2933C45.4235 27.9333 45.1669 28.475 44.8035 29.025C39.6802 36.7933 34.5619 44.565 29.4502 52.3417C29.0969 52.88 28.6902 53.2883 27.9952 53.2133C27.2185 53.1283 26.7335 52.5083 26.8352 51.655C27.0385 49.9433 27.2819 48.2367 27.5085 46.5283C28.0235 42.6583 28.5385 38.7883 29.0519 34.9167C29.0619 34.8367 29.0519 34.7533 29.0519 34.5883C28.8069 34.5883 28.5869 34.5883 28.3669 34.5883C25.6652 34.5883 22.9619 34.5817 20.2602 34.5933C19.6352 34.5967 19.0969 34.4733 18.7869 33.8767C18.4635 33.2533 18.6935 32.7317 19.0835 32.2133C24.2752 25.3017 29.4585 18.385 34.6469 11.4717C35.2202 10.7067 35.7302 10.495 36.3802 10.7333C37.0085 10.9633 37.3402 11.5517 37.2185 12.2867C36.6902 15.5033 36.1519 18.7183 35.6185 21.9333C35.3635 23.465 35.1102 24.995 34.8435 26.6067L34.8452 26.605ZM30.2752 45.9533C30.3252 45.9733 30.3752 45.9917 30.4252 46.0117C34.0702 40.475 37.7152 34.94 41.4385 29.2867C41.0852 29.2867 40.8669 29.2867 40.6469 29.2867C38.2769 29.2867 35.9085 29.2933 33.5385 29.2833C32.3352 29.2783 31.8019 28.6133 32.0052 27.435C32.2202 26.1867 32.4235 24.9367 32.6319 23.6883C32.9819 21.5833 33.3302 19.4783 33.6802 17.3733L33.5852 17.325C29.9569 22.1633 26.3285 27 22.6235 31.94C22.9635 31.94 23.1635 31.94 23.3635 31.94C25.7119 31.94 28.0602 31.935 30.4085 31.9417C31.4702 31.945 32.0452 32.5833 31.9102 33.61C31.6069 35.915 31.2885 38.22 30.9819 40.525C30.7419 42.335 30.5102 44.145 30.2735 45.955L30.2752 45.9533Z" fill="white"/>
<path d="M59.9035 33.2783C59.0735 33.2783 58.2452 33.29 57.4152 33.275C56.4769 33.2583 55.8802 32.7117 55.8969 31.91C55.9119 31.1333 56.4952 30.6083 57.4069 30.6C59.0652 30.5867 60.7235 30.585 62.3835 30.6C63.2869 30.6083 63.8702 31.1517 63.8719 31.93C63.8735 32.71 63.2935 33.2383 62.3919 33.275C62.3502 33.2767 62.3085 33.275 62.2669 33.275C61.4785 33.275 60.6919 33.275 59.9035 33.275V33.2783Z" fill="white"/>
<path d="M30.5985 59.8833C30.5985 59.0533 30.5869 58.225 30.6019 57.395C30.6185 56.4883 31.1452 55.905 31.9219 55.895C32.7019 55.885 33.2619 56.465 33.2719 57.3633C33.2902 59.0417 33.2902 60.7217 33.2719 62.4017C33.2619 63.3 32.7019 63.88 31.9219 63.87C31.1452 63.8617 30.6285 63.2767 30.5969 62.37C30.5969 62.3283 30.5969 62.2867 30.5969 62.245C30.5969 61.4567 30.5969 60.67 30.5969 59.8817L30.5985 59.8833Z" fill="white"/>
<path d="M15.3735 13.8383C15.3669 14.59 15.1352 15.0083 14.6319 15.2383C14.0619 15.5 13.5319 15.4 13.0852 14.9617C12.2552 14.1467 11.4369 13.3183 10.6135 12.4967C10.2019 12.085 9.77853 11.685 9.3852 11.2567C8.8302 10.6533 8.8352 9.88665 9.36687 9.35999C9.90187 8.83165 10.6785 8.81832 11.2635 9.38999C12.5119 10.61 13.7469 11.845 14.9602 13.0983C15.1885 13.335 15.2935 13.6917 15.3735 13.8367L15.3735 13.8383Z" fill="white"/>
<path d="M49.9969 15.3767C49.2435 15.3533 48.8335 15.1017 48.6169 14.5967C48.3935 14.075 48.4602 13.5667 48.8585 13.1517C49.5502 12.4333 50.2619 11.7333 50.9652 11.0267C51.5085 10.4817 52.0419 9.92665 52.6019 9.40166C53.2002 8.83832 53.9719 8.83166 54.5002 9.34832C55.0319 9.86832 55.0619 10.6633 54.4969 11.245C53.2669 12.5117 52.0152 13.76 50.7452 14.9867C50.5102 15.2133 50.1452 15.3033 49.9969 15.3783V15.3767Z" fill="white"/>
<path d="M10.4569 54.91C9.72854 54.8833 9.30687 54.6217 9.08187 54.0917C8.84354 53.5317 8.97854 53.0283 9.39354 52.6067C10.3269 51.66 11.2702 50.7217 12.2119 49.7817C12.5202 49.4733 12.8185 49.1517 13.1452 48.865C13.7152 48.365 14.5052 48.3867 15.0002 48.8917C15.4785 49.38 15.5369 50.1733 15.0319 50.6967C13.7619 52.0117 12.4619 53.2983 11.1485 54.5717C10.9419 54.7717 10.6085 54.8383 10.4552 54.91L10.4569 54.91Z" fill="white"/>
<path d="M54.9085 53.43C54.8802 54.135 54.6302 54.545 54.1352 54.775C53.5585 55.0417 53.0335 54.9083 52.5935 54.4733C51.3685 53.26 50.1519 52.0367 48.9335 50.8167C48.8902 50.7733 48.8469 50.7267 48.8085 50.6767C48.3669 50.1133 48.4052 49.3417 48.8985 48.8667C49.3735 48.4083 50.1619 48.3383 50.6552 48.815C51.9869 50.0967 53.2885 51.4117 54.5752 52.74C54.7752 52.945 54.8385 53.2817 54.9069 53.4317L54.9085 53.43Z" fill="white"/>
</g>
<defs>
<clipPath id="clip0_741_5020">
<rect width="64" height="64" fill="white"/>
</clipPath>
</defs>
</svg>
