<svg width="64" height="64" viewBox="0 0 64 64" fill="none" xmlns="http://www.w3.org/2000/svg">
<g clip-path="url(#clip0_741_5034)">
<g clip-path="url(#clip1_741_5034)">
<path d="M0 32.695C0.4075 32.015 1.01625 31.82 1.78625 31.8413C3.24 31.8813 4.69625 31.8526 6.1525 31.8526H6.825C6.735 30.7476 6.62125 29.7188 6.57375 28.6863C6.38625 24.5426 7.1825 20.585 8.89125 16.8113C9.23 16.0613 9.90125 15.7713 10.5638 16.0525C11.2488 16.3438 11.5138 17.0538 11.1638 17.8288C9.72 21.0213 8.99125 24.3675 9.04625 27.8675C9.065 29.0275 9.24875 30.1838 9.33 31.3426C9.3575 31.74 9.50375 31.9063 9.905 31.8575C10.11 31.8326 10.32 31.8475 10.5288 31.855C11.4625 31.8863 11.9275 32.355 11.95 33.3013C11.9613 33.7763 11.9525 34.2513 11.9525 34.7676H14.725V34.0913C14.725 30.4726 14.725 26.8538 14.725 23.2351C14.725 21.4426 14.9663 21.2038 16.7863 21.2038C19.5513 21.2038 22.3175 21.2038 25.0825 21.2038H25.8388C25.8388 20.9351 25.8388 20.715 25.8388 20.4938C25.8388 18.5175 25.8363 16.5425 25.8388 14.5663C25.8413 13.4713 26.2963 13.0063 27.3938 13.0088C30.9075 13.02 34.4213 13.0388 37.935 13.06C39.0238 13.0663 39.445 13.49 39.4463 14.5738C39.45 18.65 39.4475 22.7263 39.4475 26.8025C39.4475 27.0475 39.4475 27.2913 39.4475 27.6188C39.7525 27.6188 39.995 27.6188 40.2363 27.6188C43.105 27.6188 45.975 27.6188 48.8438 27.6188C50.1825 27.6188 50.5638 27.9951 50.5638 29.3151C50.5638 33.4951 50.5638 37.675 50.5638 41.855C50.5638 42.0763 50.5638 42.2963 50.5638 42.6838C50.8025 42.4113 50.9388 42.27 51.0588 42.1163C55.135 36.8488 56.6663 30.8988 55.82 24.3151C55.7563 23.8213 55.6575 23.3313 55.5713 22.8413C55.4225 22.005 55.8075 21.3413 56.5213 21.2125C57.2713 21.0763 57.8688 21.505 58.0213 22.3463C59.6425 31.3263 57.4425 39.1863 51.0913 45.8063C50.7175 46.1963 50.5188 46.565 50.5563 47.1075C50.5988 47.7263 50.5663 48.3513 50.5663 49.055C51.9925 48.7313 53.3613 48.4201 54.7288 48.1101C55.62 47.9088 56.5075 47.6913 57.4025 47.5126C60.2563 46.9426 63.0425 48.7213 63.7325 51.5401C64.4188 54.3413 62.8313 57.2438 60.04 58.0113C56.1588 59.0788 52.2488 60.0463 48.34 61.0113C46.4088 61.4888 44.4675 61.965 42.5038 62.2626C40.0688 62.6313 37.7063 62.1263 35.4288 61.2325C29.3238 58.8375 23.2188 56.4388 17.1138 54.0438C16.9413 53.9763 16.7588 53.8863 16.5813 53.885C15.0675 53.8725 13.5538 53.8775 11.9538 53.8775C11.9538 54.225 11.96 54.5288 11.9538 54.8326C11.93 55.8213 11.4713 56.2825 10.4875 56.2838C7.535 56.2875 4.5825 56.2676 1.63 56.2976C0.88 56.305 0.3475 56.0676 0.00375 55.4076V32.6926L0 32.695ZM11.9763 51.375C13.5138 51.375 14.9875 51.355 16.4588 51.3863C16.9038 51.3963 17.3713 51.4813 17.785 51.6426C24.0125 54.0676 30.2338 56.5075 36.4525 58.9525C38.8188 59.8825 41.2588 60.1875 43.7288 59.5876C48.8713 58.3376 53.9963 57.0113 59.12 55.6888C60.81 55.2526 61.705 53.715 61.2875 52.1113C60.8675 50.4988 59.3638 49.6151 57.6663 50.0013C53.8613 50.8663 50.0488 51.7025 46.255 52.6213C43.065 53.3938 39.9175 53.465 36.815 52.2963C32.7175 50.7525 28.6338 49.1701 24.5475 47.5988C23.6838 47.2663 23.34 46.6301 23.6013 45.91C23.8563 45.2063 24.5625 44.9576 25.4213 45.2701C25.5188 45.305 25.6163 45.3426 25.7125 45.3801C28.3088 46.3763 30.905 47.3738 33.5013 48.3688C34.425 48.7225 35.345 48.705 36.21 48.2225C37.4063 47.5563 38.0113 46.5088 37.9288 45.1388C37.85 43.8363 37.1525 42.9313 35.9488 42.4313C31.9425 40.7676 27.9363 39.1051 23.925 37.4551C23.6663 37.3488 23.3625 37.3125 23.0788 37.3113C19.5863 37.3013 16.0925 37.3051 12.6 37.3063C12.3988 37.3063 12.1975 37.3238 11.975 37.335V51.3775L11.9763 51.375ZM36.915 40.1175V15.5638H28.3625C28.3513 15.695 28.3338 15.7963 28.3338 15.8988C28.3325 22.6375 28.3363 29.3763 28.3213 36.1138C28.3213 36.5126 28.4925 36.65 28.8113 36.78C30.5613 37.4913 32.305 38.2176 34.0513 38.9388C34.9863 39.3251 35.9213 39.7088 36.9163 40.1188L36.915 40.1175ZM39.48 30.1488C39.465 30.3151 39.4475 30.4163 39.4475 30.5188C39.4463 34.2588 39.4413 37.9988 39.4563 41.7401C39.4563 41.9901 39.5663 42.2613 39.6913 42.4863C40.6475 44.2088 40.7375 45.9863 39.8838 47.7413C39.5288 48.47 39.4313 49.1738 39.4338 49.9463C39.435 50.3726 39.58 50.495 39.99 50.565C42.7638 51.0388 45.3788 50.26 48.0288 49.6238V30.1488H39.48ZM2.53875 34.3775V53.7463H9.40375V34.3775H2.53875ZM17.2675 23.7238V34.8075C18.6663 34.8075 20.015 34.805 21.3638 34.8075C22.83 34.8113 24.3238 34.6313 25.67 35.4475C25.6975 35.4638 25.75 35.4413 25.7975 35.4351V23.7225H17.2688L17.2675 23.7238Z" fill="white"/>
<path d="M32.6424 1.61499C35.7062 1.64499 38.6787 2.15124 41.5499 3.22499C42.4424 3.55874 42.8074 4.20999 42.5187 4.94749C42.2512 5.63249 41.5449 5.86999 40.6787 5.56249C34.5312 3.38249 28.4874 3.64374 22.5562 6.35249C20.5599 7.26374 18.7499 8.47374 17.0912 9.91124C16.8587 10.1125 16.6024 10.3137 16.3212 10.425C15.7937 10.635 15.1599 10.36 14.8762 9.85999C14.5787 9.33749 14.6499 8.69249 15.1799 8.28874C16.5824 7.21999 17.9574 6.09374 19.4612 5.18499C23.5024 2.74499 27.9362 1.64499 32.6424 1.61499Z" fill="white"/>
<path d="M56.6299 6.79746C56.5324 6.98121 56.4274 7.30996 56.2199 7.54996C52.8624 11.4362 49.4949 15.3137 46.1199 19.1862C45.5749 19.8112 44.8499 19.8762 44.2974 19.4062C43.7412 18.9325 43.7137 18.1675 44.2699 17.525C47.6187 13.6575 50.9737 9.79746 54.3274 5.93496C54.7324 5.46871 55.2162 5.24996 55.8237 5.49121C56.3449 5.69746 56.5762 6.11621 56.6287 6.79621L56.6299 6.79746Z" fill="white"/>
<path d="M53.4589 14.08C55.1952 14.0712 56.6014 15.4462 56.6214 17.1737C56.6414 18.8762 55.2202 20.3187 53.5102 20.3325C51.7889 20.3462 50.3752 18.9525 50.3614 17.225C50.3477 15.4875 51.7252 14.0887 53.4589 14.0787V14.08ZM54.2052 17.3525C54.2077 17.2637 54.2102 17.1737 54.2127 17.085C53.9752 16.9175 53.7577 16.6575 53.4964 16.6037C53.1177 16.525 52.8202 16.8162 52.8939 17.1787C52.9439 17.4262 53.2477 17.7625 53.4727 17.7925C53.6939 17.8212 53.9589 17.5125 54.2052 17.3525Z" fill="white"/>
<path d="M49.6739 8.13C49.6826 9.87125 48.3139 11.2613 46.5751 11.2775C44.8489 11.2925 43.4339 9.9 43.4239 8.17625C43.4139 6.4575 44.8151 5.03125 46.5289 5.01625C48.2451 5 49.6639 6.40625 49.6726 8.13125L49.6739 8.13ZM46.6551 7.42125C46.5664 7.425 46.4764 7.42875 46.3876 7.43375C46.2326 7.6825 45.9314 7.95375 45.9639 8.175C45.9976 8.4 46.3376 8.6975 46.5839 8.74375C46.9489 8.8125 47.2339 8.50625 47.1514 8.13125C47.0939 7.87125 46.8276 7.65625 46.6551 7.4225V7.42125Z" fill="white"/>
<path d="M11.4463 12.9588C11.445 12.2613 11.9625 11.7275 12.65 11.7188C13.365 11.7088 13.92 12.2638 13.9075 12.975C13.8963 13.6463 13.3263 14.2075 12.665 14.2013C11.9938 14.195 11.4475 13.6388 11.4463 12.9575V12.9588Z" fill="white"/>
</g>
</g>
<defs>
<clipPath id="clip0_741_5034">
<rect width="64" height="64" fill="white"/>
</clipPath>
<clipPath id="clip1_741_5034">
<rect width="64" height="64" fill="white"/>
</clipPath>
</defs>
</svg>
