<svg width="64" height="64" viewBox="0 0 64 64" fill="none" xmlns="http://www.w3.org/2000/svg">
<g clip-path="url(#clip0_741_5014)">
<path d="M0 45.4239C0.0991672 44.8555 0.180626 44.2835 0.297501 43.7186C1.70532 36.9363 7.78816 31.089 14.6059 30.0017C15.5037 29.8583 16.4281 29.8335 17.3401 29.8282C20.8942 29.8087 24.45 29.8211 28.0041 29.8211C28.2272 29.8211 28.4503 29.8211 28.7319 29.8211V25.5782H30.8162C30.8162 24.6485 30.8906 23.7932 30.7967 22.9573C30.6887 22.0028 29.7891 21.3264 28.7408 21.3158C27.016 21.2963 25.2894 21.3228 23.5646 21.3051C21.4166 21.2821 19.7661 19.9965 19.2809 17.9972C18.7001 15.6012 20.3824 13.1451 22.8226 12.8405C23.214 12.7927 23.6106 12.7732 24.0038 12.7732C29.4084 12.7697 34.8148 12.7732 40.2194 12.7679C41.5333 12.7679 42.4435 12.0383 42.5569 10.9191C42.6968 9.55913 41.7635 8.53204 40.3256 8.51256C38.684 8.49131 37.0407 8.51079 35.3991 8.50548C32.6738 8.49839 30.8994 6.75943 30.8799 4.03941C30.8711 2.6918 30.9207 1.34419 30.9419 -0.00341797C31.6078 0.000123715 32.2736 5.55441e-05 32.9394 5.55441e-05C32.9625 1.07673 32.9872 2.15347 33.0085 3.23191C33.0156 3.58608 32.9979 3.94025 33.0173 4.29264C33.0846 5.55171 33.9293 6.36984 35.1919 6.3787C36.938 6.39109 38.684 6.35745 40.4301 6.39286C42.123 6.42828 43.4405 7.17912 44.2232 8.6985C44.967 10.1382 44.8944 11.5991 44.016 12.9662C43.2776 14.1155 42.1992 14.7672 40.8232 14.8787C40.4726 14.9071 40.1167 14.9053 39.7643 14.9053C34.4836 14.9053 29.203 14.9053 23.9241 14.9106C23.5327 14.9106 23.1237 14.9248 22.7518 15.031C21.8292 15.2967 21.2607 16.1909 21.3156 17.1932C21.367 18.1335 22.0505 18.9287 22.9855 19.1093C23.2476 19.1606 23.5221 19.1748 23.7913 19.1748C25.3921 19.1801 26.9929 19.1642 28.5938 19.1819C31.2093 19.212 32.9501 20.9492 33.005 23.5736C33.0191 24.2128 33.0067 24.8539 33.0067 25.5516H35.1264V29.8211H35.8719C39.4685 29.8211 43.0669 29.8831 46.6617 29.8087C55.1812 29.6316 62.6258 37.055 63.7344 44.5102C65.0235 53.1874 59.0115 61.7813 50.3751 63.5149C45.9392 64.4056 41.7936 63.6654 37.912 61.3563C33.9258 58.9833 29.9272 58.9886 25.9464 61.3687C15.6454 67.5294 2.73772 61.8432 0.306356 50.0654C0.185938 49.4792 0.102709 48.8842 0.00177084 48.2928C0.00177084 47.3365 0.00177084 46.3785 0.00177084 45.4222L0 45.4239ZM31.9566 31.9461C27.0709 31.9461 22.1833 31.9373 17.2976 31.955C16.4281 31.9585 15.548 32.0081 14.6927 32.1533C11.5955 32.681 9.0065 34.211 6.80712 36.398C2.89533 40.285 1.22365 44.9087 2.56949 50.3735C5.00971 60.2814 16.0881 64.7616 24.9352 59.4986C29.5731 56.7397 34.28 56.7468 38.9284 59.4916C42.2098 61.4289 45.6895 62.1443 49.4596 61.528C57.2407 60.2583 62.8383 52.4826 61.6076 44.7068C60.6053 38.3743 54.0125 31.7513 46.6139 31.9231C41.7299 32.0382 36.8424 31.9443 31.9548 31.9443L31.9566 31.9461ZM30.9065 29.7857H32.9678V27.7421H30.9065V29.7857Z" fill="white"/>
<path d="M13.8462 43.6672C13.8462 42.2807 13.8444 40.9915 13.8462 39.7041C13.848 38.7054 14.2092 38.3317 15.1832 38.3282C16.4299 38.3228 17.6783 38.3211 18.925 38.3282C19.837 38.3335 20.2142 38.7124 20.2195 39.6191C20.2266 40.9437 20.2195 42.2701 20.2195 43.6673C21.5441 43.6673 22.8049 43.6673 24.0675 43.6673C25.2327 43.6673 25.5568 43.9878 25.5586 45.1371C25.5603 46.343 25.5656 47.5489 25.5568 48.7549C25.5497 49.6545 25.1584 50.037 24.2517 50.0423C22.943 50.0494 21.6344 50.0423 20.2195 50.0423C20.2195 50.5753 20.2195 51.0853 20.2195 51.5953C20.2195 52.4471 20.2266 53.3006 20.2177 54.1524C20.2088 54.9457 19.8299 55.3601 19.0401 55.3725C17.7102 55.3955 16.3785 55.3938 15.0486 55.3725C14.2269 55.3601 13.8498 54.9457 13.8462 54.1099C13.8391 52.7818 13.8444 51.4536 13.8444 50.0405C12.6899 50.0405 11.576 50.0405 10.4621 50.0405C8.66473 50.0405 8.50712 49.8829 8.50712 48.0873C8.50712 47.0885 8.50535 46.0915 8.50712 45.0928C8.51067 44.0073 8.8489 43.6655 9.91494 43.6619C11.1988 43.6602 12.4827 43.6619 13.8427 43.6619L13.8462 43.6672ZM23.4158 45.794C22.1373 45.794 20.9154 45.794 19.6935 45.794C18.3849 45.794 18.098 45.5001 18.0962 44.1702C18.0962 42.9518 18.0962 41.7317 18.0962 40.5045H15.9695C15.9695 41.8415 15.9712 43.1289 15.9695 44.4163C15.9677 45.4328 15.6029 45.7905 14.5687 45.794C13.2849 45.7976 11.9992 45.794 10.6782 45.794V47.9208C11.9408 47.9208 13.1627 47.9208 14.3863 47.9208C15.6826 47.9208 15.9695 48.2042 15.9712 49.4809C15.9712 50.7205 15.9712 51.9601 15.9712 53.2032H18.098C18.098 51.8645 18.0945 50.5771 18.098 49.2879C18.1015 48.2909 18.4628 47.9244 19.4403 47.9208C20.3753 47.9173 21.3121 47.9208 22.2471 47.9208C22.6314 47.9208 23.0156 47.9208 23.4158 47.9208V45.794Z" fill="white"/>
<path d="M46.9309 48.9939C49.2825 49.0471 51.1614 50.9932 51.0994 53.3112C51.0374 55.6718 49.1125 57.5436 46.7874 57.5028C44.457 57.4621 42.5463 55.5106 42.5799 53.1997C42.6135 50.8285 44.5668 48.939 46.9291 48.9939H46.9309ZM46.8529 51.1243C45.6665 51.1189 44.7085 52.0681 44.712 53.244C44.7155 54.4092 45.7037 55.3867 46.8636 55.3725C48.0146 55.3583 48.9478 54.4216 48.9656 53.2652C48.9815 52.0787 48.0465 51.1278 46.8547 51.1225L46.8529 51.1243Z" fill="white"/>
<path d="M43.6548 46.8742C43.6406 49.2064 41.7175 51.1119 39.3853 51.1083C37.0194 51.1048 35.1193 49.171 35.1494 46.7946C35.1795 44.45 37.108 42.5552 39.4331 42.587C41.7688 42.6189 43.669 44.5474 43.6548 46.8742ZM37.278 46.8477C37.278 48.0412 38.2183 48.9815 39.4065 48.9709C40.5629 48.9621 41.505 48.0341 41.5262 46.8831C41.5493 45.7214 40.5806 44.7315 39.4101 44.7191C38.2325 44.7067 37.278 45.6594 37.2762 46.8477H37.278Z" fill="white"/>
<path d="M46.8158 44.7085C44.4712 44.6926 42.571 42.7818 42.5817 40.4496C42.5923 38.0944 44.5526 36.1677 46.9043 36.2014C49.2365 36.235 51.1401 38.1865 51.1012 40.5063C51.0622 42.8633 49.1657 44.7227 46.8158 44.7085ZM46.8441 42.5799C48.0359 42.5799 48.9744 41.6361 48.9656 40.4461C48.9567 39.2897 48.027 38.3494 46.8742 38.3299C45.7107 38.3105 44.7244 39.2756 44.7138 40.4479C44.7014 41.6202 45.6594 42.5799 46.8441 42.5799Z" fill="white"/>
<path d="M58.5387 46.8725C58.5299 49.2206 56.6298 51.1136 54.2887 51.1083C51.9264 51.103 50.0139 49.1622 50.0387 46.7981C50.0617 44.473 52.0203 42.5552 54.3347 42.5888C56.6847 42.6225 58.5493 44.5226 58.5405 46.8742L58.5387 46.8725ZM56.4119 46.8494C56.4119 45.6648 55.4539 44.7085 54.2781 44.7191C53.104 44.7298 52.1442 45.7108 52.1637 46.8813C52.1814 48.0359 53.1199 48.9621 54.2781 48.9727C55.4663 48.9833 56.4119 48.043 56.4119 46.8512V46.8494Z" fill="white"/>
</g>
<defs>
<clipPath id="clip0_741_5014">
<rect width="64" height="64" fill="white"/>
</clipPath>
</defs>
</svg>
