<svg width="64" height="64" viewBox="0 0 64 64" fill="none" xmlns="http://www.w3.org/2000/svg">
<g clip-path="url(#clip0_741_5024)">
<path d="M64 32.3125C63.6047 33.5938 63.3531 34.9438 62.7891 36.1453C60.75 40.4844 55.8687 42.8656 50.9953 42.0172C46.4547 41.2266 42.7297 37.3 42.1609 32.7047C41.3422 26.0906 46.2109 20.4266 52.8781 20.2516C53.3719 20.2391 53.8672 20.3031 54.4266 20.3344C54.0734 18.5047 53.4438 16.8438 52.4422 15.3562C48.8188 9.97969 43.7906 7.7 37.3703 8.77187C34.6437 9.22656 32.2922 10.5531 30.2984 12.4781C28.8062 13.9187 28.5797 13.9266 27.1078 12.4891C21.3672 6.88281 11.9125 7.22656 6.57812 13.2203C4.15156 15.9469 2.84375 19.1234 2.64688 22.7609C2.51406 25.2328 3.35625 27.4531 4.46719 29.5953C4.53594 29.7281 4.79219 29.8344 4.96094 29.8359C8.6 29.85 12.2375 29.8359 15.8766 29.8578C16.3406 29.8609 16.3625 29.5703 16.4453 29.2812C17.3687 26.0703 18.2875 22.8578 19.2125 19.6469C19.2875 19.3891 19.3562 19.1203 19.4859 18.8891C19.9453 18.0703 21.1094 18.0594 21.5937 18.8641C21.7094 19.0563 21.7781 19.2812 21.8469 19.4969C23.7563 25.5969 25.6609 31.6984 27.5688 37.8C27.6297 37.9937 27.6984 38.1859 27.825 38.5609C27.9453 38.2062 28.0156 38.0078 28.0797 37.8063C28.7672 35.6078 29.4516 33.4078 30.1437 31.2109C30.4516 30.2344 30.8016 29.975 31.8141 29.9734C33.7266 29.9688 35.6391 29.9719 37.5531 29.9734C37.6984 29.9734 37.8453 29.9734 37.9875 29.9969C38.7188 30.1094 39.2016 30.6453 39.1625 31.2906C39.1219 31.9625 38.6187 32.4453 37.8625 32.4562C36.4281 32.4781 34.9938 32.4656 33.5594 32.4672C33.1859 32.4672 32.8125 32.4672 32.3734 32.4672C32.1469 33.1797 31.9187 33.8828 31.6984 34.5875C30.8516 37.3016 30.0078 40.0172 29.1609 42.7313C29.1172 42.8703 29.0781 43.0109 29.0266 43.1453C28.8125 43.6984 28.4375 44.05 27.8141 44.0453C27.1906 44.0406 26.8016 43.6859 26.6156 43.1266C26.2562 42.0438 25.9281 40.95 25.5875 39.8594C24.0047 34.7875 22.4234 29.7156 20.8406 24.6437C20.7859 24.4672 20.7234 24.2906 20.6 23.9203C20.4781 24.3016 20.4031 24.5172 20.3391 24.7359C19.7234 26.8703 19.1141 29.0047 18.4953 31.1375C18.2172 32.0953 17.8906 32.3391 16.8859 32.3406C13.5391 32.3438 10.1906 32.3406 6.84375 32.3406C6.62344 32.3406 6.40469 32.3406 6.01094 32.3406C12.3078 41.3844 20.35 48.4672 28.6766 55.3406C30.1641 54.1125 31.6281 52.9516 33.0375 51.7297C34.9219 50.0953 36.7641 48.4125 38.6281 46.7531C38.7984 46.6016 38.9719 46.4484 39.1641 46.3297C39.6719 46.0203 40.3016 46.1234 40.6937 46.5578C41.0672 46.9719 41.1172 47.5781 40.7969 48.05C40.6813 48.2203 40.5375 48.3766 40.3812 48.5109C36.8219 51.575 33.2625 54.6406 29.6922 57.6922C28.9641 58.3141 28.4687 58.3156 27.7391 57.7328C20.7203 52.1375 14.0063 46.2094 8.21719 39.3203C6.49688 37.275 5.0125 35.0297 3.45 32.8547C3.19531 32.5 2.97344 32.2766 2.5125 32.3297C2.16406 32.3703 1.80625 32.3484 1.45312 32.3328C0.692188 32.2984 0.189062 31.8484 0.140625 31.1766C0.0953125 30.5531 0.5375 30.0312 1.23906 29.8828C1.39844 29.8484 1.55938 29.8234 1.72656 29.7922C-2.23906 22.2125 1.82031 13.0984 7.41875 9.11562C12.4891 5.50781 21.5984 4.01719 28.6641 10.4406C29.6687 9.73125 30.6172 8.94531 31.6687 8.33594C41.3719 2.72031 53.5594 7.72188 56.5516 18.5312C56.7344 19.1906 56.8297 19.8734 57.025 20.5281C57.1031 20.7875 57.2906 21.1047 57.5172 21.2156C61.1656 23.0078 63.3125 25.8859 63.9109 29.9125C63.9188 29.9672 63.9703 30.0172 64.0016 30.0688V32.3141L64 32.3125ZM52.9984 39.6937C57.6812 39.7078 61.4984 35.9094 61.5031 31.2328C61.5078 26.5688 57.6672 22.7266 53.0125 22.7359C48.3703 22.7453 44.5609 26.5453 44.5391 31.1875C44.5172 35.8641 48.3109 39.6797 52.9984 39.6937Z" fill="white"/>
<path d="M43.3125 42.7078C43.9609 42.7203 44.5375 43.3156 44.5297 43.9625C44.5219 44.6281 43.9094 45.2203 43.2344 45.2125C42.5672 45.2047 42.0234 44.6422 42.0297 43.9656C42.0359 43.2875 42.6422 42.6937 43.3109 42.7062L43.3125 42.7078Z" fill="white"/>
<path d="M54.2672 32.4609C54.2672 33.5984 54.2875 34.6375 54.2609 35.675C54.2344 36.6875 53.3641 37.2969 52.5219 36.9078C51.9672 36.6516 51.7703 36.1703 51.7719 35.5812C51.7766 34.5672 51.7719 33.5516 51.7719 32.4594C50.6656 32.4594 49.6109 32.475 48.5578 32.4547C47.7062 32.4375 47.1875 31.8984 47.2406 31.1375C47.2875 30.4437 47.7781 30.0031 48.6078 29.975C49.4172 29.9484 50.2297 29.9672 51.0406 29.9672C51.2641 29.9672 51.4875 29.9672 51.7734 29.9672C51.7734 28.8922 51.7656 27.8797 51.7766 26.8656C51.7844 26.0891 52.1469 25.5875 52.7578 25.4625C53.5734 25.2953 54.2406 25.8578 54.2609 26.7734C54.2844 27.8094 54.2672 28.8453 54.2672 29.9672C55.1344 29.9672 55.9562 29.9641 56.7797 29.9687C57.0906 29.9703 57.4062 29.9609 57.7109 30.0109C58.4344 30.1297 58.8391 30.6234 58.8047 31.2922C58.7703 31.9531 58.2984 32.425 57.575 32.4484C56.6813 32.4781 55.7875 32.4594 54.8937 32.4625C54.7109 32.4625 54.5281 32.4625 54.2687 32.4625L54.2672 32.4609Z" fill="white"/>
</g>
<defs>
<clipPath id="clip0_741_5024">
<rect width="64" height="64" fill="white"/>
</clipPath>
</defs>
</svg>
