<svg width="64" height="64" viewBox="0 0 64 64" fill="none" xmlns="http://www.w3.org/2000/svg">
<g clip-path="url(#clip0_741_5026)">
<g clip-path="url(#clip1_741_5026)">
<path d="M15.9601 1.13H47.8818V7.32834C52.9568 8.40834 57.9801 9.47834 63.0701 10.5617C62.8218 11.755 62.5885 12.8883 62.3468 14.02C60.3435 23.4233 58.3368 32.825 56.3435 42.23C56.2901 42.48 56.3218 42.7667 56.3835 43.0183C58.6035 52.0117 53.1618 60.7333 44.1118 62.675C35.7418 64.4717 27.3551 59.0733 25.3785 50.5917C25.2668 50.1133 25.0901 50.0033 24.6435 50.0133C23.4418 50.04 22.2385 50.0233 20.9685 50.0233V52.02C20.7401 52.02 20.5785 52.02 20.4185 52.02C15.6135 52.02 10.8101 52.0333 6.00514 52.0133C3.15014 52.0017 0.943477 49.7217 0.998477 46.9017C1.04848 44.3117 3.16848 42.1467 5.76014 42.0483C6.31848 42.0267 6.87848 42.045 7.50014 42.045C5.26848 31.5333 3.04848 21.085 0.813477 10.5683C5.89014 9.48834 10.8985 8.42334 15.9618 7.34667V1.13H15.9601ZM19.9935 25.115H43.9235V25.8367C43.9235 27.5 43.9168 29.1633 43.9335 30.825C43.9351 31.0183 44.0235 31.34 44.1468 31.3817C44.7068 31.57 45.2935 31.68 45.8901 31.8217V3.14667H18.0085V42.065H20.9835V44.0367C22.3335 44.0367 23.6385 44.0433 24.9418 44.0267C25.0635 44.0267 25.2585 43.895 25.2935 43.785C25.6935 42.55 26.0701 41.3067 26.4635 40.0283H19.9951V25.115H19.9935ZM54.9335 39.275C56.8735 30.15 58.7851 21.1517 60.7085 12.1C56.4118 11.1867 52.1968 10.2917 47.9485 9.38834C47.9351 9.59334 47.9185 9.73501 47.9185 9.87834C47.9185 17.32 47.9218 24.76 47.9068 32.2017C47.9068 32.6067 48.0735 32.775 48.3968 32.9467C50.9668 34.315 53.0201 36.2383 54.5535 38.7167C54.6468 38.8683 54.7535 39.0117 54.9335 39.275ZM40.9085 61.005C48.6051 61.015 54.8885 54.755 54.9051 47.065C54.9218 39.365 48.6718 33.0783 40.9801 33.0567C33.2535 33.035 26.9551 39.3067 26.9535 47.025C26.9518 54.72 33.2168 60.995 40.9085 61.005ZM22.0068 27.0867V38.0467C23.7351 38.0467 25.4168 38.0267 27.0985 38.0583C27.5701 38.0667 27.8351 37.9067 28.1151 37.5367C30.9368 33.83 34.6518 31.6617 39.3018 31.1633C40.1585 31.0717 41.0235 31.0667 41.8868 31.0217V27.0867H22.0068ZM9.33681 31.2C8.10181 27.285 8.60514 23.89 11.8551 21.215C9.56348 19.2883 8.87348 17.2483 9.75348 15.0317C10.1401 14.06 10.7701 13.2733 11.6501 12.7C12.9751 11.8367 14.4118 11.665 15.9368 12.1083V9.39334C11.6785 10.2983 7.46181 11.1933 3.17848 12.1033C5.30514 22.1067 7.41681 32.0467 9.53348 42.005H11.5718C10.9451 39.0483 10.3285 36.1317 9.70181 33.1717C11.8301 32.715 13.8918 32.2733 15.9435 31.8333V29.8033C13.7218 30.2733 11.5318 30.735 9.33514 31.2H9.33681ZM18.9151 50.0233V44.0333C14.6485 44.0333 10.4318 44.0317 6.21681 44.0333C4.35348 44.0333 3.00014 45.2933 2.99514 47.0167C2.99014 48.74 4.34514 50.0183 6.19681 50.02C10.2468 50.025 14.2968 50.02 18.3468 50.02C18.5301 50.02 18.7118 50.02 18.9151 50.02V50.0233ZM15.9468 21.705C12.4301 21.9967 9.95348 25.775 10.9168 28.825C12.5868 28.47 14.2601 28.1133 15.9468 27.7533V21.705ZM12.0668 34.7033C12.5951 37.185 13.1085 39.5933 13.6201 41.9967H15.9435V33.8817C14.6518 34.155 13.4001 34.42 12.0668 34.7033ZM15.9718 16.8667C15.9718 16.16 15.9951 15.4517 15.9568 14.7483C15.9451 14.55 15.7968 14.275 15.6285 14.1833C14.4985 13.5617 12.9918 13.89 12.1285 14.9067C11.2151 15.9817 11.1635 17.54 12.0018 18.6517C12.8268 19.7467 14.3251 20.15 15.5135 19.62C15.8335 19.4767 16.0001 19.3067 15.9818 18.9233C15.9485 18.24 15.9718 17.5517 15.9718 16.8667ZM24.9518 46.0717H21.0101V47.9833H24.9518V46.0717Z" fill="white"/>
<path d="M31.3218 13.7983C35.4751 16.09 36.2151 19.4417 35.8901 23.0367H20.0352C19.7302 20.0567 20.0352 16.3083 24.5602 13.7983C22.4268 11.02 22.4535 8.32499 24.6368 6.37665C26.5885 4.63332 29.5452 4.70332 31.4285 6.51999C32.9668 8.00332 33.9251 11.065 31.3218 13.7983ZM33.9535 21.0483C33.8318 18.775 32.8851 17.01 30.9302 15.9033C28.7151 14.65 26.4885 14.79 24.4202 16.2667C22.8068 17.4183 22.0268 19.0467 21.9685 21.0483H33.9535ZM27.9368 13.09C29.5685 13.0967 30.9251 11.7683 30.9451 10.1433C30.9668 8.48332 29.6218 7.11165 27.9668 7.10499C26.3352 7.09832 24.9785 8.42499 24.9585 10.05C24.9368 11.71 26.2818 13.0833 27.9351 13.09H27.9368Z" fill="white"/>
<path d="M43.8965 21.1216V23.0416H37.9849V21.1216H43.8965Z" fill="white"/>
<path d="M37.9634 19.0383V17.1183H43.875V19.0383H37.9634Z" fill="white"/>
<path d="M43.8965 13.1367V15.0567H37.9849V13.1367H43.8965Z" fill="white"/>
<path d="M37.9648 11.0617V9.14502H43.8832V11.0617H37.9648Z" fill="white"/>
<path d="M43.8848 7.07167H37.9648V5.15167H43.8848V7.07167Z" fill="white"/>
<path d="M57.5102 17.55C57.3635 18.2334 57.2352 18.8334 57.0935 19.4967C55.1518 19.085 53.2535 18.685 51.2568 18.2617C51.3852 17.6233 51.5102 17.0083 51.6502 16.3083C53.5985 16.72 55.5118 17.1267 57.5085 17.5484L57.5102 17.55Z" fill="white"/>
<path d="M52.4899 12.405C54.4482 12.82 56.3582 13.225 58.3349 13.6417C58.1932 14.3167 58.0649 14.9317 57.9249 15.5933C55.9532 15.1733 54.0415 14.7667 52.0815 14.3483C52.2215 13.6833 52.3465 13.0833 52.4899 12.4033V12.405Z" fill="white"/>
<path d="M48.75 29.9733C48.89 29.3066 49.0167 28.7066 49.16 28.0233C51.1133 28.4383 53.0267 28.8433 55.0067 29.2633C54.8667 29.9283 54.7367 30.545 54.5967 31.2133C52.6483 30.8 50.7517 30.3983 48.75 29.9733Z" fill="white"/>
<path d="M50.4116 22.16C50.5533 21.5 50.6816 20.8967 50.8283 20.215C52.7816 20.6284 54.7083 21.0367 56.6783 21.455C56.535 22.1217 56.4066 22.7234 56.26 23.4034C54.2983 22.9867 52.37 22.5767 50.4116 22.16Z" fill="white"/>
<path d="M49.9982 24.1234C51.9498 24.5367 53.8498 24.9384 55.8348 25.3584C55.7015 26.0167 55.5765 26.6334 55.4398 27.315C53.4748 26.8967 51.5582 26.4867 49.5898 26.0684C49.7298 25.405 49.8565 24.805 49.9998 24.125L49.9982 24.1234Z" fill="white"/>
<path d="M52.91 47.0167C52.9167 53.6167 47.5433 59.0033 40.945 59.0083C34.345 59.015 28.9567 53.64 28.9517 47.045C28.9467 40.4417 34.3167 35.06 40.9167 35.0533C47.52 35.0483 52.9033 40.4183 52.91 47.0167ZM40.965 37.05C35.4683 37.0383 30.97 41.49 30.9483 46.9633C30.925 52.4883 35.39 57 40.895 57.0117C46.4133 57.025 50.9133 52.5434 50.9133 47.0333C50.9133 41.545 46.4467 37.06 40.965 37.0483V37.05Z" fill="white"/>
<path d="M40.9683 39.07C44.3516 38.9667 47.5783 41.4033 48.5849 44.7783C49.5783 48.1117 48.2116 51.8783 45.3199 53.6633C44.9716 53.1367 44.6216 52.61 44.2599 52.065C46.5616 50.2233 47.5249 47.9233 46.5683 45.1C45.6866 42.5 43.6999 41.235 40.9683 41.0083V39.07Z" fill="white"/>
<path d="M42.6648 52.81C42.8465 53.4067 43.0282 54.0083 43.2448 54.7183C42.4482 54.84 41.7315 54.95 40.9648 55.0667V53.0667C41.5248 52.9817 42.0665 52.9 42.6648 52.81Z" fill="white"/>
</g>
</g>
<defs>
<clipPath id="clip0_741_5026">
<rect width="64" height="64" fill="white"/>
</clipPath>
<clipPath id="clip1_741_5026">
<rect width="64" height="64" fill="white"/>
</clipPath>
</defs>
</svg>
