<svg width="64" height="64" viewBox="0 0 64 64" fill="none" xmlns="http://www.w3.org/2000/svg">
<g clip-path="url(#clip0_741_5019)">
<g clip-path="url(#clip1_741_5019)">
<path d="M32.6871 0C33.1387 0.145 33.6071 0.255 34.0421 0.44C36.0654 1.29667 37.3804 3.38667 37.2754 5.54167C37.1654 7.79167 35.7254 9.695 33.6004 10.3983C33.4054 10.4633 33.2071 10.52 32.9754 10.5917V14.4883C34.9237 14.6483 36.8187 15.0517 38.6321 15.81C40.4287 16.5617 42.0471 17.5933 43.4687 18.825C44.4087 17.8883 45.3171 16.9833 46.2437 16.0617C44.8537 12.9517 45.3687 10.355 47.7454 8.72833C49.8571 7.28167 52.7404 7.57 54.5421 9.40833C56.3437 11.245 56.5704 14.1267 55.0804 16.2167C53.4354 18.525 50.8004 19.0233 47.8021 17.6217C46.8837 18.54 45.9771 19.445 45.0337 20.3867C46.2871 21.83 47.3304 23.4683 48.0804 25.2867C48.8237 27.085 49.2354 28.9617 49.3771 30.9383C50.6104 30.9383 51.7921 30.9583 52.9737 30.915C53.1287 30.91 53.3471 30.6033 53.4121 30.3983C54.6104 26.535 59.4687 25.3183 62.3154 28.18C63.8821 29.755 64.3071 32.0867 63.3971 34.1133C62.5021 36.1067 60.4454 37.385 58.3104 37.2733C56.0421 37.1533 54.1004 35.68 53.4571 33.5183C53.3171 33.0467 53.1337 32.905 52.6554 32.9217C51.5787 32.96 50.4987 32.9333 49.3804 32.9333C49.0887 36.96 47.6471 40.4717 45.0821 43.425C46.0054 44.345 46.9104 45.2467 47.8854 46.22C49.2654 45.39 50.8871 45.1217 52.6021 45.7617C53.7987 46.2083 54.7121 46.9917 55.3504 48.09C56.6271 50.2933 56.1454 53.09 54.2071 54.7767C52.3021 56.435 49.4421 56.4933 47.4271 54.9133C45.2871 53.235 44.8471 50.535 46.2371 47.8517C45.3187 46.9317 44.4137 46.025 43.4571 45.0667C40.5187 47.615 37.0021 49.095 32.9337 49.38C32.9337 50.6117 32.9171 51.81 32.9554 53.0083C32.9604 53.15 33.2504 53.3467 33.4421 53.4067C35.7121 54.1133 37.2787 56.195 37.2771 58.5383C37.2754 60.8433 35.7504 62.925 33.5571 63.62C30.7604 64.505 27.7587 62.9667 26.8587 60.1883C25.9471 57.3717 27.4921 54.3667 30.3154 53.4567C30.5104 53.3933 30.7071 53.3367 30.9154 53.275V49.3883C26.9187 49.0917 23.3854 47.655 20.4154 45.06C19.4837 45.995 18.5787 46.9017 17.6437 47.84C18.9971 51.1017 18.4671 53.6317 16.0321 55.2133C13.8954 56.6017 11.0521 56.28 9.2904 54.4533C7.51707 52.6167 7.29207 49.7667 8.7554 47.6917C10.4021 45.355 12.9887 44.8583 16.0887 46.2617C16.9937 45.3583 17.8887 44.465 18.8421 43.5117C17.6204 42.0683 16.5571 40.45 15.8087 38.6367C15.0637 36.835 14.6371 34.9633 14.4987 32.9817H10.6037C10.5654 33.0917 10.5137 33.225 10.4737 33.3617C9.7904 35.725 7.62874 37.3417 5.22874 37.28C2.76374 37.2167 0.70207 35.5267 0.125404 33.1C0.0920703 32.96 0.0404036 32.825 -0.00292969 32.6883C-0.00292969 32.19 -0.00292969 31.69 -0.00292969 31.1917C0.0370703 31.075 0.0870703 30.96 0.115404 30.8417C0.703737 28.3517 2.7304 26.6683 5.22707 26.6C7.67207 26.5317 9.7954 28.16 10.4987 30.6383C10.5271 30.735 10.5804 30.8267 10.6121 30.9H14.4921C14.6421 28.9217 15.0587 27.0467 15.8054 25.245C16.5571 23.4317 17.6171 21.8117 18.8471 20.3617C17.8954 19.4117 17.0004 18.5183 16.0971 17.615C12.9354 19.02 10.3454 18.5067 8.7204 16.1367C7.28207 14.0383 7.53874 11.2 9.33374 9.38C11.1387 7.55 14.0087 7.27333 16.1337 8.725C18.4971 10.3383 19.0104 12.9333 17.6321 16.0517C18.5604 16.9817 19.4654 17.8883 20.4021 18.8267C21.8237 17.59 23.4454 16.5617 25.2404 15.8083C27.0537 15.0483 28.9504 14.6483 30.9154 14.4867V10.6467C30.8871 10.6233 30.8737 10.605 30.8554 10.5983C30.6604 10.53 30.4654 10.4667 30.2704 10.3967C28.3071 9.695 27.0704 8.32833 26.7004 6.27833C26.3204 4.17333 27.0087 2.385 28.7221 1.11833C29.4354 0.595 30.3621 0.365 31.1887 0C31.6871 0 32.1871 0 32.6854 0H32.6871ZM16.4687 31.8717C16.4454 40.395 23.3304 47.3667 31.8087 47.4067C40.4171 47.4467 47.3904 40.5317 47.4087 31.9367C47.4271 23.4717 40.5121 16.5017 32.0637 16.4683C23.4637 16.4333 16.4921 23.32 16.4687 31.8717ZM2.0004 31.9317C1.99707 33.7567 3.5004 35.2767 5.3154 35.2867C7.1604 35.2967 8.6904 33.7617 8.67874 31.9133C8.66707 30.0917 7.14707 28.5867 5.32874 28.5933C3.50374 28.6 2.00374 30.105 2.0004 31.9317ZM31.9054 61.875C33.7321 61.8883 35.2554 60.405 35.2854 58.585C35.3154 56.745 33.7987 55.21 31.9387 55.1983C30.1254 55.1867 28.6037 56.6983 28.5937 58.52C28.5837 60.3417 30.0837 61.86 31.9054 61.8733V61.875ZM31.9271 2.00167C30.1071 2.005 28.5904 3.51833 28.5904 5.33333C28.5904 7.18 30.1321 8.70167 31.9787 8.67833C33.8021 8.655 35.3004 7.12833 35.2821 5.31333C35.2621 3.48167 33.7621 2 31.9271 2.00333V2.00167ZM55.2054 31.905C55.1887 33.735 56.6671 35.2567 58.4904 35.285C60.3287 35.3133 61.8737 33.7883 61.8787 31.94C61.8821 30.1217 60.3821 28.6083 58.5571 28.5933C56.7321 28.5783 55.2221 30.0717 55.2054 31.905ZM16.4637 13.1233C16.4621 11.2967 14.9654 9.79667 13.1371 9.78833C11.3071 9.78 9.81207 11.2633 9.7954 13.1033C9.77874 14.9633 11.2887 16.4767 13.1487 16.4667C14.9771 16.4567 16.4654 14.9567 16.4637 13.1233ZM16.4671 50.77C16.4721 48.9317 14.9971 47.4267 13.1704 47.4067C11.3104 47.3867 9.79207 48.89 9.79374 50.7483C9.7954 52.5917 11.2704 54.065 13.1187 54.0717C14.9537 54.0783 16.4637 52.5883 16.4671 50.7683V50.77ZM54.0754 50.7617C54.0837 48.925 52.5987 47.415 50.7787 47.4067C48.9154 47.3983 47.4037 48.9017 47.4087 50.7583C47.4137 52.5883 48.8937 54.06 50.7437 54.0767C52.5721 54.0917 54.0671 52.605 54.0754 50.7617ZM50.7354 16.4617C52.5654 16.4667 54.0604 14.985 54.0804 13.15C54.1004 11.32 52.6237 9.82167 50.7837 9.8C48.9187 9.77833 47.4054 11.2733 47.4087 13.1333C47.4137 14.9633 48.9071 16.4567 50.7354 16.46V16.4617Z" fill="white"/>
<path d="M32.1933 23.9483C35.9067 24.02 39.355 25.3783 42.225 28.15C42.7583 28.665 42.795 29.2417 42.3533 29.68C41.9467 30.085 41.3733 30.0517 40.8583 29.59C40.765 29.5067 40.6783 29.4183 40.585 29.335C38.1017 27.0983 35.19 25.9367 31.8483 25.96C28.5533 25.9817 25.6867 27.1517 23.25 29.3717C23.1433 29.47 23.0433 29.5767 22.9317 29.67C22.4717 30.0567 21.91 30.0617 21.5267 29.6867C21.1117 29.28 21.0667 28.6533 21.5633 28.255C22.6767 27.3617 23.7833 26.4333 25.01 25.715C27.1283 24.475 29.48 23.97 32.195 23.9467L32.1933 23.9483Z" fill="white"/>
<path d="M39.8117 31.5967C39.7984 32.5717 38.9984 33.04 38.3434 32.6517C38.1151 32.5167 37.9268 32.3117 37.7251 32.1333C34.3884 29.1983 29.4451 29.2084 26.1184 32.16C26.0101 32.2567 25.9067 32.36 25.7967 32.4533C25.2684 32.9033 24.7051 32.9033 24.3067 32.455C23.9367 32.04 23.9734 31.4684 24.4317 31.0117C25.6917 29.7567 27.1767 28.8567 28.8901 28.3917C32.8234 27.325 36.3184 28.1617 39.3334 30.9133C39.5751 31.135 39.7217 31.4617 39.8117 31.5933V31.5967Z" fill="white"/>
<path d="M31.9136 41.445C30.3769 41.44 29.1686 40.205 29.1852 38.6567C29.2002 37.1283 30.4552 35.9133 31.9936 35.9333C33.4886 35.9533 34.7002 37.1967 34.6919 38.7033C34.6836 40.2517 33.4686 41.4517 31.9136 41.445ZM31.9169 39.4517C32.3769 39.425 32.6552 39.1967 32.6902 38.7317C32.7219 38.2933 32.3602 37.9117 31.9269 37.94C31.4736 37.97 31.1919 38.225 31.1902 38.6917C31.1869 39.1583 31.4636 39.4 31.9169 39.4533V39.4517Z" fill="white"/>
<path d="M31.9332 31.935C33.7082 31.97 35.2632 32.565 36.5649 33.7833C37.0782 34.2633 37.1432 34.8217 36.7599 35.27C36.3732 35.7233 35.7649 35.715 35.2149 35.2517C33.1249 33.4867 30.7399 33.485 28.6649 35.245C28.1132 35.7117 27.5099 35.725 27.1199 35.2767C26.7182 34.815 26.7949 34.2567 27.3466 33.7467C28.6399 32.5517 30.1782 31.9717 31.9332 31.9333V31.935Z" fill="white"/>
</g>
</g>
<defs>
<clipPath id="clip0_741_5019">
<rect width="64" height="64" fill="white"/>
</clipPath>
<clipPath id="clip1_741_5019">
<rect width="64" height="64" fill="white"/>
</clipPath>
</defs>
</svg>
