<svg width="64" height="64" viewBox="0 0 64 64" fill="none" xmlns="http://www.w3.org/2000/svg">
<g clip-path="url(#clip0_741_5041)">
<path d="M7.49256 64C5.98647 63.3916 5.53366 62.225 5.55334 60.6433C5.60913 56.1533 5.57467 51.66 5.57303 47.1683C5.57303 44.0133 6.73295 41.3983 9.23163 39.51C10.0995 38.8533 11.184 38.4966 12.1552 37.9733C12.3521 37.8666 12.5933 37.6466 12.6244 37.4483C12.9263 35.5616 14.2273 34.3666 16.1157 34.34C17.7333 34.3166 19.3543 34.405 20.9654 34.3033C21.7119 34.2566 22.4387 33.875 23.172 33.635C23.2344 33.615 23.3131 33.5166 23.3148 33.4533C23.3246 32.7266 23.3377 31.9983 23.3082 31.2716C23.3033 31.1483 23.1179 31.0166 22.9948 30.9183C21.072 29.3633 19.8973 27.3533 19.4626 24.9033C19.3969 24.53 19.2919 24.3566 18.89 24.2666C18.3798 24.1533 17.8695 23.945 17.4167 23.6783C15.0624 22.2866 14.5177 19.4633 16.1501 17.245C16.283 17.0633 16.429 16.8916 16.5964 16.6783C15.7187 15.745 15.5808 14.6 15.6022 13.3816C15.635 11.4483 15.6055 9.5133 15.612 7.57996C15.6268 3.23496 18.6997 0.123298 22.9784 0.113298C23.633 0.113298 24.2893 0.109965 24.9439 0.113298C25.6707 0.118298 26.0841 0.451631 26.094 1.02996C26.1038 1.63163 25.6805 1.9683 24.916 1.98496C23.8939 2.00663 22.857 1.93163 21.8546 2.0883C19.328 2.48663 17.5217 4.5983 17.4676 7.1783C17.4183 9.48496 17.443 11.795 17.4577 14.1016C17.4643 15.1733 18.1222 15.84 19.1738 15.9116C19.2755 15.9183 19.3789 15.915 19.4806 15.915C22.8176 15.915 26.1547 15.92 29.4917 15.915C31.5605 15.9116 33.1536 15.0283 34.2446 13.23C34.6416 12.575 35.1026 12.3633 35.6588 12.585C36.1592 12.785 36.3331 13.1883 36.3741 13.7116C36.4676 14.8666 37.2716 15.7433 38.3166 15.8766C39.027 15.9683 39.3847 15.6833 39.388 14.9666C39.3978 12.6583 39.4093 10.35 39.383 8.04163C39.3683 6.81663 38.5988 6.1033 37.3831 6.09163C35.9935 6.07996 35.0731 5.3433 34.7335 3.97163C34.3808 2.54496 33.7721 2.03163 32.3169 1.98996C31.4375 1.96496 30.5565 1.98663 29.6755 1.9783C28.9651 1.97163 28.5598 1.6083 28.5779 1.01163C28.5959 0.446631 28.9897 0.103298 29.6755 0.113298C30.8206 0.128298 31.9723 0.0966312 33.106 0.218298C34.9222 0.413298 36.0033 1.52996 36.4627 3.29663C36.6842 4.14663 36.7531 4.20163 37.639 4.2183C39.3863 4.2483 40.9121 5.60496 41.1582 7.35996C41.2074 7.7083 41.232 8.06496 41.2271 8.41663C41.191 10.9283 41.1418 13.44 41.104 15.9533C41.104 16.0566 41.1566 16.1966 41.2337 16.2616C42.4494 17.31 43.0219 18.6533 43.0088 20.29C43.8816 20.29 44.7348 20.2416 45.5797 20.2983C50.892 20.6566 55.407 24.2666 56.9738 29.38C58.5587 34.5533 56.8737 40.1083 52.6737 43.4883C52.3358 43.76 52.2669 43.9816 52.3637 44.4133C52.5409 45.1966 52.6721 46.005 52.7 46.8083C52.7525 48.3033 52.7213 49.8016 52.7148 51.3C52.7115 52.0216 52.4047 52.3983 51.837 52.415C51.2497 52.4316 50.8855 52.0283 50.8789 51.3016C50.8674 49.8466 50.8953 48.39 50.8658 46.935C50.8526 46.2616 50.7411 45.59 50.6853 45.0283C48.984 45.5133 47.3811 45.9716 45.7158 46.4466C45.5944 50.275 45.8471 54.24 45.5698 58.26C45.7142 58.26 45.9734 58.2566 46.231 58.26C47.2515 58.275 47.7601 58.7983 47.7732 59.8483C47.7781 60.2233 47.788 60.5983 47.7699 60.9716C47.7519 61.34 47.701 61.705 47.66 62.1216C48.5148 62.1216 49.3515 62.1383 50.1882 62.115C50.6984 62.1016 50.8789 61.76 50.8773 61.2733C50.8723 59.6516 50.8756 58.03 50.8773 56.4083C50.8773 56.2216 50.8674 56.0316 50.8887 55.8466C50.9494 55.3033 51.3268 54.935 51.8058 54.9333C52.3177 54.9333 52.6983 55.3166 52.7115 55.9033C52.7312 56.7133 52.718 57.525 52.7197 58.3366C52.7197 59.1683 52.6737 60.0033 52.7295 60.8316C52.8345 62.4083 52.2062 63.47 50.7296 63.995H7.49256V64ZM43.857 46.3216C43.163 46.1966 42.5494 46.125 41.9572 45.975C37.0435 44.7233 33.823 41.65 32.3579 36.7116C32.2676 36.4083 32.2102 36.1983 31.8165 36.1983C26.596 36.2116 21.3772 36.1983 16.1567 36.2133C15.0591 36.2166 14.4718 36.8533 14.4701 37.9883C14.4636 44.205 14.4636 50.4216 14.4701 56.6383C14.4701 57.755 14.9984 58.2666 16.0862 58.2666C24.7651 58.2666 33.444 58.2666 42.1245 58.2666C43.3632 58.2666 43.8554 57.7683 43.8554 56.4966C43.8587 54.0016 43.8554 51.5066 43.8554 49.0116C43.8554 48.1216 43.8554 47.23 43.8554 46.3216H43.857ZM34.7926 37.86C34.9173 37.7483 35.0403 37.6483 35.1519 37.535C36.2248 36.4483 37.2847 35.3483 38.3741 34.28C38.6612 33.9983 38.7251 33.7266 38.6743 33.3433C38.041 28.515 42.223 24.5066 46.9102 25.4216C47.5451 25.545 48.0439 25.8166 48.2457 26.4566C48.4524 27.115 48.2391 27.6666 47.7535 28.1483C46.8003 29.0916 45.9012 30.0933 44.9136 30.9966C44.3541 31.5083 44.2294 31.9816 44.4476 32.71C44.6133 33.265 44.8824 33.48 45.3992 33.655C46.1014 33.8933 46.5526 33.7466 47.0464 33.1933C47.9668 32.1633 48.9725 31.2116 49.9421 30.2266C50.3736 29.7883 50.8969 29.6583 51.4662 29.84C52.0421 30.0233 52.3473 30.46 52.4687 31.065C53.412 35.7816 49.3712 40.1516 44.6888 39.455C44.2836 39.395 44.0063 39.4783 43.7176 39.7816C42.6643 40.8883 41.5815 41.9633 40.5134 43.055C40.4068 43.1633 40.3215 43.295 40.2198 43.4233C44.6987 45.7616 50.7312 44.0616 53.7664 39.645C56.918 35.0566 56.1896 28.7766 52.0618 24.9766C48.0406 21.275 41.8391 21.1633 37.6686 24.75C33.2733 28.53 32.9698 34.4083 34.7909 37.8616L34.7926 37.86ZM21.2279 17.7916C21.1869 17.92 21.1524 17.9766 21.1524 18.035C21.1524 19.9066 21.0704 21.7833 21.1737 23.6483C21.4674 28.955 26.8437 32.535 31.7426 30.725C31.9625 30.6433 32.2135 30.3783 32.2709 30.1533C32.9994 27.2983 34.4923 24.9566 36.7318 23.0883C36.9057 22.9433 37.0451 22.6483 37.0501 22.4183C37.078 20.9 37.0698 19.3816 37.0566 17.865C37.0566 17.7033 36.9861 17.49 36.8729 17.39C36.2002 16.79 35.5046 16.2166 34.7811 15.605C33.1897 17.2983 31.0749 17.8733 28.6911 17.8066C26.4205 17.7433 24.1465 17.7933 21.8743 17.7933H21.2295L21.2279 17.7916ZM12.6244 39.9566C12.567 39.8983 12.5096 39.84 12.4505 39.7833C11.7172 40.205 10.9198 40.545 10.2619 41.065C8.3342 42.5916 7.41217 44.645 7.41381 47.13C7.41874 51.7633 7.41381 56.395 7.41545 61.0283C7.41545 61.1933 7.36952 61.4033 7.44991 61.5166C7.61233 61.7466 7.83545 62.0783 8.0553 62.095C8.91991 62.1616 9.79436 62.1216 10.549 62.1216C10.549 61.265 10.5376 60.48 10.5523 59.695C10.5704 58.8016 11.0921 58.2916 11.9879 58.2666C12.2815 58.2583 12.5769 58.2666 12.7901 58.2666C12.7311 57.4866 12.6326 56.79 12.631 56.0933C12.6179 50.9616 12.6244 45.83 12.6244 40.7V39.9566ZM45.9308 60.1783H12.4341C12.2668 61.8216 12.5309 62.13 14.0682 62.13C24.1613 62.13 34.2561 62.13 44.3492 62.13C44.5543 62.13 44.7594 62.1433 44.9628 62.1233C45.5305 62.0666 45.8569 61.7316 45.9242 61.1666C45.9603 60.86 45.9308 60.545 45.9308 60.1783ZM46.0079 27.2716C44.1687 26.8866 42.0819 28.0183 41.0811 29.8833C39.9507 31.9933 40.2936 34.4516 41.9523 36.1333C43.5962 37.7983 45.9948 38.1433 48.0521 37.01C49.8519 36.0183 51.0069 33.905 50.6541 32.1916C50.5672 32.2666 50.4884 32.3233 50.4212 32.3916C49.4794 33.345 48.5361 34.295 47.6026 35.255C47.1284 35.7433 46.5969 35.92 45.9341 35.71C45.3106 35.5133 44.6757 35.3533 44.0424 35.1916C43.4485 35.04 43.0859 34.6666 42.9301 34.0733C42.7873 33.5316 42.6758 32.98 42.4953 32.4533C42.1885 31.5616 42.3821 30.8683 43.0761 30.2233C44.0785 29.2883 45.0137 28.28 46.0079 27.2716ZM39.3814 36.0466C38.2379 37.2083 37.0189 38.4483 35.6916 39.7966C36.5628 40.6783 37.4733 41.6 38.2855 42.4216C39.6275 41.0666 40.8514 39.8316 41.9867 38.6866C41.15 37.8383 40.2624 36.9416 39.3798 36.0483L39.3814 36.0466ZM31.9083 32.6583C29.5934 33.3033 27.3917 33.0766 25.1588 32.24V34.2833H31.9083V32.6583ZM19.2427 22.4016V17.875C18.4306 17.5066 17.9499 17.855 17.5463 18.4733C16.475 20.115 17.2477 21.9366 19.2427 22.4016ZM38.9089 21.6133C39.6045 21.3416 40.2116 21.1183 40.8055 20.8616C40.9285 20.8083 41.0417 20.645 41.0876 20.5083C41.3764 19.6366 40.7923 18.1416 39.9983 17.6733C39.6078 17.4433 38.9204 17.7066 38.9155 18.11C38.8991 19.245 38.9105 20.38 38.9105 21.6133H38.9089Z" fill="white"/>
<path d="M28.3878 49.1316C27.9382 49.1316 27.4854 49.155 27.0375 49.1266C26.465 49.09 26.0958 48.69 26.1057 48.1716C26.1155 47.645 26.4879 47.2816 27.0753 47.2716C27.976 47.2566 28.8767 47.2566 29.7774 47.2716C30.3729 47.2816 30.7273 47.6383 30.7322 48.18C30.7371 48.715 30.3861 49.075 29.8003 49.1333C29.7593 49.1366 29.7183 49.1366 29.6773 49.1366C29.2475 49.1366 28.8176 49.1366 28.3878 49.1366C28.3878 49.1366 28.3878 49.135 28.3878 49.1333V49.1316Z" fill="white"/>
</g>
<defs>
<clipPath id="clip0_741_5041">
<rect width="63" height="64" fill="white"/>
</clipPath>
</defs>
</svg>
