<svg width="64" height="64" viewBox="0 0 64 64" fill="none" xmlns="http://www.w3.org/2000/svg">
<g clip-path="url(#clip0_741_5035)">
<g clip-path="url(#clip1_741_5035)">
<path d="M64 57.2633C63.895 57.6816 63.8183 58.11 63.68 58.5183C62.7566 61.2483 60.9216 63.05 58.0983 63.6783C55.2966 64.3016 52.83 63.515 50.9316 61.3716C46.7 56.595 42.5366 51.76 38.3466 46.9466C34.975 43.075 31.605 39.2016 28.235 35.3283C28.1666 35.25 28.095 35.1766 28.025 35.1033C25.32 36.6433 23.71 36.355 21.9333 33.9133C21.5033 34.3883 21.07 34.8316 20.685 35.315C20.58 35.4466 20.5833 35.7033 20.6083 35.8933C20.915 38.1933 19.9166 40.195 17.95 41.195C16.01 42.1816 13.7266 41.8133 12.0983 40.1966C8.6033 36.725 5.11996 33.24 1.64663 29.745C0.0182969 28.105 -0.330036 25.8 0.704964 23.8366C1.72496 21.9 3.8033 20.9066 6.05663 21.245C6.25663 21.275 6.5483 21.1833 6.68996 21.0416C11.5233 16.2316 16.3433 11.41 21.1566 6.57996C21.295 6.44162 21.4283 6.18162 21.395 6.00996C20.8116 2.94829 22.93 0.466624 25.4666 0.0599577C25.505 0.053291 25.5383 0.0199577 25.5733 -0.00170898C26.0716 -0.00170898 26.5716 -0.00170898 27.07 -0.00170898C28.6216 0.341624 29.7266 1.33829 30.805 2.43329C33.955 5.63162 37.1566 8.77662 40.315 11.9683C42.885 14.565 42.1316 18.7816 38.8216 20.1266C38.0316 20.4483 37.0883 20.4716 36.2133 20.48C35.74 20.485 35.395 20.51 35.0766 20.88C34.7816 21.2233 34.425 21.5133 34.0816 21.84C36.3966 23.2383 36.8616 25.8183 35.2066 27.89C37.2533 29.6783 39.3 31.4666 41.35 33.255C45.735 37.08 50.12 40.9033 54.505 44.7266C56.665 46.61 58.8033 48.5216 60.995 50.3683C62.6216 51.7383 63.6283 53.4316 64 55.515V57.2616V57.2633ZM33.2083 19.1783C29.685 15.6583 26.18 12.1566 22.7533 8.73329C18.13 13.3583 13.45 18.0366 8.84996 22.6366C12.3033 26.0916 15.81 29.5966 19.2966 33.085C23.9166 28.4666 28.5883 23.795 33.2066 19.1783H33.2083ZM33.53 29.7433C32.28 30.99 31.0816 32.185 29.86 33.4016C34.2666 38.4633 38.7216 43.5816 43.1516 48.67C45.0483 46.7833 46.9 44.94 48.7916 43.0583C43.6916 38.6083 38.5766 34.1483 33.53 29.745V29.7433ZM48.1383 54.425C49.8016 56.31 51.42 58.2 53.1066 60.0283C53.925 60.915 55.0333 61.3133 56.2366 61.3683C58.3583 61.465 60.3233 60.2066 61.125 58.2683C61.935 56.3116 61.4283 54.115 59.7883 52.655C58.1283 51.1783 56.445 49.7283 54.77 48.27C54.68 48.1916 54.57 48.1366 54.49 48.085C52.3816 50.19 50.295 52.2716 48.1366 54.425H48.1383ZM23.8033 5.00829C23.7933 5.79162 24.155 6.39162 24.6916 6.92829C27.9133 10.14 31.1266 13.3583 34.3433 16.575C34.6516 16.8833 34.9466 17.2083 35.28 17.4883C36.6266 18.6183 38.71 18.0266 39.2333 16.3533C39.5633 15.3 39.2433 14.4116 38.4666 13.6383C35.1533 10.3433 31.855 7.03329 28.55 3.72996C28.33 3.50996 28.1183 3.27829 27.875 3.08329C27.0533 2.42496 26.14 2.29662 25.195 2.75996C24.2766 3.20996 23.8166 3.98329 23.8033 5.01162V5.00829ZM5.48996 23.6666C4.0833 23.7 3.30996 24.1716 2.85663 25.125C2.4083 26.07 2.5633 27.12 3.32663 27.8883C6.85496 31.4383 10.39 34.9816 13.9433 38.5066C14.9566 39.5116 16.4983 39.4766 17.47 38.4983C18.4466 37.5133 18.4616 35.9983 17.4433 34.975C13.93 31.44 10.4116 27.9083 6.85663 24.4133C6.43163 23.995 5.77163 23.815 5.48996 23.6666ZM24.16 32.1583C24.19 32.8883 24.4383 33.2733 24.925 33.475C25.465 33.6983 25.9433 33.5583 26.3483 33.1533C28.6566 30.8466 30.97 28.5433 33.2683 26.2266C33.8366 25.655 33.8366 24.895 33.325 24.395C32.8166 23.8983 32.0616 23.9183 31.49 24.4883C29.19 26.775 26.895 29.0666 24.6166 31.375C24.3733 31.6216 24.2533 31.9916 24.1583 32.1583H24.16ZM46.3783 52.375C48.4333 50.3216 50.4483 48.3083 52.485 46.275C51.94 45.805 51.3366 45.2833 50.81 44.8283C48.8233 46.815 46.8916 48.7433 44.9283 50.705C45.4033 51.2516 45.9166 51.8433 46.3783 52.3733V52.375Z" fill="white"/>
<path d="M31.7485 55.855C33.3318 56.7884 34.4585 58.07 34.8318 59.8517C35.0302 60.7934 35.0235 61.7867 35.0285 62.7584C35.0318 63.3467 34.5318 63.7867 33.9418 63.8617C33.7368 63.8884 33.5268 63.8767 33.3185 63.8767C22.8452 63.8767 12.3735 63.8767 1.90016 63.8767C0.488496 63.8767 0.168496 63.5134 0.115162 62.115C0.0101624 59.3834 1.04183 57.2734 3.4385 55.8534C2.7435 54.75 2.44516 53.6 2.72683 52.33C3.1535 50.405 4.84183 48.9267 6.8085 48.92C13.9985 48.8967 21.1885 48.8767 28.3768 48.9267C31.5052 48.9484 33.4952 52.3767 32.1068 55.19C32.0068 55.3934 31.8902 55.59 31.7468 55.8567L31.7485 55.855ZM2.65516 61.3434H32.5335C32.5402 59.2734 30.8885 57.645 28.7702 57.64C23.6402 57.63 18.5085 57.6367 13.3768 57.6367C11.0302 57.6367 8.68183 57.6217 6.33516 57.6417C4.2685 57.66 2.60516 59.34 2.65516 61.3434ZM17.5302 55.1417C21.0202 55.1417 24.5085 55.145 27.9985 55.14C28.9535 55.14 29.6335 54.7084 29.9302 53.9484C30.4318 52.665 29.4968 51.4017 28.0252 51.4C21.4418 51.395 14.8568 51.3984 8.2735 51.3984C7.81683 51.3984 7.3585 51.3784 6.9035 51.4084C6.10516 51.4617 5.53516 51.87 5.24516 52.6184C4.7585 53.88 5.6885 55.1334 7.12516 55.1384C10.5935 55.1484 14.0618 55.1417 17.5302 55.1417Z" fill="white"/>
<path d="M22.8867 12.4634C23.1917 12.7017 23.6467 12.8934 23.8017 13.2267C23.96 13.5667 23.855 14.0484 23.7984 14.4584C23.7767 14.6134 23.5817 14.7534 23.45 14.885C21.82 16.5184 20.1884 18.15 18.5567 19.78C18.4534 19.8834 18.35 19.9867 18.235 20.0734C17.7067 20.4667 17.0317 20.425 16.5884 19.98C16.1384 19.5284 16.0484 18.81 16.505 18.3417C18.3217 16.485 20.1667 14.6567 22.0217 12.8367C22.1967 12.665 22.4984 12.625 22.8884 12.4634H22.8867Z" fill="white"/>
<path d="M13.9134 23.8616C13.2251 23.8516 12.7018 23.3166 12.7051 22.6249C12.7084 21.9433 13.2534 21.3949 13.9284 21.3916C14.6218 21.3883 15.2084 21.9866 15.1834 22.6699C15.1584 23.3466 14.5984 23.8716 13.9134 23.8616Z" fill="white"/>
</g>
</g>
<defs>
<clipPath id="clip0_741_5035">
<rect width="64" height="64" fill="white"/>
</clipPath>
<clipPath id="clip1_741_5035">
<rect width="64" height="64" fill="white"/>
</clipPath>
</defs>
</svg>
