<svg width="64" height="64" viewBox="0 0 64 64" fill="none" xmlns="http://www.w3.org/2000/svg">
<g clip-path="url(#clip0_741_5036)">
<path d="M17.975 12.1067H19.9367V18.0817C20.64 18.0817 21.2767 18.1 21.9117 18.0667C22.0433 18.06 22.2083 17.8833 22.285 17.745C22.8717 16.6967 23.7483 16.1 24.955 16.1C26.16 16.1 27.04 16.6883 27.6283 17.74C27.7117 17.8883 27.9117 18.0667 28.06 18.0683C29.9917 18.09 31.9233 18.0833 33.8983 18.0833V3.14667H19.9817V4.06333H17.9833C17.9833 3.36333 17.945 2.66167 17.995 1.96667C18.0333 1.42 18.4667 1.12 19.1133 1.11667C20.7983 1.10833 22.4817 1.11333 24.1667 1.11333C27.64 1.11333 31.1117 1.11333 34.585 1.11333C35.6133 1.11333 35.935 1.43167 35.94 2.44167C35.9433 2.94 35.945 3.44 35.9517 3.93833C35.9517 3.975 35.9817 4.01 36.0233 4.10833C37.49 4.10833 38.9817 4.13667 40.4717 4.09667C41.1433 4.07833 41.6 4.305 42.0083 4.835C43.15 6.31667 44.3567 7.74833 45.4917 9.235C45.735 9.55333 45.9 10.0183 45.905 10.4167C45.94 13.2017 45.925 15.9883 45.9233 18.775C45.9233 19.7467 45.5883 20.0733 44.6067 20.08C44.5033 20.08 44.3983 20.09 44.295 20.08C43.4067 19.9883 42.765 20.1333 42.1433 21C40.9467 22.6683 38.4067 22.3833 37.3767 20.58C37.1417 20.1683 36.9 20.0667 36.4617 20.07C33.7383 20.09 31.0133 20.085 28.29 20.075C27.9467 20.075 27.7467 20.1467 27.5683 20.4867C27.02 21.53 26.1117 22.075 24.935 22.0667C23.7833 22.06 22.8983 21.5117 22.3533 20.5C22.1783 20.1733 21.9967 20.0633 21.6417 20.0733C20.79 20.0967 19.9367 20.09 19.085 20.0767C18.4283 20.0667 17.9917 19.7283 17.9867 19.135C17.9633 16.8117 17.9767 14.4883 17.9767 12.1083L17.975 12.1067ZM35.9817 6.13333V18.0517C36.6372 18.0994 37.1406 17.8722 37.4917 17.37C38.6983 15.6467 41.3133 15.6367 42.3783 17.4417C42.805 18.165 43.27 18.1183 43.8783 18.0483V11.095C41.9833 11.095 40.135 11.095 38.285 11.095C37.26 11.095 36.9383 10.7767 36.9367 9.76167C36.9333 8.56167 36.9367 7.36167 36.9367 6.13333H35.98H35.9817ZM42.8317 9.07667C42.195 8.28167 41.5567 7.63333 41.1017 6.87667C40.5533 5.96333 39.7967 6.05333 38.9867 6.14833V9.07667H42.8333H42.8317ZM24.91 20.075C25.4417 20.1 25.915 19.6783 25.9517 19.1433C25.99 18.5883 25.535 18.0967 24.975 18.0867C24.4417 18.0767 23.9817 18.515 23.965 19.05C23.9467 19.585 24.3767 20.0517 24.9117 20.0767L24.91 20.075ZM39.905 20.075C40.4383 20.09 40.9017 19.6583 40.9267 19.1233C40.9533 18.5667 40.4883 18.0833 39.9283 18.0867C39.3933 18.0883 38.945 18.5333 38.9383 19.07C38.9317 19.6067 39.3683 20.0617 39.905 20.0767V20.075Z" fill="white"/>
<path d="M52.0217 49.0283C49.9717 46.595 49.9117 44.09 51.785 42.28C53.49 40.6317 56.19 40.5983 57.9467 42.2017C59.8917 43.9767 59.865 46.4333 57.815 49.0283C58.215 49.0283 58.5567 49.0233 58.8983 49.0283C61.1233 49.0633 62.8667 50.7633 62.8867 52.9783C62.9117 55.9283 62.8983 58.88 62.8917 61.83C62.89 62.6367 62.5167 62.9983 61.695 63C57.165 63.005 52.635 63.005 48.105 63C47.2917 63 46.9267 62.63 46.925 61.815C46.92 58.885 46.9083 55.955 46.9283 53.0267C46.9433 50.775 48.6783 49.0633 50.9333 49.03C51.2633 49.025 51.5933 49.03 52.0233 49.03L52.0217 49.0283ZM60.8983 60.9767C60.8983 58.3467 60.9017 55.79 60.8983 53.2333C60.895 51.835 60.0883 51.0267 58.6933 51.025C56.1783 51.02 53.6617 51.0217 51.1467 51.025C49.7067 51.0267 48.9217 51.82 48.92 53.2717C48.9167 55.6417 48.92 58.0117 48.92 60.3817C48.92 60.58 48.9383 60.78 48.9467 60.9783H60.8983V60.9767ZM54.8717 43.04C53.5067 43.0517 52.3933 44.1967 52.415 45.565C52.4367 46.9367 53.5717 48.0417 54.9417 48.0233C56.3117 48.005 57.4167 46.87 57.4 45.4983C57.3833 44.13 56.2483 43.0283 54.8717 43.04Z" fill="white"/>
<path d="M41.9367 33.0867C41.9083 33.86 41.6267 34.435 41.0117 34.7567C40.6033 34.97 40.4917 35.24 40.5617 35.6517C40.5783 35.7533 40.5817 35.8617 40.5683 35.9633C40.4783 36.6333 40.5683 37.1417 41.2633 37.5483C41.985 37.9717 42.1383 38.96 41.725 39.7217C41.24 40.615 40.715 41.49 40.1517 42.335C39.59 43.18 38.555 43.4017 37.6117 42.8933C37.2533 42.7 36.9783 42.6417 36.6817 42.9517C36.6117 43.025 36.5167 43.0833 36.4217 43.1217C35.71 43.4167 35.235 43.805 35.1633 44.7017C35.1 45.4767 34.3 46 33.4883 46.0217C32.47 46.05 31.4517 46.05 30.4333 46.0233C29.4383 45.9967 28.6483 45.2517 28.6117 44.25C28.595 43.795 28.4367 43.5683 28.04 43.44C27.9433 43.4083 27.8467 43.3583 27.7633 43.2983C27.1617 42.86 26.605 42.6483 25.8217 43.0517C25.085 43.4317 24.2 43.0383 23.715 42.295C23.1817 41.4783 22.6733 40.6433 22.2017 39.79C21.7083 38.895 21.975 37.865 22.8633 37.3583C23.2833 37.1183 23.4067 36.8517 23.3333 36.4167C23.3067 36.255 23.305 36.0817 23.3283 35.92C23.4083 35.3433 23.2767 34.955 22.7033 34.6183C21.9167 34.1533 21.745 33.1283 22.2083 32.2983C22.6833 31.4467 23.185 30.6083 23.7217 29.7933C24.3017 28.915 25.3283 28.6883 26.3067 29.2183C26.645 29.4017 26.8983 29.455 27.1817 29.1667C27.2667 29.08 27.38 29.0117 27.4933 28.9633C28.1783 28.6733 28.6417 28.2983 28.7217 27.4317C28.7967 26.6217 29.595 26.0933 30.4317 26.0767C31.4283 26.055 32.4267 26.055 33.4233 26.0767C34.4517 26.0983 35.2433 26.8417 35.28 27.8817C35.295 28.315 35.445 28.5283 35.8217 28.6433C35.88 28.6617 35.9383 28.69 35.9883 28.725C36.6583 29.1967 37.2767 29.4833 38.1583 29.0233C38.8183 28.6783 39.5983 29.01 40.035 29.6317C40.6767 30.5467 41.2183 31.5333 41.78 32.5017C41.89 32.69 41.8967 32.9383 41.9333 33.0867H41.9367ZM39.8717 33.14C39.41 32.3783 38.985 31.675 38.59 31.0217C38.1167 31.175 37.7333 31.3617 37.3317 31.4183C36.5283 31.53 33.8567 30.0783 33.5233 29.3433C33.35 28.9617 33.31 28.5217 33.2083 28.1017H30.65C30.57 28.5067 30.5483 28.8883 30.415 29.2267C30.0817 30.0733 27.325 31.5817 26.4283 31.4067C26.0533 31.3333 25.7 31.15 25.3033 31.0033C24.88 31.7033 24.465 32.3917 24.01 33.145C25.2583 33.6333 25.4783 34.5967 25.3317 35.7583C25.2833 36.145 25.34 36.5467 25.365 36.94C25.4167 37.7183 25.1167 38.3117 24.455 38.725C24.3217 38.8083 24.1967 38.9033 24.045 39.0083C24.485 39.7317 24.9033 40.4183 25.3517 41.1533C26.4633 40.3467 27.4567 40.625 28.41 41.3667C28.54 41.4667 28.69 41.5533 28.845 41.6083C29.96 42.0117 30.7117 42.6867 30.5917 43.9833H33.3083C33.225 42.7917 33.795 42.0967 34.83 41.7133C35.08 41.62 35.3333 41.4967 35.5417 41.3317C36.4867 40.5867 37.4667 40.385 38.5483 41.1533C39 40.4033 39.4233 39.705 39.8733 38.9567C38.69 38.455 38.3867 37.565 38.5567 36.435C38.59 36.2117 38.5917 35.9733 38.5567 35.75C38.3767 34.5833 38.6383 33.635 39.8683 33.1383L39.8717 33.14Z" fill="white"/>
<path d="M14.45 53.6317C14.9717 54.1367 15.4633 54.6133 15.9667 55.1017C15.9733 55.1017 16.0283 55.1067 16.05 55.0817C17.035 53.9967 17.5917 54.25 18.4583 55.1617C19.575 56.3367 20.7467 57.4583 21.89 58.61C22.55 59.275 22.545 59.745 21.8783 60.4183C21.1617 61.1417 20.445 61.865 19.7167 62.5783C19.1233 63.1583 18.6433 63.1583 18.0467 62.5683C16.805 61.34 15.5733 60.1017 14.3383 58.8667C13.5083 58.0367 13.5067 57.7033 14.3133 56.84C14.3833 56.7667 14.4417 56.6817 14.4983 56.61C13.9817 56.105 13.48 55.615 12.9767 55.1217C8.61833 58.08 4.12167 56.01 2.325 53.3833C0.23 50.3183 0.625 46.1917 3.31833 43.6533C6.02 41.1067 10.19 40.935 13.0867 43.2C15.7733 45.3017 17.2017 49.6517 14.4483 53.63L14.45 53.6317ZM8.485 54.5567C11.5117 54.5567 13.975 52.105 13.975 49.095C13.975 46.085 11.51 43.63 8.48833 43.63C5.45333 43.63 3.005 46.0667 3.00333 49.09C3.00167 52.11 5.455 54.5567 8.485 54.555V54.5567ZM16.23 57.7767C17.1633 58.7083 18.05 59.595 18.8967 60.44C19.2183 60.155 19.5817 59.8333 19.895 59.5567C18.9583 58.6267 18.0667 57.745 17.1733 56.8583C16.875 57.15 16.5383 57.4783 16.2317 57.7767H16.23Z" fill="white"/>
<path d="M13.3217 14.07C13.7417 14.525 14.1633 14.98 14.605 15.4567C8.58333 22.16 6.65167 29.925 8.85167 38.7683C8.27 38.945 7.68 39.125 7.005 39.33C5.89 35.585 5.68833 31.815 6.28333 27.995C7.22333 21.9517 10.385 16.8267 13.3217 14.07Z" fill="white"/>
<path d="M55.2217 37.8017C57.005 29.3267 55.03 21.9167 49.2417 15.5C49.3467 15.385 49.4517 15.26 49.5667 15.1467C49.9067 14.8167 50.2517 14.4917 50.5883 14.1717C56.1933 18.595 59.585 31.2367 57.06 38.2733C56.4483 38.1167 55.835 37.96 55.2217 37.8033V37.8017Z" fill="white"/>
<path d="M24.6667 57.025C24.8817 56.32 25.06 55.73 25.2467 55.12C31.575 56.8183 37.6 56.165 43.445 53.1133C43.7517 53.6633 44.0583 54.215 44.4117 54.85C38.1033 58.1733 31.5717 58.8833 24.6667 57.025Z" fill="white"/>
<path d="M15.0017 7.06V5.14H19.915V7.06H15.0017Z" fill="white"/>
<path d="M16.9983 11.0517V9.13167H21.9117V11.0517H16.9983Z" fill="white"/>
<path d="M31.945 32.0583C34.15 32.0567 35.9417 33.8567 35.9367 36.065C35.9317 38.2417 34.1483 40.0317 31.9767 40.0417C29.7667 40.0517 27.9633 38.27 27.9533 36.065C27.9433 33.86 29.7367 32.06 31.945 32.0583ZM33.9383 36.0633C33.9467 34.975 33.065 34.075 31.9733 34.0567C30.8867 34.0383 29.9717 34.9183 29.9517 36.0033C29.93 37.1217 30.8317 38.0433 31.9467 38.0433C33.035 38.0433 33.9317 37.1533 33.94 36.065L33.9383 36.0633Z" fill="white"/>
</g>
<defs>
<clipPath id="clip0_741_5036">
<rect width="64" height="64" fill="white"/>
</clipPath>
</defs>
</svg>
