<svg width="64" height="64" viewBox="0 0 64 64" fill="none" xmlns="http://www.w3.org/2000/svg">
<g clip-path="url(#clip0_741_5022)">
<g clip-path="url(#clip1_741_5022)">
<path d="M63.9999 43.29C63.9333 43.4617 63.8616 43.63 63.7999 43.8033C63.2983 45.23 62.0166 46.1883 60.5099 46.2617C59.0699 46.3317 57.6516 45.4833 57.0699 44.1233C56.8816 43.6817 56.6583 43.55 56.1966 43.5683C55.2416 43.6067 54.2833 43.5667 53.3283 43.585C52.8299 43.595 52.4649 43.4167 52.1399 43.0367C50.7049 41.365 49.2333 39.7233 47.8133 38.0383C47.4266 37.58 47.0299 37.4167 46.4366 37.4217C42.6116 37.4483 38.7849 37.435 34.9599 37.435H34.2416V41.04H34.9566C38.7816 41.04 42.6083 41.05 46.4333 41.03C47.0249 41.0267 47.4549 41.195 47.8349 41.655C48.8399 42.8733 49.9049 44.045 50.8933 45.275C51.1433 45.5867 51.3049 46.0467 51.3283 46.4483C51.3899 47.4633 51.3599 48.485 51.3433 49.5033C51.3366 49.8567 51.4333 50.0417 51.7899 50.1967C53.5216 50.945 54.3899 52.73 53.9233 54.4883C53.4649 56.2167 51.8249 57.3967 50.1016 57.2383C48.2383 57.0667 46.8566 55.6517 46.7083 53.7617C46.5949 52.31 47.4833 50.8183 48.8966 50.2317C49.3299 50.0517 49.4316 49.825 49.4133 49.4067C49.3716 48.435 49.5966 47.3733 49.2766 46.5133C48.9633 45.67 48.0316 45.08 47.5066 44.2883C46.8199 43.2567 45.9599 42.975 44.7416 43.01C41.4799 43.1017 38.2133 43.0417 34.9499 43.0417H34.2383V47.565C35.4399 47.565 36.6216 47.625 37.7949 47.5467C38.7966 47.48 39.4916 47.785 39.8716 48.73C39.8949 48.7867 39.9383 48.835 39.9649 48.8917C40.3299 49.68 40.7433 50.1267 41.8149 50.0133C43.3983 49.845 44.8616 51.1533 45.2516 52.7267C45.6533 54.3533 44.8816 56.07 43.3999 56.845C41.9066 57.6267 40.0916 57.2883 38.9666 56.02C37.8749 54.79 37.7483 52.9917 38.6599 51.63C38.7749 51.4583 38.8999 51.295 39.0083 51.145C38.9966 51.095 38.9966 51.0733 38.9883 51.0567C38.4227 50.0833 37.5755 49.5967 36.4466 49.5967H34.1699V50.2917C34.1699 52.6417 34.1816 54.99 34.1583 57.34C34.1549 57.72 34.0716 58.13 33.9099 58.4717C31.9066 62.7117 26.5899 64.1617 22.6816 61.5667C22.4816 61.4333 22.1299 61.3433 21.9266 61.4267C16.9183 63.465 11.7999 60.49 11.1266 55.13C11.1116 55.0083 11.0949 54.885 11.0749 54.735C8.0866 54.2517 5.80327 52.7467 4.4766 49.9933C3.14994 47.24 3.3816 44.52 4.8916 41.85C2.2866 40.6033 0.628271 38.6267 0.241604 35.7333C-0.143396 32.8583 0.931604 30.5317 3.07994 28.6683C0.566604 23.6717 3.06494 18.2133 7.90994 16.54C7.1866 13.3883 7.83494 10.5483 10.1866 8.26166C12.5233 5.98999 15.3483 5.38833 18.4883 6.20333C18.8883 5.605 19.2483 4.97333 19.6966 4.41166C23.6016 -0.471671 31.3016 0.476662 33.9016 6.16333C34.0849 6.56333 34.1816 7.03666 34.1883 7.47666C34.2166 9.59666 34.2016 11.7183 34.2016 13.8383V14.5817C35.4616 14.5817 36.6616 14.59 37.8599 14.57C37.9866 14.5683 38.1416 14.4167 38.2266 14.295C38.5016 13.905 38.7499 13.4967 39.0316 13.0617C38.3266 12.1983 37.9199 11.2233 38.0883 10.0867C38.2133 9.23833 38.5916 8.50833 39.2283 7.92166C40.4966 6.75166 42.4266 6.63333 43.8283 7.63166C45.2083 8.61499 45.7266 10.45 45.0649 12.02C44.3583 13.6983 42.7133 14.505 40.6833 14.1167C40.3283 14.6867 39.9433 15.2717 39.5899 15.875C39.3316 16.3167 38.9733 16.5067 38.4633 16.5017C37.0733 16.4883 35.6849 16.4967 34.2483 16.4967V21.105C34.4699 21.1167 34.6716 21.135 34.8749 21.1367C38.5349 21.1383 42.1933 21.1333 45.8533 21.145C46.2616 21.145 46.5449 21.0367 46.8099 20.7117C47.5699 19.7767 48.3766 18.8783 49.1383 17.9433C49.2916 17.755 49.3949 17.4717 49.4033 17.2267C49.4349 16.3967 49.3833 15.5617 49.4283 14.7333C49.4549 14.2617 49.2883 14.0567 48.8649 13.8667C47.1883 13.1133 46.3833 11.2317 46.9399 9.48999C47.4749 7.81833 49.2383 6.72999 50.9433 7.02333C52.7649 7.33499 54.0866 8.89499 54.0049 10.7117C53.9366 12.215 53.1866 13.3083 51.8099 13.92C51.4633 14.075 51.3533 14.25 51.3599 14.61C51.3799 15.6283 51.4033 16.65 51.3483 17.665C51.3266 18.0483 51.1749 18.4883 50.9366 18.785C49.9199 20.0483 48.8399 21.2583 47.8049 22.5067C47.4549 22.9283 47.0533 23.09 46.5083 23.0883C42.6616 23.0717 38.8149 23.08 34.9683 23.08C34.7416 23.08 34.5166 23.08 34.2466 23.08V26.6767C34.4633 26.6883 34.6649 26.7067 34.8666 26.7067C38.8166 26.7083 42.7683 26.7017 46.7183 26.7183C47.1349 26.72 47.4049 26.585 47.6699 26.2767C49.1049 24.605 50.5766 22.9633 51.9966 21.2783C52.4433 20.75 52.9249 20.5267 53.6116 20.5633C54.5449 20.6133 55.4833 20.5933 56.4166 20.56C56.6049 20.5533 56.8783 20.3933 56.9566 20.23C57.6899 18.7 58.9716 17.82 60.4599 17.8733C62.0816 17.9317 63.2866 18.8767 63.8983 20.565C63.9183 20.6183 63.9683 20.6617 64.0049 20.7083V22.33C63.9783 22.36 63.9349 22.385 63.9249 22.42C63.4149 24.095 62.2833 25.0817 60.5433 25.1633C58.8316 25.2433 57.6316 24.3783 56.9416 22.7983C56.8766 22.6483 56.6133 22.5067 56.4366 22.5C55.6483 22.4683 54.8549 22.4483 54.0699 22.505C53.7616 22.5267 53.3833 22.6817 53.1816 22.905C51.6966 24.56 50.2316 26.2333 48.7983 27.9317C48.3549 28.4567 47.8699 28.675 47.1866 28.6717C43.1133 28.65 39.0416 28.6617 34.9683 28.6617C34.7283 28.6617 34.4899 28.6617 34.2466 28.6617V35.5133C34.5366 35.5133 34.7816 35.5133 35.0266 35.5133C39.0999 35.5133 43.1716 35.5233 47.2449 35.5033C47.8783 35.5 48.3383 35.68 48.7549 36.175C50.0949 37.7633 51.5033 39.2917 52.8266 40.895C53.3116 41.4833 53.8116 41.7583 54.5699 41.6717C55.1233 41.6083 55.6933 41.63 56.2516 41.6683C56.6883 41.6983 56.8866 41.5467 57.0616 41.135C57.6333 39.7867 59.0099 38.9383 60.4266 38.985C61.9733 39.0367 63.2366 39.9317 63.7749 41.355C63.8466 41.545 63.9283 41.73 64.0049 41.9183V43.29H63.9999ZM4.6016 27.4233C5.79327 27.3867 6.84994 27.2283 7.87494 27.35C9.36327 27.5283 10.5333 28.3683 11.3816 29.6117C11.7266 30.1167 11.6316 30.6767 11.1933 30.9967C10.7733 31.3033 10.2616 31.2233 9.8616 30.7817C9.76494 30.6733 9.68327 30.5517 9.58994 30.44C8.50494 29.155 6.74327 28.8017 5.23994 29.5683C2.77827 30.8217 1.5416 33.6767 2.34994 36.3233C2.9916 38.4233 4.42994 39.7167 6.53827 40.2833C7.28827 40.485 7.63827 40.8967 7.47327 41.4933C7.39494 41.7767 7.18327 42.035 6.99494 42.275C4.21494 45.8283 5.76994 51.0533 10.0566 52.4433C10.7316 52.6617 11.5349 52.8633 12.1816 52.6967C13.2899 52.4133 14.3566 51.8967 15.3699 51.3467C15.8233 51.1017 16.1833 50.5833 16.4449 50.1117C16.7949 49.48 17.2166 49.1517 17.7316 49.3383C18.3016 49.5467 18.5849 50.1267 18.2583 50.7833C17.9333 51.4367 17.5049 52.0817 16.9816 52.5833C16.0049 53.5167 14.7516 54.01 13.4749 54.4067C13.1166 54.5183 12.9916 54.6617 13.0416 55.0633C13.4683 58.5133 16.7166 60.8117 20.0883 59.9833C22.6933 59.3433 24.9049 56.9683 23.2749 54.13C23.0333 53.7083 23.3249 53.1383 23.7683 52.925C24.2383 52.6983 24.8149 52.8583 25.0599 53.3367C25.6716 54.5383 25.8999 55.8033 25.6316 57.1433C25.3999 58.2917 24.7983 59.2367 23.9899 60.0667C26.8649 61.8533 30.7649 60.6767 32.1199 57.65C32.2099 57.4483 32.2699 57.2133 32.2699 56.995C32.2783 49.4483 32.2799 41.9017 32.2599 34.3567C32.2599 34.1183 32.0833 33.795 31.8866 33.655C30.6883 32.805 29.4266 32.77 28.1333 33.46C27.5383 33.7767 26.9783 33.6283 26.7033 33.0967C26.4366 32.5833 26.6166 32.0933 27.2116 31.7583C28.3599 31.1133 29.5833 30.89 30.8783 31.1617C31.3333 31.2567 31.7783 31.405 32.2749 31.5417C32.2749 28.5567 32.2816 25.6267 32.2583 22.6967C32.2583 22.4983 32.0633 22.2367 31.8833 22.1133C30.6083 21.2367 29.2983 21.2283 27.9633 22.0067C27.4049 22.3317 26.8249 22.1833 26.5566 21.7017C26.2933 21.23 26.4199 20.645 26.9749 20.375C27.6566 20.0433 28.3866 19.6717 29.1183 19.6167C30.1433 19.54 31.1899 19.7383 32.2566 19.8233C32.2533 19.8567 32.2733 19.7567 32.2733 19.655C32.3049 15.6633 32.3399 11.6733 32.3549 7.68166C32.3549 7.38499 32.2566 7.06499 32.1266 6.79333C30.1133 2.57166 24.3449 1.865 21.3633 5.47666C21.0416 5.86666 20.7883 6.31166 20.4999 6.73666C23.5199 8.45333 24.6666 10.7983 24.0916 13.9183C24.0033 14.4017 23.7599 14.7233 23.2816 14.8283C22.5466 14.99 22.0316 14.3983 22.1549 13.5517C22.5599 10.7617 21.4416 9.07333 18.7083 8.35166C18.6283 8.32999 18.5549 8.28833 18.4766 8.26166C15.8883 7.36333 13.5216 7.75333 11.5649 9.69166C9.61327 11.6233 9.1466 13.9767 10.0449 16.58C10.6333 18.2817 11.6549 18.795 13.3716 18.2683C13.9283 18.0983 14.4366 18.34 14.6349 18.87C14.8283 19.3867 14.5816 19.905 14.0349 20.13C12.4216 20.795 10.5283 20.41 9.30994 19.1717C8.75772 18.6105 8.12827 18.515 7.4216 18.885C7.27494 18.9617 7.12994 19.0433 6.9866 19.13C4.11994 20.88 3.03827 24.8733 4.60327 27.4217L4.6016 27.4233ZM60.3833 23.2083C61.3249 23.195 62.0716 22.435 62.0666 21.4917C62.0616 20.5467 61.3049 19.8 60.3599 19.8033C59.3833 19.8067 58.6199 20.5817 58.6416 21.5467C58.6633 22.475 59.4449 23.2217 60.3833 23.2083ZM50.4333 12.265C51.3683 12.2517 52.1316 11.47 52.1166 10.5417C52.1016 9.61333 51.3233 8.85166 50.3916 8.85499C49.4616 8.85833 48.6783 9.63166 48.6766 10.5517C48.6749 11.51 49.4633 12.2783 50.4349 12.265H50.4333ZM41.6783 55.27C42.6116 55.2783 43.3899 54.5267 43.4083 53.595C43.4283 52.6567 42.6833 51.8817 41.7433 51.8617C40.7666 51.8417 39.9899 52.5933 39.9833 53.5633C39.9766 54.495 40.7366 55.2617 41.6783 55.27ZM50.3916 55.27C51.3533 55.2617 52.1199 54.4633 52.0949 53.4983C52.0716 52.57 51.2866 51.8417 50.3316 51.86C49.3883 51.8783 48.6433 52.65 48.6616 53.59C48.6799 54.5217 49.4583 55.2767 50.3916 55.2683V55.27ZM41.7183 12.2783C42.6616 12.265 43.4133 11.5033 43.4083 10.5667C43.4033 9.63833 42.6266 8.86333 41.7033 8.86166C40.7399 8.86166 39.9683 9.64833 39.9849 10.6133C40.0016 11.5483 40.7749 12.2917 41.7183 12.2783ZM62.0366 42.5817C62.0233 41.6383 61.2666 40.9067 60.3133 40.9167C59.3733 40.9267 58.6266 41.685 58.6299 42.6283C58.6333 43.6033 59.4083 44.35 60.3866 44.3217C61.3399 44.2933 62.0499 43.545 62.0349 42.5833L62.0366 42.5817Z" fill="white"/>
<path d="M25.6831 42.51C23.0248 42.4467 20.5648 40.7834 20.1031 37.455C20.0281 36.915 20.4381 36.425 20.9798 36.3567C21.5531 36.285 22.0031 36.6934 22.0814 37.36C22.2698 38.9567 23.3731 40.1817 24.9381 40.4917C25.2998 40.5634 25.6814 40.5384 26.0548 40.5434C26.7098 40.55 27.1598 40.9067 27.1848 41.45C27.2081 41.97 26.8264 42.3667 26.2064 42.46C26.0014 42.49 25.7931 42.5017 25.6814 42.5134L25.6831 42.51Z" fill="white"/>
<path d="M17.4752 23.86C19.7636 23.935 21.2469 24.6433 22.3436 26.1033C22.8052 26.7167 22.7869 27.2783 22.3219 27.65C21.8769 28.005 21.2819 27.86 20.8252 27.2867C19.6302 25.79 17.9252 25.4183 16.2086 26.2817C15.5936 26.59 15.0336 26.4533 14.7652 25.9267C14.5086 25.4217 14.6752 24.8483 15.2802 24.6C16.1319 24.2517 17.0252 24.0067 17.4752 23.8583V23.86Z" fill="white"/>
<path d="M13.9235 37.9184C13.8318 39.5034 14.7902 40.9184 16.3185 41.47C16.5685 41.56 16.8368 41.6467 17.0418 41.8034C17.4352 42.105 17.5168 42.5367 17.3068 42.975C17.0985 43.41 16.7368 43.6067 16.2318 43.5034C13.5868 42.96 11.6068 40.1434 12.0252 37.5084C12.1402 36.7834 12.5068 36.4484 13.1118 36.5167C13.7102 36.5834 14.0002 37.01 13.9402 37.7317C13.9352 37.7934 13.9285 37.855 13.9218 37.9167L13.9235 37.9184Z" fill="white"/>
</g>
</g>
<defs>
<clipPath id="clip0_741_5022">
<rect width="64" height="64" fill="white"/>
</clipPath>
<clipPath id="clip1_741_5022">
<rect width="64" height="64" fill="white"/>
</clipPath>
</defs>
</svg>
