<svg width="64" height="64" viewBox="0 0 64 64" fill="none" xmlns="http://www.w3.org/2000/svg">
<g clip-path="url(#clip0_741_5037)">
<path d="M29.0617 15.0517H35.0217V14.0833C34.4317 14.0833 33.8367 14.09 33.2417 14.0833C32.4267 14.0717 32.0651 13.7133 32.0584 12.8983C32.0501 11.6917 32.0501 10.485 32.0584 9.27999C32.0634 8.46333 32.4251 8.10999 33.2417 8.09666C33.8034 8.08666 34.3634 8.08499 34.9251 8.07833C34.9417 8.07833 34.9584 8.05833 35.0501 8.00333C35.0501 7.82999 35.0501 7.60833 35.0501 7.38666C35.0584 6.44333 35.3884 6.10166 36.3184 6.09999C38.1684 6.09666 40.0201 6.12499 41.8701 6.08499C42.5434 6.06999 43.2367 5.97833 43.8801 5.78499C47.6951 4.63499 51.5001 3.44499 55.3067 2.26999C56.4901 1.90499 57.0067 2.27999 57.0084 3.50666C57.0084 5.00333 57.0084 6.49999 57.0084 8.09666C57.3501 8.09666 57.6734 8.09166 57.9951 8.09666C59.6967 8.12833 61.0117 9.45166 61.0001 11.115C60.9884 12.75 59.6801 14.0467 58.0051 14.0833C57.6967 14.09 57.3884 14.0833 57.0451 14.0833V15.0833C57.6851 15.0833 58.3051 15.0767 58.9234 15.0833C60.7067 15.105 61.9951 16.375 61.9967 18.1617C62.0034 28.7483 62.0034 39.3333 61.9967 49.92C61.9967 51.7633 60.7001 53.0167 58.8184 53.0183C51.4984 53.0233 44.1784 53.02 36.8601 53.02H36.0851V56.015C37.7851 56.015 39.4634 56.015 41.1434 56.015C42.9217 56.015 43.0351 56.13 43.0351 57.93C43.0351 58.8667 43.0384 59.8017 43.0351 60.7383C43.0301 61.645 42.6884 62.0033 41.8051 62.0033C35.2967 62.0067 28.7884 62.0067 22.2784 62.0033C21.4317 62.0033 21.0801 61.6367 21.0767 60.775C21.0701 59.59 21.0701 58.4033 21.0767 57.2183C21.0817 56.3717 21.4417 56.02 22.3051 56.0167C24.1951 56.0117 26.0851 56.0167 28.0184 56.0167V53.0217C27.7717 53.0217 27.5301 53.0217 27.2867 53.0217C20.0501 53.0217 12.8134 53.0217 5.57673 53.0217C3.28007 53.0217 2.1084 51.86 2.1084 49.5867C2.1084 39.23 2.1084 28.8717 2.1084 18.515C2.1084 16.26 3.27673 15.0867 5.5184 15.085C6.01507 15.085 6.51173 15.085 7.0984 15.085C7.0984 14.835 7.0984 14.615 7.0984 14.3967C7.0984 11.735 7.0984 9.07166 7.0984 6.40999C7.0984 5.43166 7.4284 5.10166 8.4084 5.10166C14.8551 5.10166 21.3001 5.10166 27.7467 5.10166C28.7251 5.10166 29.0551 5.43333 29.0567 6.41166C29.0601 9.05333 29.0567 11.695 29.0567 14.335V15.0533L29.0617 15.0517ZM60.0067 47.0017V46.4333C60.0067 37.095 60.0067 27.7567 60.0067 18.4183C60.0067 18.2733 60.0184 18.125 59.9951 17.9817C59.9167 17.4683 59.6167 17.1267 59.1001 17.095C58.4234 17.0533 57.7417 17.085 57.0117 17.085C57.0117 17.64 57.0117 18.135 57.0117 18.6283C57.0101 19.9017 56.5034 20.275 55.2901 19.9017C51.3434 18.6833 47.3984 17.4567 43.4467 16.2567C42.9684 16.1117 42.4467 16.1017 41.9234 16.0267C41.6217 18.095 41.3401 20.0483 41.0534 22.0017C40.9401 22.7717 40.6217 23.06 39.8634 23.0667C38.9901 23.075 38.1167 23.075 37.2434 23.0667C36.4234 23.0583 36.0617 22.7017 36.0534 21.8883C36.0451 20.89 36.0517 19.8917 36.0517 18.8933C36.0517 18.3 36.0517 17.705 36.0517 17.1283H29.0634C29.0634 18.6767 29.0634 20.1733 29.0634 21.67C29.0634 22.7683 28.7601 23.0667 27.6517 23.0667C21.5801 23.0667 15.5084 23.0667 9.43673 23.0667C9.02007 23.0667 8.60507 23.0767 8.1884 23.0633C7.49173 23.04 7.13007 22.67 7.10507 21.9667C7.09507 21.6767 7.1034 21.385 7.1034 21.0933C7.1034 19.77 7.1034 18.4467 7.1034 17.0767C6.53507 17.0767 6.04007 17.0767 5.54507 17.0767C4.39673 17.0767 4.1084 17.3633 4.1084 18.51C4.1084 27.785 4.1084 37.0617 4.1084 46.3367V47H60.0084L60.0067 47.0017ZM9.12673 21.03H27.0167V7.12666H9.12673V21.0283V21.03ZM60.0067 49.0667H4.15007C3.99173 50.7467 4.2384 51.025 5.86007 51.025C23.3634 51.025 40.8667 51.025 58.3717 51.025C58.5584 51.025 58.7467 51.0317 58.9334 51.0233C59.6001 50.9917 59.9717 50.6333 60.0051 49.9783C60.0201 49.69 60.0067 49.4017 60.0067 49.0683V49.0667ZM54.9784 17.7167V4.46333C51.3034 5.59666 47.6801 6.71499 44.0534 7.83166V14.3433C47.6784 15.4617 51.3034 16.58 54.9784 17.715V17.7167ZM23.1201 58.0383V59.96H41.0067V58.0383H23.1201ZM37.0801 8.11999V14.0483H41.9984V8.11999H37.0801ZM34.0067 55.9917V53.0517H30.0967V55.9917H34.0067ZM38.0867 16.1117V21.035H39.1784C39.4167 19.3833 39.6484 17.765 39.8867 16.1117H38.0867ZM57.0384 12.0733C57.7267 12.0533 58.4717 12.3133 58.8467 11.5617C58.9834 11.2883 58.9584 10.7967 58.7967 10.535C58.3851 9.86666 57.6817 10.1217 57.0367 10.11V12.0733H57.0384ZM34.0801 12.0417H35.0251V10.125H34.0801V12.0417Z" fill="white"/>
<path d="M20.0216 45.0334C15.8416 45.0334 11.6616 45.0334 7.48165 45.0334C6.41665 45.0334 6.10498 44.7234 6.10498 43.665C6.10498 38.59 6.10498 33.515 6.10498 28.44C6.10498 27.3734 6.41331 27.0634 7.47165 27.0634C15.8733 27.0634 24.2733 27.0634 32.675 27.0634C33.74 27.0634 34.0533 27.3734 34.0533 28.43C34.0533 33.505 34.0533 38.58 34.0533 43.655C34.0533 44.72 33.7416 45.0334 32.685 45.0334C28.4633 45.0334 24.2416 45.0334 20.0216 45.0334ZM8.12165 42.9934H32.0166V29.9C31.765 30.0467 31.5683 30.155 31.3783 30.2717C27.93 32.3934 24.4733 34.5017 21.0416 36.6517C20.345 37.0884 19.7983 37.075 19.1083 36.6417C15.6616 34.48 12.1866 32.36 8.72165 30.2267C8.54165 30.1167 8.35331 30.0217 8.12165 29.8934V42.995V42.9934ZM29.4516 29.11H10.715C13.6333 30.905 16.44 32.5984 19.205 34.3584C19.8566 34.7734 20.305 34.7767 20.96 34.3617C23.725 32.6017 26.5316 30.9084 29.4516 29.1117V29.11Z" fill="white"/>
<path d="M39.045 39.0434C38.3667 39.0434 37.7667 39.0534 37.1667 39.04C36.4333 39.0234 36.055 38.6534 36.0533 37.9134C36.0467 34.005 36.0467 30.0984 36.0533 26.19C36.0533 25.45 36.4317 25.07 37.17 25.0684C43.0717 25.0617 48.975 25.0617 54.8767 25.0684C55.6417 25.0684 56.0033 25.4517 56.0117 26.235C56.0217 27.1467 56.0133 28.0584 56.0133 29.0584C56.3083 29.0584 56.5683 29.0534 56.8283 29.0584C57.64 29.0734 58.005 29.43 58.0067 30.2467C58.0133 32.3667 58.0083 34.4867 58.01 36.6067C58.01 38.3317 58.0133 40.0567 58.01 41.7817C58.0067 42.6784 57.6583 43.0317 56.7667 43.0317C51.28 43.035 45.7933 43.035 40.3067 43.0317C39.385 43.0317 39.05 42.6817 39.0467 41.7367C39.0433 40.8667 39.0467 39.995 39.0467 39.04L39.045 39.0434ZM55.9867 31.1017H41.09V41.0084H55.9867V31.1017ZM39.045 37.0367V36.3784C39.045 34.4034 39.045 32.43 39.045 30.455C39.045 29.3567 39.345 29.0617 40.455 29.0617C44.735 29.0617 49.015 29.0617 53.295 29.0617C53.5167 29.0617 53.74 29.0617 53.9767 29.0617V27.1067H38.09V37.0367H39.0433H39.045Z" fill="white"/>
<path d="M15.0883 14.0383C15.0883 13.1033 15.0766 12.1667 15.0916 11.2317C15.1066 10.275 15.7983 9.84165 16.6633 10.2667C18.5833 11.2083 20.5016 12.1517 22.39 13.1533C22.6966 13.3167 23.0233 13.7783 23.02 14.0983C23.0166 14.4183 22.6783 14.8667 22.3683 15.03C20.4966 16.02 18.5966 16.9533 16.695 17.8867C15.7666 18.3417 15.0983 17.9 15.09 16.8467C15.0816 15.9117 15.0883 14.975 15.09 14.04L15.0883 14.0383ZM19.84 14.08C18.855 13.5883 18.01 13.1683 17.1233 12.725V15.4433C18.0266 14.99 18.8683 14.5667 19.84 14.08Z" fill="white"/>
<path d="M47.0581 35.005V33.0867H53.9881V35.005H47.0581Z" fill="white"/>
<path d="M53.9818 39.015H49.0718V37.0867H53.9818V39.015Z" fill="white"/>
<path d="M43.085 37.0717H46.995V39.0133H43.085V37.0717Z" fill="white"/>
<path d="M45.0001 35.0217H43.0801V33.0917H45.0001V35.0217Z" fill="white"/>
</g>
<defs>
<clipPath id="clip0_741_5037">
<rect width="64" height="64" fill="white"/>
</clipPath>
</defs>
</svg>
