<svg width="64" height="64" viewBox="0 0 64 64" fill="none" xmlns="http://www.w3.org/2000/svg">
<g clip-path="url(#clip0_741_5033)">
<g clip-path="url(#clip1_741_5033)">
<path d="M0 21.2066C0.285 20.9766 0.541667 20.6966 0.858333 20.5266C2.01167 19.9083 3.18167 19.3233 4.35 18.735C5.2 18.3066 5.71667 18.485 6.10333 19.345C6.68333 20.6316 7.25833 21.9216 7.82667 23.2133C8.15333 23.955 8.005 24.46 7.40167 24.7416C6.77167 25.035 6.29333 24.8066 5.93833 24.0333C5.70333 23.525 5.47667 23.0116 5.245 22.5016C5.22833 22.465 5.19833 22.435 5.12333 22.3316C5.00167 22.6333 4.89 22.89 4.79667 23.1516C3.935 25.5816 3.05 28.02 2.88333 30.61C2.56167 35.5916 3.59833 40.3366 5.83 44.7816C9.81167 52.7116 16.11 57.9066 24.645 60.3516C27.235 61.0933 29.8967 61.41 32.595 61.3766C32.8867 61.3733 33.1767 61.3633 33.4683 61.3666C34.1617 61.3766 34.555 61.735 34.5683 62.36C34.5817 62.9883 34.2067 63.3683 33.51 63.3966C30.8167 63.51 28.15 63.2933 25.5217 62.69C13.0817 59.8416 3.77833 50.1916 1.27 37.6583C0.231667 32.47 0.875 27.4966 2.79167 22.6283C2.88333 22.3966 2.96167 22.16 3.04333 21.925C3.05667 21.8883 3.055 21.8466 3.07167 21.7166C2.635 21.9316 2.24 22.125 1.84667 22.32C0.885 22.8 0.558333 22.7133 0.00166667 21.8283C0.00166667 21.62 0.00166667 21.4116 0.00166667 21.205L0 21.2066Z" fill="white"/>
<path d="M44.0502 63.9999C42.7119 63.3883 41.3736 62.7766 40.0369 62.1633C39.0969 61.7316 38.9286 61.1616 39.4902 60.2833C40.2269 59.1283 40.9636 57.9716 41.7152 56.8249C42.1169 56.2149 42.6669 56.0983 43.2019 56.4683C43.6636 56.7866 43.7936 57.2733 43.5352 57.7766C43.4319 57.9783 43.2936 58.1633 43.1752 58.3583C43.0602 58.5449 42.9502 58.7333 42.8386 58.9216C42.8769 58.9749 42.9136 59.0283 42.9519 59.0816C44.4652 58.2383 46.0352 57.4816 47.4802 56.5366C54.5219 51.9316 59.2819 45.6483 61.1919 37.3816C62.4102 32.1016 61.8769 26.8999 60.1119 21.8049C60.0369 21.5899 59.9519 21.3766 59.8869 21.1583C59.7069 20.5483 59.9469 20.0516 60.5052 19.8583C61.0836 19.6583 61.5752 19.8699 61.8086 20.4766C62.8769 23.2433 63.4969 26.1116 63.7769 29.0649C65.0752 42.7433 56.0052 55.6133 43.7352 60.8816C43.5252 60.9716 43.3186 61.0649 42.9936 61.2066C43.4886 61.4399 43.8836 61.6916 44.3169 61.8183C45.4269 62.1433 45.7486 63.1533 44.6769 63.9999H44.0536H44.0502Z" fill="white"/>
<path d="M41.6802 46.8267C39.7352 47.6417 37.8502 48.4334 35.9635 49.2251L35.8068 49.0701C35.8068 49.3534 35.8068 49.6351 35.8068 49.9184C35.8068 50.8534 35.8185 51.7901 35.8018 52.7251C35.7885 53.4234 35.4152 53.8417 34.7318 53.8517C33.0268 53.8767 31.3202 53.8767 29.6152 53.8517C28.9252 53.8417 28.5668 53.4351 28.5585 52.7267C28.5452 51.6667 28.5702 50.6051 28.5385 49.5451C28.5335 49.3617 28.3585 49.0617 28.2068 49.0234C26.2802 48.5267 24.4718 47.7667 22.7868 46.6817C21.9568 47.5067 21.1485 48.3134 20.3368 49.1167C19.6618 49.7834 19.1552 49.7817 18.4735 49.1001C17.3702 47.9967 16.2702 46.8917 15.1752 45.7817C14.5402 45.1384 14.5335 44.6434 15.1685 44.0117C15.9918 43.1917 16.8335 42.3917 17.5218 41.7234C16.6585 39.6267 15.8635 37.6984 15.0352 35.6851C14.0652 35.6851 12.9435 35.6884 11.8218 35.6851C10.8585 35.6817 10.4968 35.3267 10.4935 34.3734C10.4885 32.8134 10.4885 31.2551 10.4935 29.6951C10.4968 28.7701 10.8502 28.4084 11.7718 28.3967C12.7702 28.3834 13.7685 28.4101 14.7668 28.3767C14.9552 28.3701 15.2685 28.1984 15.3035 28.0501C15.7718 26.1151 16.5418 24.3101 17.6752 22.5051C16.8818 21.7384 16.0718 20.9701 15.2785 20.1867C14.4952 19.4134 14.5002 18.9834 15.2802 18.1934C16.3335 17.1284 17.3868 16.0651 18.4452 15.0051C19.1802 14.2684 19.6518 14.2734 20.4002 15.0201C21.0768 15.6967 21.7568 16.3684 22.4168 17.0617C22.6502 17.3067 22.8235 17.3884 23.1485 17.1817C24.6852 16.2017 26.3535 15.5217 28.1252 15.1017C28.4535 15.0234 28.5635 14.8834 28.5585 14.5534C28.5418 13.5134 28.5452 12.4734 28.5552 11.4351C28.5635 10.5801 28.9168 10.2317 29.7768 10.2284C31.3785 10.2217 32.9802 10.2217 34.5818 10.2284C35.4218 10.2317 35.7952 10.6051 35.8035 11.4501C35.8152 12.5734 35.8102 13.6951 35.8135 14.8184C35.8135 14.8584 35.8318 14.8984 35.8368 14.9217C36.8835 15.2851 37.9352 15.6034 38.9502 16.0167C39.6968 16.3201 40.4202 16.7051 41.1035 17.1317C41.4985 17.3784 41.7002 17.3067 41.9852 17.0017C42.6385 16.3034 43.3252 15.6367 44.0035 14.9617C44.6818 14.2884 45.1818 14.2917 45.8685 14.9767C46.9718 16.0801 48.0718 17.1851 49.1668 18.2951C49.7918 18.9284 49.7952 19.4317 49.1785 20.0684C48.4835 20.7851 47.7835 21.4967 47.0668 22.1917C46.8102 22.4417 46.7218 22.6317 46.9418 22.9801C47.9018 24.5034 48.5702 26.1567 48.9785 27.9067C49.0685 28.2951 49.2335 28.4051 49.6085 28.3967C50.5852 28.3767 51.5635 28.3817 52.5402 28.3934C53.4835 28.4051 53.8285 28.7417 53.8352 29.6684C53.8452 31.2484 53.8452 32.8284 53.8352 34.4101C53.8285 35.3367 53.4718 35.6801 52.5402 35.6851C51.4185 35.6901 50.2968 35.6851 49.3002 35.6851C48.4802 37.6834 47.6902 39.6101 46.8285 41.7151C47.4885 42.3567 48.3118 43.1451 49.1202 43.9484C49.8085 44.6334 49.8085 45.1267 49.1368 45.8101C48.0418 46.9217 46.9452 48.0301 45.8418 49.1317C45.2052 49.7667 44.6602 49.7601 44.0152 49.1284C43.2002 48.3301 42.3902 47.5284 41.6802 46.8284V46.8267ZM17.1552 19.2284C17.9802 20.0334 18.7768 20.7917 19.5535 21.5701C20.1018 22.1184 20.1468 22.5401 19.7102 23.1751C18.4218 25.0517 17.5668 27.1017 17.1568 29.3417C16.9968 30.2184 16.6935 30.4384 15.7918 30.4401C14.7385 30.4417 13.6835 30.4401 12.6035 30.4401V33.6267C13.6852 33.6267 14.7418 33.6217 15.7968 33.6267C16.7102 33.6317 16.9968 33.8467 17.1602 34.7351C17.5668 36.9534 18.4068 38.9867 19.6835 40.8467C20.1602 41.5401 20.1135 41.9501 19.5068 42.5501C18.7418 43.3084 17.9618 44.0517 17.2302 44.7601C18.0302 45.5534 18.7568 46.2767 19.4935 47.0084C20.2368 46.2734 21.0235 45.5034 21.7985 44.7234C22.2335 44.2867 22.7135 44.1284 23.2468 44.5051C25.2135 45.8917 27.3752 46.7967 29.7452 47.2184C30.3052 47.3184 30.5935 47.7051 30.5935 48.2867C30.5935 49.0967 30.5935 49.9084 30.5935 50.7184C30.5935 51.0617 30.5935 51.4051 30.5935 51.7501H33.7318C33.7318 50.6417 33.7252 49.5651 33.7335 48.4901C33.7402 47.6367 34.0068 47.3101 34.8218 47.1634C37.0018 46.7734 38.9968 45.9417 40.8185 44.6851C41.6518 44.1101 41.9718 44.1501 42.7068 44.8851C43.4368 45.6151 44.1668 46.3484 44.8435 47.0251C45.6118 46.2734 46.3335 45.5667 47.1468 44.7701C46.4468 44.0984 45.7218 43.4184 45.0152 42.7217C44.1602 41.8801 44.1385 41.6167 44.7968 40.6384C45.8535 39.0717 46.6485 37.3734 47.0052 35.5234C47.4102 33.4284 47.6235 33.6251 49.4168 33.6217C50.1952 33.6217 50.9752 33.6217 51.7418 33.6217V30.4351C50.6252 30.4351 49.5468 30.4384 48.4702 30.4351C47.6652 30.4317 47.3235 30.1634 47.1868 29.3784C46.7985 27.1551 45.9585 25.1201 44.6868 23.2567C44.1768 22.5101 44.2052 22.1367 44.8452 21.5084C45.6135 20.7551 46.4085 20.0267 47.1302 19.3467C46.2818 18.5101 45.5535 17.7917 44.8285 17.0751C44.1585 17.7401 43.4335 18.4551 42.7118 19.1734C41.9718 19.9084 41.6418 19.9401 40.7652 19.3401C39.0102 18.1401 37.0968 17.3217 35.0018 16.9367C33.9418 16.7417 33.7318 16.4784 33.7302 15.3801C33.7285 14.3667 33.7302 13.3534 33.7302 12.3201H30.5918C30.5918 13.3834 30.5918 14.4001 30.5918 15.4167C30.5918 16.4834 30.3885 16.7434 29.3635 16.9317C27.2485 17.3217 25.3185 18.1517 23.5452 19.3601C22.7085 19.9301 22.3535 19.8984 21.6485 19.1917C20.9068 18.4484 20.1685 17.7017 19.4418 16.9701C18.6752 17.7251 17.9652 18.4234 17.1535 19.2234L17.1552 19.2284Z" fill="white"/>
<path d="M57.9116 12.2067C57.9116 11.885 57.8982 11.4967 57.9149 11.1117C57.9432 10.4883 58.2916 10.1267 58.8699 10.095C59.4882 10.06 59.9432 10.3967 59.9616 11.03C60.0082 12.5667 60.0149 14.1067 60.0016 15.645C59.9966 16.2267 59.6032 16.625 59.0016 16.635C57.3599 16.6633 55.7166 16.665 54.0749 16.63C53.4432 16.6167 53.1099 16.16 53.1499 15.5383C53.1866 14.965 53.5532 14.6117 54.1782 14.6C55.0649 14.585 55.9516 14.5967 57.0016 14.5967C56.4316 13.9217 55.9782 13.34 55.4782 12.8C50.1099 7.01 43.5516 3.315 35.6966 2.43833C24.9999 1.245 16.1749 5.025 9.27323 13.285C9.15323 13.4283 9.04657 13.585 8.91657 13.7183C8.50157 14.14 7.9699 14.1617 7.5199 13.7867C7.08823 13.4267 6.98157 12.9167 7.32823 12.4583C7.84157 11.78 8.3799 11.115 8.95657 10.49C14.5649 4.395 21.4816 0.908329 29.7432 0.246662C38.5316 -0.456671 46.2366 2.385 53.0749 7.755C54.7832 9.09666 56.2866 10.6983 57.9116 12.205V12.2067Z" fill="white"/>
<path d="M40.8249 32.0284C40.8299 36.8384 36.9665 40.7534 32.1982 40.77C27.4232 40.7867 23.4832 36.8217 23.5015 32.0184C23.5199 27.2134 27.4049 23.32 32.1765 23.3234C36.9599 23.325 40.8182 27.21 40.8249 32.0284ZM32.1599 38.69C35.7982 38.695 38.7599 35.7334 38.7849 32.0667C38.8082 28.4017 35.7915 25.3567 32.1549 25.375C28.5165 25.3934 25.5799 28.37 25.5765 32.0417C25.5749 35.71 28.5215 38.685 32.1599 38.69Z" fill="white"/>
</g>
</g>
<defs>
<clipPath id="clip0_741_5033">
<rect width="64" height="64" fill="white"/>
</clipPath>
<clipPath id="clip1_741_5033">
<rect width="64" height="64" fill="white"/>
</clipPath>
</defs>
</svg>
