<svg width="64" height="64" viewBox="0 0 64 64" fill="none" xmlns="http://www.w3.org/2000/svg">
<g clip-path="url(#clip0_741_5025)">
<g clip-path="url(#clip1_741_5025)">
<path d="M63.9998 17.4667C63.8565 17.8967 63.7498 18.3433 63.5665 18.7567C62.8365 20.3967 61.5315 21.3383 59.7482 21.75V22.4883C59.7482 28.205 59.7482 33.9233 59.7482 39.64C59.7482 41.6467 58.9465 42.7183 57.0065 43.2567C54.2465 44.0217 51.4832 44.77 48.7198 45.525C48.5032 45.585 48.2882 45.6483 48.0298 45.7233V46.415C48.0298 50.6983 48.0298 54.98 48.0298 59.2633C48.0298 62.12 46.2632 63.8767 43.3948 63.8767C35.8282 63.8767 28.2598 63.8767 20.6932 63.8767C17.8682 63.8767 16.0965 62.1067 16.0948 59.2883C16.0932 55.005 16.0948 50.7233 16.0948 46.44V45.7117C14.2382 45.1983 12.4048 44.69 10.5698 44.185C9.36983 43.855 8.16817 43.5283 6.96817 43.1983C5.23817 42.7233 4.37983 41.6 4.37817 39.7917C4.3765 34.0333 4.37817 28.2733 4.37817 22.515C4.37817 22.2683 4.37817 22.0233 4.37817 21.78C4.04983 21.6733 3.77317 21.5917 3.5015 21.4967C0.584834 20.4617 -0.761833 17.1167 0.7315 14.4067C1.91483 12.2617 3.2015 10.1717 4.49983 8.095C4.7115 7.75833 5.19483 7.50667 5.6015 7.38833C12.1615 5.49667 18.7298 3.635 25.2948 1.76C27.3032 1.18167 29.3065 0.586667 31.3132 0C31.8115 0 32.3115 0 32.8098 0C32.8598 0.035 32.9048 0.085 32.9598 0.1C41.0132 2.39167 49.0682 4.675 57.1198 6.97333C59.8565 7.755 59.1215 7.155 60.5448 9.60167C61.7565 11.6883 63.2915 13.6067 63.9998 15.9667V17.4633V17.4667ZM18.2198 46.2933C18.2198 50.6383 18.2198 54.9833 18.2198 59.3283C18.2198 60.9083 19.0648 61.75 20.6498 61.75C28.2582 61.7517 35.8665 61.7517 43.4748 61.75C45.0582 61.75 45.9048 60.9067 45.9048 59.3283C45.9065 50.66 45.9048 41.9917 45.9048 33.3217C45.9048 31.7 45.0798 30.8717 43.4432 30.87C35.8548 30.8667 28.2682 30.8667 20.6798 30.87C19.0415 30.87 18.2198 31.6967 18.2182 33.3217C18.2165 37.645 18.2182 41.97 18.2182 46.2933H18.2198ZM9.46317 8.505C9.65317 8.57333 9.70817 8.59833 9.76483 8.61333C17.0782 10.6617 24.3882 12.715 31.7065 14.7433C32.0182 14.83 32.4032 14.7633 32.7265 14.6733C38.9632 12.9417 45.1982 11.1967 51.4315 9.45C52.4665 9.16 53.4965 8.86 54.6498 8.53C54.4415 8.435 54.3715 8.39167 54.2948 8.37C47.1515 6.33333 40.0115 4.28833 32.8598 2.28167C32.3515 2.13833 31.7315 2.15667 31.2198 2.3C24.6665 4.13667 18.1232 6.00833 11.5782 7.87333C10.9082 8.06333 10.2432 8.27 9.46483 8.50333L9.46317 8.505ZM33.7098 16.62C33.8365 16.84 33.9365 17.02 34.0415 17.1967C35.2382 19.1917 36.4332 21.1867 37.6315 23.1817C38.5365 24.6867 39.6915 25.16 41.3782 24.6883C47.4132 23 53.4482 21.3067 59.4815 19.6083C61.7032 18.9833 62.4948 17.0117 61.3248 15.0317C60.3832 13.44 59.4182 11.8633 58.4915 10.2633C58.2632 9.86833 58.0532 9.79167 57.6065 9.91667C51.7148 11.5817 45.8165 13.22 39.9198 14.8683C37.8632 15.4433 35.8082 16.0267 33.7082 16.62H33.7098ZM30.4365 16.6233C29.0615 16.2367 27.7848 15.875 26.5065 15.5167C19.8532 13.655 13.1965 11.8 6.54817 9.92C6.0715 9.785 5.84983 9.885 5.61317 10.2967C4.67817 11.915 3.69817 13.5067 2.7565 15.1217C1.65817 17.0017 2.46483 18.9883 4.55817 19.5917C5.69483 19.9183 6.83483 20.235 7.97317 20.5533C12.9682 21.9517 17.9632 23.3517 22.9615 24.7417C24.2432 25.0983 25.4948 24.7333 26.1632 23.6733C27.6132 21.3733 28.9865 19.0267 30.4382 16.625L30.4365 16.6233ZM33.1715 28.735C33.4448 28.735 33.6865 28.735 33.9298 28.735C37.1315 28.735 40.3332 28.7233 43.5348 28.7383C46.2465 28.7517 48.0232 30.5483 48.0282 33.2467C48.0332 35.305 48.0282 37.3633 48.0282 39.4217C48.0282 40.75 48.0282 42.0783 48.0282 43.46C48.2565 43.4133 48.4348 43.385 48.6082 43.3383C51.2115 42.6283 53.8132 41.9183 56.4148 41.2017C57.4415 40.9183 57.6198 40.6767 57.6198 39.6283C57.6198 34.0983 57.6198 28.5683 57.6198 23.0383C57.6198 22.84 57.6198 22.64 57.6198 22.385C57.3582 22.45 57.1798 22.49 57.0015 22.5383C51.9448 23.95 46.8898 25.3667 41.8315 26.775C39.3948 27.4533 37.1998 26.575 35.8882 24.415C35.5098 23.7933 35.1398 23.1683 34.7648 22.545C34.2682 21.7183 33.7682 20.8933 33.2698 20.0683C33.2365 20.0817 33.2032 20.0933 33.1682 20.1067V28.7367L33.1715 28.735ZM30.9548 20.105C30.9148 20.0983 30.8748 20.0917 30.8348 20.085C29.9915 21.4917 29.1515 22.9017 28.3048 24.3067C26.9165 26.6117 24.7682 27.4633 22.1765 26.74C17.1798 25.3433 12.1832 23.9433 7.18483 22.5483C6.9765 22.49 6.76483 22.45 6.5565 22.4033C6.5265 22.5167 6.5065 22.5567 6.5065 22.5967C6.50317 28.3767 6.49817 34.1567 6.50483 39.9367C6.50483 40.6383 6.79483 40.96 7.5165 41.1583C9.01817 41.57 10.5182 41.9833 12.0198 42.3917C13.3548 42.755 14.6932 43.1117 16.0898 43.4883V42.7333C16.0898 39.635 16.0898 36.5383 16.0898 33.44C16.0898 30.4883 17.8265 28.74 20.7682 28.7367C23.9082 28.7333 27.0465 28.7367 30.1865 28.7367C30.4298 28.7367 30.6732 28.7367 30.9515 28.7367V20.1067L30.9548 20.105Z" fill="white"/>
<path d="M36.2885 38.315C34.6051 38.315 32.9218 38.3183 31.2385 38.315C30.4201 38.3133 29.9618 37.9433 29.9435 37.2917C29.9235 36.6183 30.4118 36.1933 31.2385 36.1917C34.6268 36.1867 38.0135 36.1867 41.4018 36.1917C42.2418 36.1917 42.7068 36.6017 42.6885 37.2917C42.6718 37.955 42.2318 38.3133 41.4018 38.315C39.6968 38.32 37.9935 38.315 36.2885 38.315Z" fill="white"/>
<path d="M36.3199 55.37C38.0033 55.37 39.6866 55.3667 41.3699 55.37C42.2383 55.3717 42.6899 55.7383 42.6899 56.4233C42.6899 57.1033 42.2216 57.4933 41.3699 57.495C37.9833 57.4983 34.5949 57.495 31.2083 57.4983C30.7166 57.4983 30.2449 57.38 30.0849 56.8933C29.9816 56.5783 29.9716 56.0833 30.1549 55.8633C30.3799 55.5933 30.8433 55.4017 31.2099 55.3917C32.9133 55.3433 34.6183 55.37 36.3216 55.37H36.3199Z" fill="white"/>
<path d="M36.3636 48.9767C38.0669 48.9767 39.7719 48.9684 41.4752 48.98C42.2269 48.985 42.6486 49.345 42.6869 49.955C42.7236 50.5217 42.3936 50.9667 41.8202 51.0633C41.5169 51.115 41.2002 51.105 40.8886 51.105C37.7936 51.1084 34.6969 51.1067 31.6019 51.105C31.4152 51.105 31.2269 51.1133 31.0419 51.0983C30.3519 51.0417 29.9219 50.6 29.9452 49.99C29.9686 49.4033 30.3919 48.99 31.0669 48.9833C32.8336 48.965 34.5986 48.9767 36.3652 48.9767H36.3636Z" fill="white"/>
<path d="M36.2399 44.7033C34.5982 44.7033 32.9566 44.7067 31.3149 44.7033C30.4099 44.7017 29.9316 44.3217 29.9416 43.6317C29.9532 42.9517 30.4432 42.5767 31.3482 42.5767C34.6732 42.5733 37.9982 42.5733 41.3216 42.5767C42.1149 42.5767 42.5549 42.8617 42.6682 43.4167C42.8132 44.1333 42.3449 44.6917 41.5366 44.6983C39.7699 44.715 38.0049 44.7033 36.2382 44.705L36.2399 44.7033Z" fill="white"/>
<path d="M23.58 36.835C24.335 36.0634 25.055 35.3167 25.7883 34.5817C26.395 33.9734 26.9966 33.9167 27.4766 34.4C27.9566 34.8834 27.895 35.4784 27.2883 36.0917C26.3666 37.0217 25.4416 37.9484 24.51 38.87C23.8033 39.5684 23.295 39.5634 22.5933 38.8717C22.3416 38.6234 22.0883 38.3767 21.845 38.12C21.355 37.6084 21.31 37.015 21.7166 36.5667C22.1533 36.085 22.735 36.0917 23.315 36.5867C23.3783 36.64 23.4366 36.6984 23.5816 36.8334L23.58 36.835Z" fill="white"/>
<path d="M23.5969 55.9833C24.3719 55.1917 25.1302 54.4017 25.9086 53.63C26.3852 53.1583 26.9719 53.1267 27.4136 53.5083C27.8886 53.9183 27.9419 54.565 27.4719 55.0517C26.4336 56.1267 25.3752 57.1817 24.3036 58.2233C23.8452 58.6683 23.2719 58.6533 22.7936 58.2267C22.4536 57.9217 22.1352 57.5933 21.8219 57.2617C21.3486 56.76 21.3186 56.1383 21.7319 55.705C22.1452 55.2717 22.7369 55.28 23.2886 55.7267C23.3669 55.79 23.4436 55.8567 23.5969 55.9833Z" fill="white"/>
<path d="M23.59 43.2216C24.3467 42.445 25.065 41.6966 25.7967 40.9633C26.395 40.3633 27.0167 40.31 27.485 40.795C27.955 41.28 27.8867 41.8766 27.28 42.4883C26.3584 43.4166 25.4334 44.345 24.5034 45.265C23.7967 45.9633 23.3 45.9566 22.59 45.255C22.3384 45.0066 22.085 44.76 21.8417 44.505C21.3534 43.9933 21.3084 43.4 21.7167 42.9533C22.145 42.485 22.7467 42.495 23.32 42.98C23.3834 43.0333 23.4434 43.09 23.59 43.2233V43.2216Z" fill="white"/>
<path d="M23.5933 49.5983C24.365 48.81 25.085 48.0633 25.8183 47.33C26.375 46.7733 27.0116 46.7183 27.4633 47.16C27.9516 47.6383 27.8983 48.2466 27.3016 48.85C26.3666 49.7933 25.4283 50.735 24.4833 51.6683C23.7983 52.345 23.3033 52.3383 22.615 51.6633C22.3633 51.4166 22.11 51.17 21.8666 50.915C21.3533 50.3816 21.305 49.7633 21.735 49.3166C22.15 48.885 22.7467 48.8916 23.295 49.3383C23.3733 49.4016 23.4483 49.47 23.595 49.5966L23.5933 49.5983Z" fill="white"/>
</g>
</g>
<defs>
<clipPath id="clip0_741_5025">
<rect width="64" height="64" fill="white"/>
</clipPath>
<clipPath id="clip1_741_5025">
<rect width="64" height="64" fill="white"/>
</clipPath>
</defs>
</svg>
