<svg width="64" height="64" viewBox="0 0 64 64" fill="none" xmlns="http://www.w3.org/2000/svg">
<g clip-path="url(#clip0_741_5012)">
<path d="M28.6933 64C28.4283 63.6033 28.1033 63.2333 27.9067 62.805C27.1983 61.265 26.5483 59.6967 25.8367 58.1567C25.6567 57.7683 25.3533 57.4317 25.0733 57.0983C24.0083 55.8317 23.9283 55.8533 22.3567 56.3383C19.8983 57.095 17.4333 57.8317 14.95 58.4967C12.7533 59.085 10.8333 57.96 10.09 55.8083C9.64833 54.53 9.58667 53.2567 9.90333 51.9483C10.1883 50.77 10.075 50.5233 9.045 49.9183C7.57167 49.0517 7.38667 48.5417 7.97 46.865C7.72833 46.6683 7.47333 46.4617 7.22 46.2533C6.46667 45.6267 6.32167 45.13 6.695 44.2267C6.89167 43.7483 7.16 43.3 7.395 42.8383C7.94167 41.7617 7.81833 41.3567 6.78 40.78C6.23667 40.4783 5.68 40.1917 5.16 39.8517C3.60833 38.835 3.29333 37.5 4.30833 35.9583C5.10667 34.745 6.07167 33.6383 6.83833 32.4083C7.87833 30.7367 8.78833 28.985 9.78 27.2817C10.055 26.81 9.945 26.4633 9.59 26.1283C9.34833 25.9 9.10667 25.6717 8.85667 25.4533C7.58333 24.3383 7.175 23.0033 7.88 21.48C8.90667 19.26 9.43833 16.8933 10.1783 14.5867C12.23 8.19167 16.375 3.90833 23 2.20667C27.2167 1.12333 31.495 0.411667 35.8367 0.163333C41.755 -0.175 47.05 1.65167 51.8583 5.02167C53.5967 6.24 55.2883 7.51 56.6867 9.13167C59.2333 12.0817 60.4867 15.5683 60.9983 19.37C61.3317 21.8483 61.5067 24.33 61.1717 26.825C60.81 29.515 59.7983 31.945 58.2417 34.155C57.5483 35.14 56.8267 36.105 56.105 37.07C53.6633 40.3383 52.32 43.9983 52.43 48.0883C52.53 51.8083 53.245 55.43 54.7683 58.8533C55.0533 59.4933 55.4617 60.08 55.8033 60.6967C56.1033 61.24 56.4317 61.775 56.6683 62.3467C57.0317 63.2217 56.5733 63.8967 55.6267 63.905C53.4233 63.9267 51.22 63.9233 49.0167 63.9367C48.7717 63.9367 48.525 63.9817 48.28 64.005H28.6933V64ZM53.905 61.795C53.5433 61.1267 53.2 60.5617 52.9217 59.9667C51.55 57.0383 50.8917 53.92 50.485 50.7317C49.8783 45.9833 50.715 41.5383 53.2933 37.4817C54.2283 36.0117 55.3033 34.6283 56.315 33.2083C57.56 31.4633 58.4983 29.5767 58.8917 27.4567C59.5633 23.83 59.1583 20.2517 58.2833 16.7133C57.4667 13.415 55.7133 10.6817 53.05 8.585C51.6333 7.47 50.1433 6.42833 48.6033 5.49167C44.6617 3.095 40.3617 2 35.7467 2.29C32.2167 2.51333 28.73 3.06 25.2767 3.83C22.87 4.36667 20.5283 5.08167 18.4567 6.45667C15.1717 8.64 13.2517 11.8167 12.1133 15.5067C11.515 17.4467 11.1517 19.4517 10.2483 21.3033C9.395 23.0533 9.45 23.08 10.9 24.3833C12.095 25.4567 12.415 26.8567 11.6517 28.25C10.555 30.25 9.41333 32.23 8.21833 34.1733C7.6 35.1783 6.83833 36.0967 6.12167 37.04C5.80167 37.4617 5.82 37.7733 6.29667 38.0417C6.85667 38.3567 7.405 38.6933 7.96667 39.0083C9.81833 40.0483 10.33 41.68 9.39667 43.5983C9.20833 43.985 9.00167 44.365 8.80167 44.7517C9.33167 45.2083 9.90667 45.5783 10.3133 46.085C10.865 46.7733 10.125 47.335 9.90667 47.9183C10.3067 48.1833 10.6767 48.38 10.99 48.645C12.1217 49.5983 12.325 50.845 12.015 52.2117C11.7983 53.1633 11.7433 54.09 12.07 55.0333C12.4833 56.23 13.3417 56.7083 14.59 56.41C19.6483 55.1967 24.5083 53.3667 29.3967 51.6317C30.32 51.3033 31.1817 50.7533 32.005 50.2033C32.7317 49.7183 33.1867 49.01 33.2317 48.0683C33.265 47.3883 33.72 47 34.3133 47.0217C34.9283 47.0433 35.3367 47.5033 35.335 48.195C35.3317 49.84 34.4583 51.0133 33.2267 51.9667C31.9967 52.92 30.585 53.5233 29.1233 54.0217C28.1333 54.36 27.1433 54.7033 26.08 55.07C27.875 57.095 29.0967 59.3383 29.8133 61.7917H53.9017L53.905 61.795Z" fill="white"/>
<path d="M57.135 23.7317C57.13 26.6883 56.475 29.4317 54.6233 31.7933C54.1667 32.3767 53.5633 32.8433 53.045 33.38C52.065 34.3917 51.0317 35.36 50.1383 36.445C49.0367 37.7817 48.5167 39.3617 48.5283 41.12C48.5383 42.51 48.27 43.87 47.5233 45.055C47.1233 45.69 46.5833 46.2767 45.9933 46.74C45.2883 47.2917 44.2717 46.8133 44.3317 45.9367C44.4733 43.8717 43.3033 42.6083 41.865 41.455C41.4433 41.1167 41.025 40.7733 40.59 40.4533C38.5033 38.92 37.7333 36.7917 37.8783 34.2967C37.9317 33.3717 38.1417 32.45 38.3433 31.54C38.4183 31.2017 38.3733 31.0033 38.1233 30.7867C37.7767 30.4883 37.4383 30.1767 37.13 29.84C35.3267 27.87 33.0383 27.0767 30.4467 27.2867C27.5717 27.52 24.715 27.9717 21.8417 28.2267C20.635 28.3333 19.3733 28.3467 18.1917 28.1167C15.4817 27.59 13.615 25.5283 13.4067 22.53C13.0383 17.2133 14.6983 12.5733 18.71 8.93667C20.4 7.405 22.535 6.695 24.7033 6.16167C28.4417 5.24167 32.2383 4.63667 36.08 4.41C41.105 4.11333 45.5567 5.76167 49.6067 8.63833C51.185 9.76 52.7283 10.9117 53.9267 12.47C55.5867 14.6283 56.385 17.115 56.7483 19.7617C56.9283 21.0767 57.01 22.4067 57.1367 23.7283L57.135 23.7317ZM54.8017 21.43C54.4683 18.4333 53.9333 15.6417 51.7567 13.2733C51.7567 13.66 51.7683 13.8833 51.755 14.1067C51.65 15.8083 50.2583 17.165 48.6333 17.1517C48.0433 17.1467 47.6 16.7917 47.525 16.2633C47.4417 15.6783 47.765 15.21 48.3583 15.0667C48.48 15.0367 48.6033 15.0217 48.7267 15.0017C49.2183 14.9217 49.56 14.6167 49.5917 14.1483C49.6533 13.2583 49.625 12.3633 49.625 11.47C49.625 11.3967 49.5833 11.2967 49.5267 11.255C48.89 10.7867 48.2467 10.3283 47.505 9.795C47.505 10.5267 47.515 11.0867 47.5033 11.6467C47.4867 12.4383 47.075 12.8933 46.4083 12.88C45.765 12.8683 45.39 12.4333 45.38 11.66C45.37 10.7867 45.3917 9.91333 45.3667 9.04167C45.3617 8.845 45.2767 8.55 45.135 8.475C43.55 7.64167 41.8733 7.07167 40.0883 6.79667V9.71667C40.4233 9.71667 40.7117 9.71 41 9.71667C41.7067 9.73667 42.15 10.1333 42.1633 10.7483C42.1767 11.3783 41.7083 11.8183 40.9817 11.8383C40.4417 11.8533 39.9 11.8433 39.36 11.8417C38.2567 11.8383 37.9183 11.4967 37.9183 10.3817C37.9183 9.12 37.9183 7.85833 37.9183 6.56833H35.81C35.7383 7.40833 36.0333 8.48 34.8367 8.59167C33.5233 8.71333 33.695 7.59333 33.6383 6.72333C32.8933 6.83 32.225 6.925 31.5733 7.01833C31.4783 8.13833 31.2283 8.53667 30.6117 8.615C29.9683 8.69667 29.625 8.38167 29.2933 7.355C27.565 7.72667 25.83 8.10167 24.0783 8.47833C24.0783 9.33333 24.05 10.08 24.0867 10.8233C24.1167 11.4233 24.505 11.74 25.0883 11.8367C25.8833 11.97 26.2833 12.42 26.185 13.0567C26.0883 13.6817 25.515 14.04 24.7683 13.9433C23.1617 13.7367 21.985 12.425 21.9517 10.7983C21.9417 10.3567 21.9517 9.91333 21.9517 9.395C19.8 10.365 18.455 11.96 17.4117 13.8833C17.505 13.9267 17.54 13.9567 17.575 13.9567C18.24 13.9617 18.905 13.96 19.57 13.965C20.4117 13.9717 20.8767 14.365 20.8617 15.0517C20.8467 15.7117 20.3917 16.0833 19.5767 16.0867C18.5183 16.0917 17.46 16.0867 16.3217 16.0867C15.9967 17.49 15.6783 18.8667 15.3383 20.3383C15.82 20.3383 16.1283 20.3417 16.4367 20.3383C17.2283 20.3267 17.5667 20.035 17.6983 19.26C17.8167 18.5633 18.27 18.1583 18.8583 18.2233C19.475 18.2917 19.87 18.835 19.8117 19.5333C19.6767 21.1567 18.35 22.4117 16.7083 22.46C16.3417 22.4717 15.975 22.46 15.5233 22.46C15.7917 23.8967 16.3483 25.01 17.6483 25.695C17.78 25.0383 18.1167 24.585 18.7717 24.615C19.7367 24.66 19.8267 25.435 19.8683 26.2433C23.77 25.8167 27.6183 25.3983 31.495 24.975C31.665 23.8917 31.935 23.5033 32.6233 23.5633C33.7983 23.6667 33.6317 24.6183 33.6917 25.3833C36.4667 26.3467 36.8067 26.5917 38.94 28.6283C39.9233 29.5667 40.9983 30.4067 42.1183 31.365C42.15 31.1083 42.165 31.03 42.17 30.95C42.3067 29.0333 43.59 27.8183 45.5033 27.805C46.48 27.7983 47.4567 27.7967 48.435 27.8067C49.155 27.815 49.6417 28.2667 49.6267 28.8833C49.6117 29.4767 49.14 29.9117 48.455 29.925C47.7283 29.94 46.9983 29.96 46.2733 29.9233C44.305 29.8217 44.2583 30.4167 44.2867 31.9767C44.2933 32.335 44.41 32.48 44.745 32.5767C46.5733 33.1033 48.4233 33.1783 50.2033 32.5267C52.38 31.7317 53.625 30.025 54.35 27.8033C54.065 27.8033 53.86 27.8033 53.655 27.8033C53.4267 27.8033 53.1967 27.8083 52.9683 27.8033C52.2317 27.78 51.7683 27.365 51.7683 26.7333C51.7683 26.0883 52.2117 25.6917 52.9683 25.68C53.585 25.67 54.2033 25.6783 54.8783 25.6783V23.55C54.52 23.55 54.2117 23.55 53.9017 23.55C53.5683 23.55 53.235 23.5633 52.9033 23.545C52.2067 23.5083 51.7667 23.0833 51.7683 22.4717C51.7683 21.8483 52.1983 21.4433 52.9083 21.425C53.5067 21.41 54.1067 21.4217 54.8 21.4217L54.8017 21.43ZM40.2867 32.6533C40.22 32.675 40.1533 32.6967 40.0867 32.7183C40.0683 33.6983 39.9833 34.6817 40.0467 35.6567C40.1217 36.8 40.6567 37.7667 41.555 38.495C43.2083 39.835 44.9733 41.0583 46.0983 43.0017C46.2617 42.28 46.385 41.575 46.4117 40.865C46.4833 38.8817 47.03 37.065 48.1983 35.4467C48.2733 35.3417 48.32 35.2167 48.4067 35.0467C45.3483 35.305 42.6817 34.45 40.2883 32.655L40.2867 32.6533Z" fill="white"/>
<path d="M36.8267 14.33C36.8267 14.6 36.85 14.8717 36.8217 15.1383C36.7633 15.685 36.3617 16.0583 35.8417 16.0867C35.3283 16.115 34.8617 15.78 34.7683 15.2433C34.7017 14.86 34.7283 14.4583 34.7117 14.0667C34.68 13.305 34.3217 12.9267 33.5533 12.8967C32.9317 12.8733 32.3083 12.8767 31.6867 12.895C30.8633 12.9183 30.4817 13.315 30.4583 14.1367C30.4483 14.4683 30.4717 14.8017 30.4417 15.1317C30.3933 15.6667 29.9817 16.0667 29.4633 16.0833C28.92 16.1 28.5517 15.825 28.3867 15.315C27.955 13.9717 28.5633 12.155 29.7 11.355C30.93 10.4883 34.2667 10.4883 35.4933 11.355C36.4317 12.0183 36.84 12.9183 36.8283 14.3317L36.8267 14.33Z" fill="white"/>
<path d="M21.9533 19.8483C21.9533 17.785 22.8083 16.51 24.5017 16.18C25.1033 16.0633 25.745 16.085 26.3617 16.1217C26.8883 16.1533 27.2617 16.6383 27.265 17.1517C27.2683 17.6883 26.87 18.1517 26.3117 18.205C25.94 18.24 25.5633 18.205 25.19 18.2233C24.5117 18.2567 24.1183 18.6517 24.0783 19.3217C24.0717 19.4467 24.0767 19.5717 24.0767 19.6967C24.0733 21.1833 24.3133 21.4233 25.815 21.43C25.94 21.43 26.065 21.4267 26.1883 21.435C26.81 21.475 27.2317 21.8683 27.26 22.4317C27.2883 22.9917 26.895 23.4683 26.2933 23.54C23.2217 23.905 21.7567 22.04 21.95 19.85L21.9533 19.8483Z" fill="white"/>
<path d="M43.5333 20.3417C41.8667 20.3383 40.6517 19.5383 40.2017 18.1467C39.7717 16.8167 40.2567 15.3733 41.3933 14.5533C42.3667 13.8517 43.475 13.8917 44.57 14.0217C45.0967 14.0833 45.3617 14.535 45.36 15.0733C45.3567 15.585 44.9517 16.0217 44.4217 16.075C44.0517 16.1133 43.6733 16.08 43.3 16.095C42.63 16.1217 42.1617 16.58 42.1767 17.1783C42.19 17.7583 42.64 18.1867 43.2833 18.215C43.615 18.23 43.95 18.205 44.2817 18.2233C44.92 18.26 45.3683 18.7067 45.37 19.2833C45.37 19.8633 44.92 20.3067 44.2833 20.3383C44.035 20.3517 43.785 20.34 43.535 20.34L43.5333 20.3417Z" fill="white"/>
<path d="M33.6683 17.2333C33.6683 17.3167 33.6617 17.4 33.6683 17.4833C33.8717 19.82 32.52 21.6533 29.5467 21.4283C28.8083 21.3717 28.3367 20.9733 28.335 20.3533C28.335 19.73 28.8017 19.2683 29.545 19.3083C31.5367 19.415 31.6 18.7133 31.5417 17.2483C31.5267 16.8533 31.5267 16.4583 31.5483 16.0633C31.5817 15.4767 31.9767 15.0783 32.525 15.045C33.1 15.01 33.55 15.3867 33.6517 15.9867C33.6583 16.0283 33.6633 16.07 33.6633 16.11C33.6633 16.485 33.6633 16.8583 33.6633 17.2333C33.6633 17.2333 33.665 17.2333 33.6667 17.2333H33.6683Z" fill="white"/>
<path d="M49.635 21.5633C49.635 21.875 49.645 22.1867 49.635 22.4983C49.57 24.2483 48.3067 25.56 46.5683 25.6733C46.175 25.6983 45.7767 25.7 45.3833 25.6733C44.7433 25.6317 44.3017 25.1767 44.305 24.6017C44.31 24.0183 44.7517 23.5917 45.4 23.56C45.7117 23.545 46.0233 23.5667 46.335 23.5517C47.08 23.5133 47.4783 23.12 47.5033 22.3717C47.525 21.7283 47.4983 21.0833 47.5133 20.4383C47.53 19.7317 47.9367 19.3067 48.565 19.3067C49.185 19.3067 49.6 19.7383 49.6317 20.4417C49.6483 20.815 49.635 21.19 49.6333 21.5633H49.635Z" fill="white"/>
<path d="M39.3767 24.6C36.7083 24.71 35.4417 22.7383 35.8317 20.0983C35.9083 19.5833 36.41 19.2617 36.945 19.3133C37.5283 19.3683 37.8417 19.725 37.9067 20.2817C37.9483 20.6517 37.9083 21.0283 37.9267 21.4017C37.9583 22.0483 38.3433 22.4317 38.9883 22.4667C39.2983 22.4833 39.6117 22.4633 39.9233 22.475C40.6533 22.5033 41.1117 22.9333 41.0983 23.5683C41.085 24.1833 40.645 24.575 39.9383 24.5983C39.7517 24.605 39.565 24.5983 39.3783 24.6H39.3767Z" fill="white"/>
</g>
<defs>
<clipPath id="clip0_741_5012">
<rect width="64" height="64" fill="white"/>
</clipPath>
</defs>
</svg>
