<svg width="64" height="64" viewBox="0 0 64 64" fill="none" xmlns="http://www.w3.org/2000/svg">
<g clip-path="url(#clip0_741_5029)">
<g clip-path="url(#clip1_741_5029)">
<path d="M52.8966 55.0167C52.8966 56.04 52.9032 56.9733 52.8966 57.9067C52.8716 60.825 50.7215 62.995 47.8049 62.9967C33.8982 63.005 19.9899 63.005 6.08321 62.9967C3.17155 62.995 1.00655 60.815 1.00321 57.8967C0.994881 48.0433 0.999881 38.19 1.00155 28.3367C1.00155 27.41 1.34821 27.075 2.29321 27.0733C4.49488 27.07 6.69655 27.0733 8.98488 27.0733V26.3217C8.98488 18.4017 8.98488 10.4817 8.98488 2.56167C8.98488 1.41333 9.27155 1.125 10.4165 1.125C24.0949 1.125 37.7732 1.125 51.4515 1.125C52.6249 1.125 52.8982 1.40667 52.8982 2.61C52.8982 13.15 52.8982 23.6883 52.8982 34.2283C52.8982 34.475 52.8982 34.7233 52.8982 35.0583H53.5882C56.2499 35.0583 58.9099 35.0583 61.5715 35.0583C62.5482 35.0583 62.8782 35.39 62.8782 36.37C62.8799 42.1483 62.8799 47.9283 62.8782 53.7067C62.8782 54.6833 62.5449 55.0167 61.5682 55.0167C58.9282 55.02 56.2882 55.0167 53.6482 55.0167C53.4232 55.0167 53.1982 55.0167 52.8982 55.0167H52.8966ZM10.9782 3.14333V4.00167C10.9782 21.8583 10.9749 39.715 10.9849 57.5717C10.9849 58.7267 10.7699 59.7967 10.1282 60.7667C10.0915 60.8233 10.0915 60.9033 10.0665 61.005C10.3615 61.005 10.6115 61.005 10.8599 61.005C20.4432 61.005 30.0265 61.005 39.6099 61.005C42.3532 61.005 45.0982 61.0133 47.8415 61.0017C49.3932 60.995 50.6866 59.9683 50.8449 58.4717C50.9649 57.3483 50.8682 56.2017 50.8682 55.1733C50.2665 55.005 49.5699 55.0067 49.2299 54.66C48.8916 54.3117 48.9099 53.615 48.7682 53.055C46.6699 52.8667 46.3366 52.9283 44.4732 53.865C43.8615 54.1717 43.2565 54.4983 42.6299 54.7717C42.3165 54.9083 41.9582 55.0083 41.6199 55.01C37.7749 55.0267 33.9282 55.025 30.0832 55.0183C28.2165 55.015 26.9532 53.7483 26.9499 51.8817C26.9432 47.995 26.9432 44.1067 26.9499 40.22C26.9532 38.3183 28.2149 37.0617 30.1199 37.0567C32.1565 37.0517 34.1949 37.0567 36.2315 37.0567H36.9299C36.9299 35.0017 36.9165 33.03 36.9332 31.0583C36.9482 29.285 38.0616 27.7483 39.7349 27.2783C40.3415 27.1083 41.0049 27.1017 41.6432 27.085C42.5749 27.06 42.9132 27.42 42.9149 28.3617C42.9182 29.9617 42.9032 31.5633 42.9282 33.1633C42.9315 33.4217 43.0382 33.74 43.2132 33.9233C44.1449 34.9017 45.1116 35.8467 46.0732 36.795C46.1849 36.905 46.3382 37.0383 46.4765 37.0433C47.2782 37.0667 48.0799 37.055 48.8732 37.055C48.9499 35.8683 49.6138 35.1822 50.8649 34.9967V3.14333H10.9782ZM48.8599 50.995V39.05C47.9432 39.05 47.0682 39.1033 46.2032 39.0267C45.7882 38.99 45.3066 38.8067 45.0066 38.5283C43.8366 37.4367 42.7449 36.2617 41.5865 35.1583C41.0949 34.69 40.8899 34.1883 40.9082 33.51C40.9499 32.0417 40.9215 30.57 40.9215 29.1033C39.6815 29.0617 38.9065 30.1917 38.9182 31.1133C38.9432 33.255 38.9265 35.3967 38.9249 37.5383C38.9249 38.78 38.6599 39.05 37.4415 39.05C35.0082 39.05 32.5765 39.0467 30.1432 39.0517C29.3965 39.0517 28.9965 39.3833 28.9515 40.035C28.9282 40.3583 28.9482 40.6833 28.9482 41.0733H36.8949V43.0567H28.9949V45.0633H36.8866V47.0467H28.9832V49.0533H36.8982V51.0367H28.9932C28.8249 52.7383 29.0782 53.0233 30.6965 53.0233C33.9615 53.0233 37.2249 53.0067 40.4899 53.035C41.3015 53.0417 42.0466 52.9383 42.7416 52.5C44.5415 51.36 46.4732 50.725 48.6366 51.0233C48.6949 51.0317 48.7582 51.01 48.8632 50.995H48.8599ZM2.99321 29.0917C2.99321 29.3417 2.99321 29.5267 2.99321 29.7117C2.99321 39.0617 2.99321 48.41 2.99321 57.76C2.99321 57.905 2.99155 58.0517 2.99988 58.1967C3.09155 59.75 4.39821 60.9917 5.95488 61.0067C7.68488 61.0233 8.97988 59.6733 8.97988 57.825C8.98321 48.4333 8.98155 39.0433 8.97988 29.6517C8.97988 29.4717 8.95821 29.2917 8.94655 29.0917H2.99321ZM60.8532 37.0867H50.9399V52.9767H60.8532V37.0867Z" fill="white"/>
<path d="M43.8918 11.3583C43.5751 17.3183 41.0201 22.7649 36.0901 27.0583C34.6635 28.2999 33.1885 29.4833 31.7418 30.7016C31.2701 31.0983 30.7718 31.2349 30.2818 30.8049C28.0318 28.8366 25.6351 27.0016 23.5935 24.8349C20.2751 21.3133 18.5218 16.9933 18.0768 12.1633C18.0185 11.5233 17.9801 10.8783 17.9718 10.2349C17.9635 9.49994 18.3451 9.10327 19.0801 9.11161C23.2401 9.15827 26.9701 7.93494 30.2585 5.37827C30.7718 4.97994 31.2435 5.07827 31.7285 5.45494C34.1235 7.31494 36.8235 8.47827 39.8251 8.90994C40.6251 9.02494 41.4368 9.07827 42.2451 9.09827C43.7335 9.13661 43.9301 9.31994 43.8901 11.3583H43.8918ZM31.0035 28.7116C31.8335 28.0233 32.6785 27.2899 33.5568 26.5999C36.3768 24.3833 38.6668 21.7416 40.1351 18.4383C41.1635 16.1233 41.7601 13.7066 41.8818 11.1533C41.7751 11.1316 41.6968 11.1033 41.6185 11.0999C37.8335 10.9166 34.3718 9.77494 31.2701 7.58827C30.9418 7.35661 30.7618 7.49827 30.5135 7.66994C28.5668 9.01994 26.4485 10.0166 24.1368 10.5333C22.7885 10.8349 21.4068 10.9933 19.8968 11.2399C20.1468 12.5983 20.3318 14.0149 20.6735 15.3933C22.1435 21.3233 26.2218 25.2616 31.0035 28.7133V28.7116Z" fill="white"/>
<path d="M24.1516 29.285C24.6933 29.8617 25.115 30.3117 25.6016 30.8284C24.8983 31.5317 24.175 32.2934 23.4083 33.0084C23.0566 33.3367 22.9383 33.6784 22.945 34.1484C22.9683 36.0167 22.9566 37.8867 22.9533 39.7567C22.9516 40.6967 22.6116 41.0417 21.685 41.0434C19.1933 41.0467 16.7 41.0484 14.2083 41.0434C13.3233 41.0417 12.9783 40.6867 12.9766 39.785C12.9733 37.2934 12.9733 34.8 12.9766 32.3084C12.9766 31.415 13.3283 31.07 14.225 31.0684C16.635 31.065 19.0466 31.0084 21.4516 31.0984C22.295 31.13 22.8566 30.9034 23.335 30.275C23.5866 29.9467 23.86 29.635 24.15 29.2867L24.1516 29.285ZM15.0133 33.0917V39.0017H20.92V35.42C20.1283 36.245 19.4616 36.945 18.7883 37.64C18.3816 38.06 17.8666 38.26 17.4066 37.8484C16.6733 37.1917 16.0233 36.4417 15.3533 35.745C15.7866 35.295 16.2166 34.85 16.7733 34.2734C17.14 34.7584 17.4883 35.2184 17.7916 35.6217C18.7233 34.7 19.5366 33.8967 20.35 33.09H15.0133V33.0917Z" fill="white"/>
<path d="M24.1518 41.2617C24.6918 41.8384 25.1152 42.2884 25.6002 42.805C24.9268 43.4784 24.2385 44.2167 23.4935 44.8934C23.0718 45.2784 22.9285 45.685 22.9402 46.2484C22.9752 48.075 22.9552 49.9034 22.9518 51.7317C22.9502 52.6717 22.6102 53.0184 21.6835 53.0184C19.1918 53.0217 16.6985 53.0234 14.2068 53.0184C13.3202 53.0167 12.9752 52.6617 12.9752 51.7601C12.9718 49.2684 12.9718 46.7751 12.9752 44.2834C12.9752 43.3901 13.3252 43.0434 14.2235 43.0417C16.6335 43.0384 19.0452 42.9817 21.4502 43.0717C22.2918 43.1034 22.8552 42.8784 23.3352 42.2501C23.5852 41.9217 23.8618 41.6117 24.1518 41.2617ZM20.9168 50.9967V47.4267C20.1335 48.2334 19.4602 48.9317 18.7835 49.6251C18.3952 50.0234 17.8852 50.24 17.4535 49.8517C16.7102 49.18 16.0618 48.4017 15.4085 47.7067C15.8085 47.28 16.2302 46.83 16.7568 46.2684C17.1485 46.7384 17.5152 47.1817 17.8135 47.5384C18.7102 46.6551 19.5235 45.8517 20.3068 45.0801H15.0168V50.9967H20.9152H20.9168Z" fill="white"/>
<path d="M30.9001 10.0167C31.2001 10.1701 31.4818 10.2601 31.6984 10.4334C33.8134 12.1201 36.1934 13.0584 38.9184 13.1101C39.6618 13.1234 40.0284 13.6967 39.8601 14.4651C39.1518 17.7034 37.6018 20.4751 35.1734 22.7317C34.0468 23.7767 32.8518 24.7467 31.6868 25.7517C31.2584 26.1217 30.7701 26.2401 30.3318 25.8517C28.7001 24.4067 27.0018 23.0217 25.5051 21.4451C23.6718 19.5117 22.5934 17.1234 22.0268 14.5134C21.8384 13.6434 22.2168 13.1234 23.0934 13.1017C25.6768 13.0351 27.9584 12.1617 29.9884 10.5801C30.2584 10.3701 30.5734 10.2167 30.9001 10.0167ZM24.2451 15.0317C25.2801 18.9334 27.9734 21.4334 30.9451 23.7067C33.9318 21.3984 36.6284 18.9017 37.6201 15.0317C35.1184 14.7417 32.9184 13.8467 30.9401 12.3551C28.9534 13.8501 26.7534 14.7451 24.2451 15.0317Z" fill="white"/>
</g>
</g>
<defs>
<clipPath id="clip0_741_5029">
<rect width="64" height="64" fill="white"/>
</clipPath>
<clipPath id="clip1_741_5029">
<rect width="64" height="64" fill="white"/>
</clipPath>
</defs>
</svg>
