<svg width="64" height="64" viewBox="0 0 64 64" fill="none" xmlns="http://www.w3.org/2000/svg">
<path d="M11.6981 57.7508C11.4802 57.7508 11.2804 57.769 11.0806 57.7508C9.17343 57.5329 8.18354 55.8437 8.792 53.8458C9.19159 52.5471 10.0453 51.5572 11.0261 50.6763C11.5437 50.204 12.1068 49.7772 12.6789 49.2959C10.2451 45.5179 9.5821 41.4403 10.6901 37.1084C11.5165 33.9117 13.2783 31.2871 15.8484 29.2074C21.0158 25.0208 29.0894 24.4396 35.2013 29.5888C38.4979 25.4113 42.8025 23.2953 48.1516 23.5496C52.2837 23.7494 55.7711 25.4658 58.5409 28.5354C64.226 34.8289 63.6539 44.8277 56.7609 50.3675C59.4219 52.6924 60.9112 55.7438 62.0918 58.9859C62.1917 59.2493 62.2462 59.5308 62.3098 59.8033C62.4551 60.439 62.1917 61.0202 61.6741 61.1928C61.111 61.3926 60.4935 61.1201 60.2301 60.5207C59.9304 59.8578 59.6852 59.1766 59.3855 58.5228C58.4774 56.543 57.4602 54.6268 55.9618 53.0103C55.8528 52.8922 55.7438 52.7741 55.6258 52.6651C54.7539 51.8387 54.763 51.8569 53.6823 52.311C53.3281 52.4563 52.8468 52.6288 52.5653 52.5017C52.2292 52.3473 51.9114 51.9114 51.8115 51.53C51.6843 51.0486 52.0294 50.6763 52.4654 50.422C53.4098 49.8589 54.4179 49.3504 55.2716 48.6693C59.3038 45.4544 60.9476 40.1326 59.5218 35.1468C58.1232 30.27 53.8821 26.601 48.7782 26.0652C43.9922 25.5566 40.0508 27.2458 37.0721 31.0691C36.9722 31.1963 36.8904 31.3325 36.8087 31.4506C40.741 36.6816 41.3767 42.2395 38.6523 48.2152C40.0599 49.5229 41.6946 50.4583 43.5382 51.0395C43.7107 51.094 43.8923 51.1304 44.0558 51.1939C44.7006 51.421 45.0366 52.0294 44.8459 52.6107C44.6552 53.1737 44.074 53.4462 43.4201 53.2736C41.3495 52.7106 39.4787 51.7661 37.8258 50.4038C37.6987 50.3039 37.5716 50.204 37.4444 50.0951C36.5726 51.0123 35.7098 51.9205 34.9106 52.765C35.9823 53.8639 37.1992 54.8901 38.1255 56.1343C39.2516 57.6419 40.1598 59.3129 41.1043 60.9476C41.5039 61.6287 41.2587 62.337 40.6684 62.6095C40.0781 62.8729 39.4242 62.5913 39.0973 61.8739C38.0075 59.5127 36.5998 57.3694 34.6654 55.6076C34.3658 55.3351 34.0297 55.1081 33.7391 54.8266C33.1216 54.2363 32.5313 54.0819 31.7321 54.6086C30.9602 55.1172 30.2518 54.9083 29.9249 54.2726C29.5979 53.646 29.9067 53.0284 30.7513 52.6107C34.3839 50.8216 36.7088 47.9518 37.7078 44.0376C39.5423 36.845 34.5383 29.4435 27.1822 28.4173C20.1077 27.4365 13.7778 32.0863 12.6335 39.1063C11.6255 45.3363 15.5578 51.5027 21.7242 53.3281C21.9149 53.3826 22.1147 53.428 22.2963 53.5097C22.814 53.7459 23.0501 54.3634 22.8594 54.8901C22.6778 55.3805 22.1147 55.6984 21.588 55.5349C20.7434 55.2716 19.9079 54.981 19.0905 54.654C18.7727 54.5269 18.6001 54.5269 18.3095 54.7721C17.6011 55.3624 16.811 55.8437 16.0845 56.4068C15.5305 56.8245 14.8585 57.2059 14.5225 57.769C13.7596 59.0586 13.133 60.4299 12.5245 61.8012C12.1249 62.6821 11.235 62.9455 10.6083 62.2826C10.2541 61.9011 10.2087 61.4652 10.3994 60.993C10.8263 59.9304 11.2531 58.877 11.7072 57.7508L11.6981 57.7508ZM13.9776 50.9851C12.9968 52.0476 11.9978 53.0829 11.0715 54.1818C10.8626 54.4361 10.7718 54.9991 10.9171 55.2716C11.0352 55.5077 11.5801 55.653 11.9161 55.6167C13.7506 55.426 15.1582 54.3816 16.5386 53.2736C15.694 52.5198 14.9221 51.8206 13.9867 50.9851H13.9776Z" fill="white"/>
<path d="M32.0681 4.06958C33.058 2.79815 34.3567 1.98989 35.9096 1.61755C39.6603 0.709389 43.4201 2.8254 44.8641 6.63967C45.7631 9.00088 45.6632 11.2622 44.3192 13.469C42.7117 16.1027 40.6048 18.2823 38.289 20.262C36.5272 21.7605 34.6655 23.1409 32.8401 24.5667C32.3133 24.9754 31.723 24.9845 31.2144 24.6121C27.5273 21.9603 23.9855 19.1359 21.1248 15.5759C20.0259 14.2046 19.0814 12.7334 18.7182 10.9625C18.1279 8.1018 19.7353 4.38743 22.3327 2.66193C24.8119 1 28.0722 1.01816 30.5061 2.7255C31.0419 3.10693 31.5141 3.57917 32.0681 4.0605V4.06958ZM31.9228 22.4053C34.4112 20.7706 37.8803 17.8282 40.1871 15.2581C41.0407 14.3045 41.7854 13.242 42.4756 12.1613C44.3464 9.24608 42.3394 5.22294 39.5786 4.08774C37.1629 3.08877 34.611 4.06049 33.2396 6.51252C32.9763 6.97568 32.6584 7.39344 32.0954 7.36619C31.5232 7.34803 31.1236 7.01201 30.8421 6.46712C30.2064 5.21386 29.2347 4.31478 27.8815 3.87886C24.5122 2.77999 20.8796 5.72243 20.698 9.39139C20.6162 11.0533 21.4517 12.3701 22.3962 13.6143C25.039 17.1017 28.4082 19.817 31.9137 22.4053H31.9228Z" fill="white"/>
<path d="M28.1449 43.9741C26.6555 43.9287 25.2206 43.4928 23.931 42.5755C23.1591 42.0306 22.9956 41.2224 23.4951 40.5412C23.9946 39.8692 24.8028 39.7784 25.5748 40.296C27.2458 41.4312 28.9531 41.4494 30.6786 40.4323C31.7048 39.8238 32.5404 39.8874 33.0035 40.6411C33.4848 41.4312 33.1579 42.2577 32.1317 42.8661C30.9329 43.5836 29.6342 43.965 28.1539 43.9741H28.1449Z" fill="white"/>
<path d="M46.4534 42.076C44.9912 42.0215 43.5472 41.6038 42.2577 40.6956C41.513 40.1689 41.3586 39.3243 41.849 38.6523C42.3303 37.9893 43.1567 37.8622 43.8742 38.3617C45.6269 39.5695 47.3978 39.5604 49.1778 38.4434C49.641 38.1528 50.1041 37.953 50.649 38.1891C51.7116 38.6523 51.8297 39.9963 50.8488 40.6775C49.5683 41.5675 48.1334 42.0488 46.4534 42.076Z" fill="white"/>
<path d="M5.99487 49.7227C4.92325 49.5593 3.66091 49.3958 2.41673 49.1687C1.82642 49.0598 1.49041 48.5239 1.56306 47.9609C1.63571 47.3706 2.12612 46.8983 2.7255 46.971C3.97876 47.1254 5.23202 47.307 6.4762 47.5431C7.09375 47.6521 7.4116 48.2243 7.32079 48.8146C7.22997 49.4049 6.80313 49.75 5.99487 49.7318L5.99487 49.7227Z" fill="white"/>
<path d="M8.84649 44.8641C8.61037 45.1456 8.41966 45.5724 8.11088 45.6905C7.77486 45.8267 7.21181 45.8358 6.94844 45.636C6.07661 44.964 5.27743 44.192 4.48733 43.4201C4.04233 42.9842 4.07866 42.3212 4.46917 41.8853C4.85967 41.4494 5.52263 41.3313 5.99487 41.74C6.84854 42.4756 7.6568 43.2566 8.45598 44.0558C8.62853 44.2284 8.68302 44.5099 8.85557 44.8731L8.84649 44.8641Z" fill="white"/>
<path d="M7.18456 53.1828C6.94844 53.4825 6.76681 53.8639 6.46712 54.0546C5.65885 54.5632 4.7961 55.0173 3.94243 55.4441C3.33397 55.7529 2.69826 55.5349 2.39856 54.9719C2.10795 54.427 2.27142 53.8276 2.87081 53.4825C3.71539 52.9921 4.57815 52.5017 5.44998 52.0567C6.231 51.6571 7.09375 52.2292 7.19364 53.1828H7.18456Z" fill="white"/>
<path d="M44.4463 33.4122C44.4554 34.3203 43.7834 35.0378 42.8843 35.065C41.9126 35.0923 41.1497 34.393 41.1315 33.4667C41.1134 32.5676 41.8581 31.8047 42.7571 31.8047C43.6835 31.8047 44.4282 32.5131 44.4463 33.4122Z" fill="white"/>
<path d="M32.0863 37.0176C31.169 37.0176 30.3971 36.3092 30.3789 35.4192C30.3608 34.5474 31.1327 33.7845 32.0409 33.7664C32.9309 33.7482 33.7119 34.5201 33.7119 35.4011C33.7119 36.2729 32.9672 37.0085 32.0954 37.0085L32.0863 37.0176Z" fill="white"/>
<path d="M26.0198 35.392C26.0198 36.3092 25.2932 37.0267 24.376 37.0176C23.4951 37.0176 22.7686 36.2911 22.7686 35.4101C22.7686 34.5201 23.5314 33.7573 24.4214 33.7664C25.2932 33.7845 26.0198 34.5111 26.0289 35.392H26.0198Z" fill="white"/>
<path d="M52.0749 33.3577C52.0749 34.3113 51.312 35.0741 50.4038 35.056C49.5138 35.0378 48.8146 34.3204 48.8236 33.4213C48.8236 32.5131 49.5683 31.7866 50.4856 31.8047C51.3756 31.8229 52.0749 32.504 52.0749 33.3577Z" fill="white"/>
<path d="M41.0226 9.87271C41.0044 10.7082 40.6865 11.7526 39.8601 12.579C39.1336 13.3146 38.0166 13.0694 37.844 12.1068C37.7804 11.7889 37.9439 11.3621 38.1346 11.0715C38.5251 10.4993 38.7976 9.91812 38.7158 9.21884C38.6341 8.53772 38.3526 8.01099 37.6715 7.72038C36.9268 7.39344 36.6816 6.80313 36.9631 6.16742C37.2446 5.54079 37.8531 5.35008 38.5978 5.64069C40.069 6.22191 41.0316 7.77487 41.0226 9.86363V9.87271Z" fill="white"/>
<path d="M37.9167 14.1592C37.9257 14.7949 37.4263 15.3217 36.7996 15.3398C36.1821 15.3489 35.6372 14.8313 35.6281 14.2046C35.6099 13.5689 36.1185 13.0603 36.7542 13.0422C37.4081 13.0331 37.9076 13.5144 37.9167 14.1592Z" fill="white"/>
</svg>
