<svg width="64" height="64" viewBox="0 0 64 64" fill="none" xmlns="http://www.w3.org/2000/svg">
<g clip-path="url(#clip0_741_5039)">
<path d="M0 52.2734C0.163333 51.0434 0.346667 49.8167 0.488333 48.5834C1.025 43.9617 1.54833 39.3367 2.075 34.7134C2.59167 30.1717 3.105 25.6317 3.62167 21.09C3.78833 19.625 3.95 18.1584 4.125 16.6934C4.22 15.895 4.71167 15.485 5.585 15.4817C7.435 15.4734 9.285 15.4784 11.135 15.4784C11.3583 15.4784 11.5817 15.4784 11.89 15.4784C11.6867 12.04 12.6567 9.10337 15.335 6.8917C17.1183 5.41837 19.1933 4.75004 21.5033 4.7567C25.8017 4.76837 31.2967 8.6617 30.705 15.4784C31.3267 15.4784 31.9433 15.4784 32.56 15.4784C34.015 15.4784 35.47 15.4734 36.925 15.48C37.8933 15.485 38.3217 15.8917 38.43 16.85C38.85 20.565 39.2717 24.2817 39.6967 27.9967C39.7167 28.175 39.7667 28.35 39.82 28.6117C42.8683 25.055 46.6617 23.32 51.2883 23.585C54.5917 23.7734 57.4317 25.0817 59.815 27.3734C64.6483 32.025 65.205 39.6984 61.1733 45.1267C57.0883 50.625 48.5317 52.6584 41.9467 47.5934C42.0867 48.8367 42.2833 50.0167 42.3383 51.2017C42.445 53.5234 42.4933 55.85 42.5233 58.175C42.5317 58.8734 41.9917 59.3267 41.2467 59.3617C40.79 59.3834 40.3317 59.3684 39.875 59.3684C35.5917 59.3684 31.31 59.3684 27.0267 59.3684C26.86 59.3684 26.6933 59.375 26.5283 59.365C25.77 59.3217 25.23 58.8067 25.2217 58.125C25.2117 57.4167 25.7667 56.88 26.565 56.8784C29.6417 56.87 32.7183 56.875 35.795 56.8734C37.1833 56.8734 38.5733 56.8734 40.0033 56.8734V54.205H2.54833V56.8734C2.76833 56.8734 3.00833 56.8734 3.24833 56.8734C7.26 56.8734 11.2733 56.8717 15.285 56.875C16.105 56.875 16.6083 57.24 16.7167 57.8817C16.8567 58.7034 16.2883 59.3484 15.3717 59.3617C14.1033 59.38 12.835 59.3667 11.5667 59.3667C8.28167 59.3667 4.99667 59.35 1.71333 59.38C0.953333 59.3867 0.388333 59.16 0 58.51C0 56.4317 0 54.3517 0 52.2734ZM27.29 18.0084H15.0717C16.3517 18.8584 17.235 19.7984 17.2483 21.2884C17.26 22.6434 17.3033 23.9534 16.2717 25.0884C15.1133 26.365 11.125 26.3617 10.0567 25.1267C9.44333 24.4167 9.07667 23.6584 9.00333 22.73C8.85167 20.8134 9.19667 19.12 11.01 18.015H6.48333C5.20333 29.2334 3.92833 40.415 2.64833 51.6367H39.885C39.71 50.0734 39.4917 48.5517 39.38 47.025C39.2583 45.39 38.9583 43.8284 38.0567 42.4267C37.9467 42.255 37.9233 42.025 37.8067 41.8584C37.6267 41.5984 37.4467 41.2984 37.19 41.14C35.7067 40.2217 34.1967 39.3467 32.7033 38.4434C31.665 37.815 31.6667 36.7617 32.7033 36.1284C34.0333 35.3167 35.345 34.4717 36.7167 33.735C37.5667 33.28 37.745 32.6534 37.64 31.7867C37.26 28.61 36.9083 25.43 36.5433 22.25C36.38 20.8334 36.2117 19.4184 36.0417 17.9717H31.525C32.64 18.8617 33.4967 19.8284 33.5317 21.3017C33.5617 22.6384 33.5517 23.9184 32.5717 25.05C31.4367 26.3617 27.4033 26.3834 26.315 25.1117C25.74 24.4384 25.36 23.73 25.2933 22.835C25.1483 20.89 25.3867 19.1217 27.2883 18.005L27.29 18.0084ZM35.62 37.2817C36.735 37.9467 37.7517 38.585 38.8 39.165C39.4383 39.5167 39.815 39.9934 40.06 40.6884C41.8517 45.7584 47.11 48.825 52.265 47.8467C58.29 46.7034 62.1167 41.3467 61.245 35.275C60.5483 30.4267 56.23 26.3967 51.3883 26.0784C45.89 25.7167 41.38 28.8467 39.8067 34.135C39.6417 34.6917 39.3333 35.075 38.8367 35.36C37.7933 35.96 36.7683 36.5917 35.62 37.28V37.2817ZM28.1417 15.4517C28.3583 12.2617 27.3983 9.6867 24.565 8.13003C22.0433 6.74503 19.505 6.9417 17.18 8.63837C14.885 10.3134 14.18 12.6934 14.415 15.4517H28.1417ZM29.4217 19.6884C27.73 20.7967 27.7067 20.84 27.7883 22.5784C27.8183 23.2 28.0833 23.505 28.6883 23.54C29.1633 23.5684 29.6417 23.56 30.1167 23.54C30.6417 23.5184 30.9717 23.2417 31.03 22.7067C31.145 21.6367 31.1133 20.6234 29.95 20.0667C29.7683 19.98 29.615 19.83 29.4217 19.6884ZM13.175 19.6917C12.1983 20.3 11.2867 20.8384 11.4733 22.24C11.6133 23.2917 11.7433 23.545 12.8233 23.5484C14.7467 23.555 14.8083 23.505 14.7417 21.5567C14.7317 21.2534 14.6233 20.88 14.4233 20.6717C14.0567 20.29 13.5883 20.0067 13.175 19.6917Z" fill="white"/>
<path d="M22.2182 58.1167C22.2132 58.8 21.6682 59.3567 21.0015 59.3583C20.3399 59.3583 19.7582 58.795 19.7449 58.1383C19.7315 57.4467 20.3132 56.8683 21.0099 56.88C21.6999 56.8933 22.2232 57.4283 22.2182 58.1167Z" fill="white"/>
<path d="M51.787 30.39C52.4437 30.775 53.062 31.0717 53.602 31.4717C54.237 31.9417 54.3253 32.665 53.9103 33.2217C53.4987 33.775 52.7737 33.8917 52.1387 33.4334C51.547 33.0067 50.9253 32.8134 50.2087 32.945C49.6403 33.05 49.2703 33.3717 49.1587 33.95C49.0537 34.5017 49.4387 34.7517 49.8387 34.94C50.5887 35.2917 51.352 35.62 52.122 35.9267C53.692 36.55 54.6837 37.64 54.757 39.365C54.8353 41.2017 53.9737 42.5517 52.3587 43.405C52.0187 43.585 51.762 43.6984 51.712 44.1734C51.6503 44.7617 51.1987 45.1067 50.5887 45.1567C50.0187 45.2034 49.4653 44.8434 49.347 44.2384C49.2653 43.8184 49.0353 43.7634 48.7037 43.6484C48.1203 43.445 47.5453 43.19 47.017 42.8734C46.397 42.5034 46.2354 41.7584 46.5654 41.1884C46.9137 40.5884 47.6603 40.3617 48.2903 40.77C49.0337 41.2517 49.8203 41.38 50.6687 41.31C51.4953 41.2417 52.1553 40.62 52.267 39.8117C52.372 39.0517 52.0403 38.5967 51.1687 38.2317C50.2703 37.855 49.357 37.5017 48.4987 37.0467C47.2637 36.3917 46.5603 35.355 46.662 33.9067C46.7637 32.46 47.507 31.4284 48.8053 30.775C49.0003 30.6767 49.2253 30.4417 49.257 30.2434C49.3837 29.4167 49.787 28.9517 50.4887 28.9384C51.2053 28.925 51.677 29.41 51.7687 30.2584C51.777 30.3384 51.7887 30.42 51.7853 30.3917L51.787 30.39Z" fill="white"/>
</g>
<defs>
<clipPath id="clip0_741_5039">
<rect width="64" height="64" fill="white"/>
</clipPath>
</defs>
</svg>
