<svg width="64" height="64" viewBox="0 0 64 64" fill="none" xmlns="http://www.w3.org/2000/svg">
<g clip-path="url(#clip0_741_5030)">
<g clip-path="url(#clip1_741_5030)">
<path d="M9.98353 64C9.57687 63.8516 9.15353 63.7366 8.7652 63.55C7.09353 62.7466 6.1202 60.8916 6.4202 59.1283C6.74853 57.2033 8.21687 55.745 10.0469 55.5233C11.9735 55.29 13.7752 56.2566 14.4952 58.0166C14.7235 58.5733 15.0069 58.6833 15.5419 58.6766C17.7835 58.65 20.0269 58.665 22.3552 58.665V57.9583C22.3552 56.275 22.3302 54.59 22.3702 52.9066C22.3835 52.3816 22.1819 52.14 21.7469 51.9216C19.1702 50.6283 16.9369 48.8833 15.0785 46.6833C14.8385 46.4 14.7102 45.86 14.8019 45.51C14.8769 45.225 15.3569 44.86 15.6552 44.8633C16.0252 44.8666 16.4802 45.1333 16.7469 45.425C18.1869 47.005 19.7952 48.37 21.6402 49.4466C22.3202 49.8433 23.0285 50.1933 23.7369 50.54C24.2402 50.7866 24.4885 51.155 24.4869 51.72C24.4802 54.0483 24.4985 56.3766 24.4752 58.705C24.4619 59.9616 23.5735 60.7816 22.2435 60.7916C19.9569 60.8066 17.6685 60.8066 15.3819 60.7883C14.9535 60.785 14.7369 60.8883 14.5685 61.3233C14.0852 62.5783 13.1569 63.3983 11.8719 63.8116C11.6985 63.8666 11.5302 63.9366 11.3585 64H9.9852H9.98353ZM10.6169 57.6233C9.44187 57.635 8.4802 58.625 8.51353 59.7866C8.5452 60.9333 9.5052 61.8716 10.6469 61.8716C11.8269 61.8716 12.7702 60.9166 12.7635 59.7266C12.7569 58.53 11.8185 57.6116 10.6169 57.6233Z" fill="white"/>
<path d="M52.6616 64C51.6749 63.7183 50.7216 63.3616 50.0566 62.5266C49.7749 62.1733 49.4782 61.7866 49.3499 61.3666C49.1899 60.845 48.8982 60.785 48.4366 60.7883C46.2332 60.8066 44.0299 60.8 41.8266 60.795C40.2149 60.7916 39.4149 59.99 39.4116 58.3833C39.4082 56.2433 39.4282 54.1016 39.4016 51.9616C39.3932 51.2266 39.6466 50.7633 40.3382 50.4583C42.6049 49.4566 44.5882 48.0316 46.3399 46.2833C46.7566 45.8683 47.2299 45.7533 47.7466 46.0783C48.1866 46.3533 48.3516 46.9233 48.1182 47.395C48.0199 47.5933 47.8549 47.7666 47.6949 47.925C46.0149 49.5916 44.1066 50.9416 42.0016 52.0216C41.8049 52.1233 41.5599 52.3833 41.5566 52.5733C41.5249 54.5266 41.5399 56.48 41.5432 58.4333C41.5432 58.49 41.5749 58.5466 41.6116 58.6666C42.5349 58.6666 43.4632 58.6666 44.3932 58.6666C45.8066 58.6666 47.2199 58.66 48.6332 58.6716C48.9566 58.675 49.1416 58.61 49.2799 58.2666C50.0849 56.2666 51.9982 55.1783 53.9999 55.5466C55.9666 55.9066 57.4266 57.6033 57.4999 59.6116C57.5732 61.6066 56.2182 63.3433 54.1766 63.8783C54.0816 63.9033 53.9949 63.9583 53.9032 64H52.6549H52.6616ZM53.2449 57.6233C52.0482 57.6233 51.1216 58.5566 51.1282 59.7566C51.1349 60.9216 52.0549 61.855 53.2132 61.8716C54.3766 61.8883 55.3682 60.92 55.3799 59.7566C55.3899 58.5883 54.4249 57.6233 53.2449 57.6233Z" fill="white"/>
<path d="M0 20.7067C0.0466667 20.5733 0.101667 20.44 0.141667 20.3033C0.648333 18.5167 2.16833 17.2817 3.98667 17.18C5.86667 17.075 7.49833 18.1117 8.21 19.8633C8.27167 20.015 8.33167 20.1667 8.40333 20.34C9.83 20.34 11.2417 20.3583 12.6517 20.3183C12.8483 20.3133 13.0933 20.06 13.2233 19.8617C14.58 17.7933 16.2167 15.9883 18.1633 14.4617C18.2617 14.385 18.3583 14.305 18.46 14.2333C19.0317 13.8333 19.635 13.8933 20.0067 14.385C20.3767 14.8733 20.2783 15.4683 19.745 15.9217C19.4133 16.2033 19.065 16.4683 18.7333 16.75C17.1067 18.135 15.7367 19.745 14.6567 21.585C14.2733 22.2383 13.7967 22.5017 13.0383 22.4783C11.5033 22.4317 9.965 22.465 8.41333 22.465C8.34333 22.635 8.28 22.785 8.22 22.9367C7.54 24.6333 5.89833 25.7317 4.13667 25.6683C2.28833 25.6017 0.715 24.3867 0.166667 22.6017C0.111667 22.43 0.055 22.255 0 22.08C0 21.6233 0 21.165 0 20.7083V20.7067ZM6.37667 21.3817C6.36333 20.1933 5.41167 19.2767 4.20833 19.3C3.04833 19.3217 2.125 20.2617 2.12833 21.4183C2.13167 22.585 3.11667 23.565 4.27667 23.55C5.45 23.5367 6.39 22.565 6.37833 21.3817H6.37667Z" fill="white"/>
<path d="M0 41.9167C0.05 41.7834 0.106667 41.6534 0.148333 41.5184C0.701667 39.7284 2.26667 38.5134 4.11667 38.4434C5.875 38.3751 7.52833 39.4734 8.21167 41.1634C8.27333 41.3167 8.33167 41.4717 8.39167 41.6234H11.6383C11.2283 40.4451 10.8133 39.3001 10.4333 38.1434C10.265 37.6317 10.1533 37.1017 10.0467 36.5734C9.92667 35.9784 10.2483 35.4484 10.78 35.3067C11.3667 35.15 11.955 35.4367 12.09 36.0501C12.5683 38.2151 13.3483 40.255 14.415 42.2C14.8567 43.0067 14.3083 43.7634 13.3267 43.775C11.9133 43.7917 10.5 43.78 9.08667 43.78C8.86 43.78 8.63167 43.78 8.38833 43.78C7.975 45.045 7.23833 46.0084 6.03 46.5651C3.76833 47.6084 1.09833 46.5001 0.246667 44.1634C0.17 43.9534 0.0833333 43.7484 0.00166667 43.54C0.00166667 43 0.00166667 42.4584 0.00166667 41.9184L0 41.9167ZM6.37667 42.7317C6.38667 41.5484 5.44167 40.58 4.26833 40.5717C3.10667 40.5634 2.125 41.5434 2.12833 42.7101C2.13 43.8667 3.055 44.8034 4.21667 44.8217C5.41833 44.8417 6.36667 43.9234 6.37833 42.7317H6.37667Z" fill="white"/>
<path d="M31.5718 64C31.0084 63.6366 30.8618 63.1116 30.8684 62.4616C30.8934 60.0116 30.8784 57.56 30.8784 55.11C30.8784 54.8866 30.8784 54.6633 30.8784 54.4266C29.7884 54.285 28.7634 54.1633 27.7418 54.015C26.9618 53.9016 26.5234 53.4166 26.6068 52.8016C26.6984 52.1266 27.2401 51.7633 28.0518 51.9133C30.6334 52.395 33.2101 52.405 35.7918 51.9183C36.5801 51.77 37.1134 52.1116 37.2118 52.7533C37.3168 53.435 36.9218 53.8983 36.0901 54.02C35.0884 54.1666 34.0834 54.285 33.0151 54.425C33.0151 54.6616 33.0151 54.885 33.0151 55.1083C33.0151 57.5583 33.0001 60.01 33.0251 62.46C33.0318 63.11 32.8834 63.635 32.3218 64H31.5734H31.5718Z" fill="white"/>
<path d="M0 31.6866C0.346667 31.1466 0.845 30.9783 1.47667 30.985C3.94667 31.0066 6.41833 30.9933 8.89 30.9933C9.11333 30.9933 9.33667 30.9933 9.48833 30.9933C9.785 29.3683 10.0617 27.8233 10.3533 26.2816C10.415 25.9566 10.52 25.64 10.62 25.3233C10.8617 24.56 11.38 24.2016 11.9817 24.3733C12.6367 24.5583 12.8667 25.13 12.6667 25.9316C12.4 26.9966 12.125 28.0616 11.945 29.1433C11.8 30.02 11.7733 30.9166 11.7283 31.8066C11.6817 32.745 11.335 33.125 10.385 33.1266C7.37333 33.135 4.36333 33.1216 1.35167 33.1366C0.758333 33.1366 0.32 32.92 0 32.435V31.6866Z" fill="white"/>
<path d="M31.9281 50.1551C21.9398 50.1451 13.8448 42.0434 13.8481 32.0617C13.8515 22.0567 21.9898 13.9434 31.9965 13.9667C41.9831 13.9901 50.0565 22.1017 50.0415 32.0951C50.0265 42.0784 41.9165 50.1651 31.9281 50.1551ZM15.9731 32.0034C15.9431 40.8017 23.0615 47.9834 31.8548 48.0301C40.6848 48.0767 47.8848 40.9451 47.9181 32.1217C47.9515 23.3201 40.8331 16.1351 32.0381 16.0934C23.2148 16.0501 16.0031 23.1934 15.9715 32.0051L15.9731 32.0034Z" fill="white"/>
<path d="M54.2749 30.9917C55.1182 30.9917 55.8832 30.9917 56.6499 30.9917C58.5616 30.9917 60.4749 30.99 62.3866 30.995C62.6349 30.995 62.8916 30.995 63.1282 31.0617C63.6282 31.2 63.8866 31.5684 63.8799 32.08C63.8732 32.5617 63.6199 32.91 63.1516 33.055C62.9566 33.115 62.7416 33.125 62.5366 33.125C59.5432 33.13 56.5499 33.1317 53.5582 33.125C52.5332 33.1234 52.1866 32.7617 52.1699 31.7267C52.1166 28.3817 51.2716 25.25 49.6799 22.31C49.5166 22.0084 49.3532 21.6584 49.3482 21.33C49.3399 20.7234 49.8616 20.35 50.6282 20.345C52.0216 20.335 53.4132 20.3417 54.8066 20.3417C55.0332 20.3417 55.2616 20.3417 55.4699 20.3417C56.6616 17.8117 58.4399 16.7534 60.5999 17.2617C62.5716 17.725 63.9016 19.43 63.8916 21.48C63.8816 23.4234 62.4782 25.16 60.5899 25.565C58.3582 26.0417 56.6516 25.0217 55.4766 22.4917H52.1582C53.3949 25.1867 54.1049 27.98 54.2749 30.9934V30.9917ZM57.5149 21.44C57.5266 22.6167 58.5116 23.5784 59.6732 23.5484C60.8182 23.52 61.7582 22.5617 61.7632 21.4184C61.7666 20.2384 60.8132 19.2917 59.6232 19.2967C58.4232 19.3017 57.5049 20.2367 57.5166 21.4384L57.5149 21.44Z" fill="white"/>
<path d="M41.5401 5.49835C41.5401 7.56502 41.5301 9.57835 41.5601 11.59C41.5634 11.7617 41.8018 11.9967 41.9884 12.0917C44.1368 13.1817 46.0801 14.5567 47.7634 16.28C48.0118 16.5334 48.2368 16.9767 48.1968 17.2984C48.1584 17.6167 47.8168 18.055 47.5218 18.14C47.1968 18.2334 46.6951 18.0884 46.4034 17.8684C45.1951 16.9584 44.0751 15.9284 42.8501 15.045C42.0651 14.48 41.1701 14.055 40.2884 13.6417C39.6534 13.3434 39.3968 12.92 39.4034 12.2317C39.4234 10.0084 39.4034 7.78502 39.4151 5.56169C39.4218 4.19002 40.2568 3.33835 41.6268 3.32835C43.9334 3.31169 46.2418 3.31335 48.5484 3.33169C48.9551 3.33502 49.1551 3.23502 49.3151 2.82335C50.0651 0.896687 52.0601 -0.191647 54.0234 0.20002C56.0818 0.61002 57.5234 2.33169 57.5218 4.38002C57.5218 6.42502 56.0484 8.18835 54.0234 8.57002C52.0501 8.94335 50.0868 7.85002 49.3034 5.93169C49.1884 5.65169 49.1118 5.43835 48.7184 5.44335C46.4318 5.46669 44.1451 5.45502 41.8601 5.45835C41.7801 5.45835 41.7001 5.47835 41.5418 5.50002L41.5401 5.49835ZM53.2218 6.49669C54.4051 6.50502 55.3734 5.55669 55.3784 4.38335C55.3834 3.22169 54.4001 2.24169 53.2351 2.24669C52.0768 2.25169 51.1451 3.17669 51.1284 4.34002C51.1101 5.54002 52.0318 6.48835 53.2218 6.49669Z" fill="white"/>
<path d="M22.3532 5.45333C22.0465 5.45333 21.8215 5.45333 21.5965 5.45333C19.8715 5.45333 18.1448 5.50166 16.4215 5.435C15.3898 5.395 14.7182 5.52166 14.1765 6.62833C13.3315 8.35833 11.1698 9.02333 9.3265 8.43C7.48816 7.83833 6.26649 6.05833 6.37649 4.13166C6.48816 2.165 7.92816 0.563328 9.92816 0.184995C11.7665 -0.163339 13.7315 0.826661 14.4632 2.59999C14.7248 3.23499 15.0582 3.34333 15.6548 3.335C17.7948 3.30666 19.9365 3.32 22.0765 3.325C23.6798 3.33 24.4748 4.13333 24.4782 5.74833C24.4815 7.45166 24.4782 9.15499 24.4782 10.9167C24.6648 10.8817 24.8165 10.8617 24.9632 10.8233C25.7648 10.6117 26.5615 10.375 27.3682 10.1833C28.0065 10.0317 28.5482 10.345 28.6965 10.895C28.8665 11.5233 28.5348 12.0433 27.8348 12.2433C26.9765 12.4867 26.1148 12.7167 25.2615 12.9733C24.8648 13.0933 24.4832 13.26 24.0965 13.4117C23.0065 13.84 22.3582 13.4033 22.3515 12.215C22.3432 10.5733 22.3498 8.93166 22.3498 7.29C22.3498 6.71 22.3498 6.13166 22.3498 5.455L22.3532 5.45333ZM12.7632 4.38166C12.7632 3.19166 11.8182 2.24166 10.6348 2.24833C9.46816 2.25499 8.49316 3.245 8.51316 4.40499C8.5315 5.555 9.47483 6.48833 10.6282 6.49666C11.8265 6.50499 12.7632 5.57833 12.7648 4.38166H12.7632Z" fill="white"/>
<path d="M52.1851 41.6517C53.2351 41.6517 54.1917 41.6284 55.1451 41.6617C55.5684 41.6767 55.5817 41.3867 55.6934 41.13C56.4334 39.4484 57.7334 38.4984 59.5617 38.4617C61.3651 38.4267 62.7167 39.2984 63.4934 40.9334C64.5101 43.0767 63.5234 45.6234 61.3517 46.58C59.1767 47.5384 56.6451 46.555 55.7484 44.3517C55.5534 43.8734 55.3184 43.7567 54.8434 43.7684C53.4717 43.7984 52.0984 43.7834 50.7267 43.7784C49.4834 43.7734 49.0117 43.02 49.6001 41.95C50.5667 40.1917 51.2901 38.345 51.7067 36.38C51.7234 36.2984 51.7501 36.22 51.7734 36.14C51.9667 35.475 52.4634 35.1567 53.0817 35.3017C53.6417 35.4334 54.0101 35.985 53.8284 36.6034C53.4001 38.075 52.9134 39.53 52.4467 40.99C52.3851 41.1834 52.2984 41.37 52.1867 41.6534L52.1851 41.6517ZM59.6417 44.8217C60.8301 44.8184 61.7767 43.8617 61.7634 42.6817C61.7501 41.54 60.7984 40.5867 59.6551 40.5717C58.4884 40.5567 57.5184 41.52 57.5151 42.7C57.5117 43.8967 58.4434 44.8267 59.6417 44.8234V44.8217Z" fill="white"/>
<path d="M33.0134 9.695C34.1217 9.84 35.1317 9.95833 36.1367 10.1067C36.9267 10.2233 37.3384 10.6967 37.2467 11.3333C37.1501 12.0017 36.6067 12.3067 35.7851 12.2117C34.5484 12.07 33.3101 11.95 32.0701 11.845C31.2851 11.7783 30.8867 11.4233 30.8834 10.6217C30.8701 7.525 30.8717 4.43 30.8834 1.33333C30.8867 0.583333 31.3151 0.126667 31.9417 0.125C32.5701 0.125 33.0017 0.578333 33.0051 1.32833C33.0184 3.86333 33.0117 6.39833 33.0117 8.93333C33.0117 9.17833 33.0117 9.42333 33.0117 9.69333L33.0134 9.695Z" fill="white"/>
<path d="M26.6831 26.6734C26.6831 25.7234 26.5998 24.8034 26.6981 23.9034C26.9881 21.2584 29.2781 19.29 31.9614 19.2984C34.6498 19.3067 36.9114 21.275 37.1964 23.9334C37.2931 24.8334 37.2114 25.7517 37.2114 26.6634C37.5081 26.7267 37.6881 26.7667 37.8681 26.8017C39.3481 27.0884 40.4281 28.3067 40.4398 29.82C40.4648 33.0817 40.4681 36.345 40.4398 39.6067C40.4248 41.315 39.0964 42.66 37.3848 42.675C33.7481 42.7084 30.1098 42.7084 26.4731 42.6734C24.7964 42.6567 23.4664 41.3084 23.4514 39.6367C23.4214 36.3534 23.4248 33.07 23.4514 29.7867C23.4631 28.3134 24.5514 27.0867 25.9914 26.805C26.1748 26.77 26.3564 26.7334 26.6831 26.67V26.6734ZM31.8898 40.5667C33.5948 40.5667 35.3014 40.57 37.0064 40.5667C37.9731 40.5634 38.3248 40.2167 38.3264 39.255C38.3298 36.24 38.3298 33.225 38.3264 30.21C38.3264 29.22 37.9698 28.8634 36.9648 28.8617C33.6164 28.8567 30.2681 28.855 26.9198 28.8617C25.9198 28.8634 25.5714 29.2234 25.5698 30.2217C25.5664 33.2167 25.5664 36.21 25.5698 39.205C25.5698 40.2417 25.9048 40.5667 26.9631 40.5684C28.6064 40.5717 30.2498 40.5684 31.8914 40.5684L31.8898 40.5667ZM35.0814 26.6884C35.0814 25.785 35.1631 24.91 35.0631 24.055C34.8931 22.59 33.5831 21.485 32.0998 21.4317C30.5564 21.375 29.1431 22.3517 28.8714 23.8134C28.6998 24.7367 28.7514 25.7034 28.7014 26.6884H35.0798H35.0814Z" fill="white"/>
<path d="M31.9698 30.98C33.4048 30.995 34.6865 31.9933 35.0365 33.37C35.3948 34.775 34.7882 36.2317 33.5198 36.94C33.2148 37.11 33.0115 37.275 32.9432 37.6567C32.8532 38.1617 32.4715 38.4267 31.9532 38.43C31.4332 38.4333 31.0365 38.175 30.9548 37.67C30.8865 37.25 30.6448 37.1 30.3298 36.9167C29.0732 36.1867 28.4848 34.7133 28.8665 33.3217C29.2415 31.95 30.5498 30.9633 31.9715 30.9783L31.9698 30.98ZM32.9965 34.235C33.0215 33.6417 32.5682 33.1583 31.9732 33.1433C31.3965 33.13 30.9348 33.5467 30.8965 34.1167C30.8565 34.7083 31.2982 35.2117 31.8848 35.2467C32.4682 35.2817 32.9715 34.8233 32.9965 34.235Z" fill="white"/>
</g>
</g>
<defs>
<clipPath id="clip0_741_5030">
<rect width="64" height="64" fill="white"/>
</clipPath>
<clipPath id="clip1_741_5030">
<rect width="64" height="64" fill="white"/>
</clipPath>
</defs>
</svg>
