<svg width="64" height="64" viewBox="0 0 64 64" fill="none" xmlns="http://www.w3.org/2000/svg">
<g clip-path="url(#clip0_741_5032)">
<path d="M46.6549 -4.23176e-05C46.8149 0.208291 47.0399 0.393291 47.1249 0.629958C47.3749 1.33162 46.8966 1.86996 46.0466 1.86996C41.8266 1.87329 37.6049 1.87662 33.3849 1.86829C32.3849 1.86662 31.4383 2.05662 30.5833 2.57829C28.9766 3.55829 28.0616 4.98496 28.0449 6.88329C28.0133 10.3966 28.0266 13.91 28.0449 17.4233C28.0449 17.6466 28.2049 17.9333 28.3816 18.0833C29.8466 19.3133 30.5533 20.8766 30.5516 22.7816C30.5466 26.025 30.5599 29.2683 30.5399 32.51C30.5366 32.95 30.6466 33.2433 31.0816 33.3366C31.8466 33.5016 32.6149 33.7633 33.3849 33.7733C36.9816 33.82 40.5783 33.7933 44.1749 33.795C45.2249 33.795 45.4999 34.0733 45.5033 35.1266C45.5066 36.1433 45.5033 37.16 45.5033 38.3166C45.7633 38.1316 45.9383 38.0133 46.1066 37.885C47.6916 36.6733 49.2849 35.4716 50.8533 34.24C51.2733 33.91 51.7016 33.77 52.2266 33.7866C53.0366 33.8133 53.8483 33.7966 54.6583 33.7933C57.8349 33.78 60.0199 31.6033 60.0266 28.4166C60.0366 23.0116 60.0299 17.6066 60.0299 12.2016C60.0299 10.5383 60.0383 8.87496 60.0283 7.21329C60.0099 4.05996 57.8349 1.88662 54.6933 1.87329C53.9866 1.86996 53.2799 1.86496 52.5733 1.87496C52.0583 1.88329 51.5416 1.89162 51.3199 1.30329C51.1149 0.759958 51.3683 0.348291 51.7716 0.00162435C53.1016 -4.23177e-05 54.4333 -4.23177e-05 55.7649 -4.23177e-05C56.2999 0.153291 56.8466 0.274958 57.3666 0.468291C60.0416 1.45662 61.8766 3.97496 61.8883 6.82162C61.9166 14.1616 61.9266 21.5016 61.8849 28.8416C61.8633 32.5616 58.8549 35.5 55.0516 35.6583C54.9266 35.6633 54.7999 35.6816 54.6783 35.6616C52.8466 35.37 51.3783 35.995 50.0016 37.2216C48.5466 38.5183 46.9149 39.615 45.3666 40.8066C45.0016 41.0866 44.6433 41.2966 44.1716 41.0633C43.7083 40.835 43.6233 40.44 43.6283 39.9716C43.6416 38.5633 43.6333 37.1533 43.6333 35.7283C39.2549 35.42 34.9033 36.075 30.5766 35.295V40C30.8333 40 31.0583 40 31.2816 40C33.6933 40 36.1066 39.9933 38.5183 40C41.4466 40.0083 43.2116 41.7766 43.2233 44.7033C43.2283 45.9933 43.2283 47.2816 43.2233 48.5716C43.2199 49.45 42.9299 49.8166 42.2699 49.8066C41.6333 49.7966 41.3583 49.445 41.3549 48.5983C41.3483 47.2683 41.3599 45.9366 41.3516 44.6066C41.3399 42.8366 40.3799 41.8783 38.5983 41.8733C34.7299 41.865 30.8616 41.865 26.9933 41.8733C25.2149 41.8783 24.2633 42.8366 24.2599 44.62C24.2533 48.4666 24.2533 52.3133 24.2599 56.16C24.2633 57.93 25.2399 58.895 27.0033 58.8983C28.9999 58.9016 30.9966 58.8983 32.9933 58.8983C34.0549 58.8983 34.3233 59.1666 34.3283 60.2166C34.3283 60.4416 34.3283 60.665 34.3283 61.0466C35.0783 60.475 35.7483 60.005 36.3683 59.4766C36.8733 59.0483 37.4049 58.8166 38.0733 58.8933C38.3816 58.9283 38.6966 58.9083 39.0083 58.8933C40.2049 58.8349 41.1883 57.94 41.3083 56.75C41.3699 56.1316 41.3299 55.5033 41.3566 54.8816C41.3849 54.2083 41.7066 53.8866 42.3033 53.895C42.8699 53.9033 43.2149 54.2216 43.2066 54.855C43.1949 55.765 43.2316 56.7033 43.0299 57.5783C42.5933 59.4616 40.9066 60.775 38.9816 60.745C38.0883 60.7316 37.3999 60.9733 36.7366 61.5516C35.9233 62.2616 35.0333 62.8816 34.1799 63.5466C33.8349 63.815 33.4849 64.0033 33.0366 63.79C32.5783 63.5716 32.4449 63.1883 32.4516 62.715C32.4616 62.095 32.4533 61.4733 32.4533 60.7733C31.8916 60.7733 31.3799 60.7733 30.8666 60.7733C29.5349 60.7733 28.2049 60.7783 26.8733 60.7733C24.2433 60.76 22.4099 58.9533 22.3883 56.2983C22.3633 53.1166 22.3816 49.935 22.3816 46.7533C22.3816 46.53 22.3816 46.3083 22.3816 45.9333C21.7749 46.395 21.2866 46.7633 20.8016 47.1366C19.8133 47.8983 18.8233 48.6566 17.8416 49.4266C17.4883 49.7033 17.1249 49.8516 16.6916 49.6433C16.2566 49.435 16.1483 49.06 16.1533 48.61C16.1649 47.555 16.1566 46.4983 16.1566 45.3666C15.8366 45.3666 15.5933 45.3666 15.3499 45.3666C12.8749 45.3666 10.3999 45.38 7.92494 45.3633C4.87161 45.3433 2.57994 43.5033 2.03661 40.65C1.97161 40.305 1.95494 39.9483 1.95328 39.595C1.94661 36.5383 1.94661 33.4816 1.94994 30.425C1.94994 29.6916 2.19828 29.3683 2.76494 29.3166C3.41994 29.2566 3.80994 29.64 3.81661 30.3933C3.82828 31.7866 3.81994 33.18 3.81994 34.5733C3.81994 36.175 3.81494 37.775 3.81994 39.3766C3.82828 41.8833 5.39328 43.475 7.89994 43.4916C10.7899 43.51 13.6816 43.495 16.5716 43.4966C17.7966 43.4966 18.0233 43.7266 18.0249 44.9583C18.0249 45.555 18.0249 46.1516 18.0249 46.8566C18.2666 46.6983 18.4199 46.61 18.5599 46.5033C19.3516 45.8966 20.1399 45.285 20.9299 44.675C21.7399 44.0483 22.4816 43.4533 22.8983 42.3883C23.4733 40.92 24.7749 40.15 26.3749 40.035C27.1149 39.9816 27.8599 40.0266 28.6683 40.0266V39.1883C28.6683 33.7816 28.6683 28.375 28.6683 22.97C28.6683 20.29 27.0916 18.7216 24.3933 18.7216C18.9449 18.7216 13.4949 18.7683 8.04661 18.7C5.63328 18.67 3.64328 20.44 3.81328 22.94C3.84661 23.4366 3.82828 23.9383 3.81328 24.4366C3.79328 25.1333 3.45494 25.4883 2.84661 25.4783C2.25494 25.4666 1.93994 25.14 1.95161 24.4533C1.96828 23.4366 1.90494 22.4 2.08828 21.41C2.57161 18.7933 4.85494 16.8833 7.52328 16.8683C13.3466 16.8333 19.1699 16.855 24.9933 16.8616C25.3433 16.8616 25.6916 16.9266 26.1149 16.97C26.1266 16.735 26.1466 16.5183 26.1466 16.3016C26.1483 13.3483 26.1466 10.3966 26.1483 7.44329C26.1516 3.50162 28.2699 0.901624 32.1299 0.0916243C32.1883 0.0799577 32.2383 0.0366243 32.2933 0.00662435C37.0766 0.00662435 41.8616 0.00662435 46.6449 0.00662435L46.6549 -4.23176e-05Z" fill="white"/>
<path d="M19.8216 28.3466C20.6866 28.3466 21.4949 28.34 22.3016 28.3483C23.0433 28.3566 23.4499 28.6966 23.4499 29.2866C23.4499 29.8766 23.0499 30.2083 22.3016 30.215C21.3699 30.2216 20.4366 30.2166 19.4699 30.2166C19.3416 30.975 19.2216 31.685 19.0816 32.5116C19.8466 32.5116 20.5616 32.5116 21.2766 32.5116C21.6716 32.5116 22.0666 32.4983 22.4616 32.5183C23.0833 32.55 23.4366 32.8833 23.4499 33.4183C23.4633 33.975 23.0966 34.3566 22.4516 34.3733C21.4749 34.3983 20.4966 34.41 19.5216 34.3733C18.9766 34.3516 18.7016 34.4566 18.6466 35.08C18.5683 35.9666 18.3749 36.8433 18.2099 37.72C18.0933 38.3416 17.6633 38.6533 17.1133 38.5583C16.5833 38.4666 16.2799 37.99 16.3766 37.38C16.5316 36.4183 16.6949 35.4583 16.8649 34.4366H14.6166C14.4416 35.4683 14.2649 36.505 14.0899 37.5433C13.9633 38.3 13.5516 38.6666 12.9499 38.5566C12.3883 38.455 12.1216 37.97 12.2399 37.2466C12.3899 36.3266 12.5499 35.4066 12.7216 34.3833C12.0199 34.3833 11.3633 34.3833 10.7049 34.3833C10.4349 34.3833 10.1616 34.395 9.89494 34.3633C9.34661 34.2966 9.00161 33.9083 9.04161 33.4C9.08494 32.8683 9.38828 32.5483 9.92328 32.5316C10.7749 32.505 11.6283 32.5 12.4799 32.5216C12.8799 32.5316 13.0833 32.4416 13.1183 31.9933C13.1616 31.4233 13.2899 30.8616 13.3949 30.2183C12.2233 30.2183 11.1466 30.23 10.0699 30.2133C9.30828 30.2016 8.86494 29.6366 9.08994 28.99C9.26828 28.4783 9.68161 28.3433 10.1799 28.345C11.3416 28.3516 12.5016 28.3466 13.7099 28.3466C13.8816 27.325 14.0449 26.3466 14.2099 25.3683C14.2383 25.205 14.2616 25.0383 14.3083 24.88C14.4666 24.3433 14.8716 24.0766 15.3883 24.1866C15.9233 24.2983 16.1766 24.6683 16.1116 25.1866C15.9816 26.215 15.8016 27.2366 15.6299 28.345C16.3033 28.345 16.9433 28.3716 17.5783 28.3233C17.7133 28.3133 17.9049 28.0533 17.9383 27.8816C18.1233 26.945 18.2566 25.9983 18.4299 25.06C18.5533 24.3866 18.9716 24.075 19.5483 24.1833C20.1033 24.2866 20.3599 24.7466 20.2499 25.43C20.1066 26.3116 19.9649 27.1916 19.8249 28.0733C19.8149 28.1333 19.8249 28.1966 19.8249 28.345L19.8216 28.3466ZM14.9416 32.47H17.1883C17.3116 31.7216 17.4266 31.0116 17.5566 30.22C16.8633 30.22 16.2249 30.2016 15.5899 30.235C15.4683 30.2416 15.2816 30.435 15.2533 30.57C15.1283 31.175 15.0483 31.79 14.9416 32.47Z" fill="white"/>
<path d="M27.4316 49.605C27.4149 46.5116 30.5299 45.1466 32.5366 46.5C32.6533 46.5783 32.8949 46.59 33.0166 46.5216C34.4066 45.7266 35.7283 45.8533 36.9566 46.8333C38.0883 47.7366 38.5149 49.385 37.9566 50.9266C37.7166 51.5916 37.3633 52.32 36.8416 52.7583C35.7233 53.7 34.4766 54.4916 33.2483 55.2933C33.0366 55.4316 32.6066 55.4216 32.3699 55.3016C30.9983 54.6033 29.6616 53.8416 28.6249 52.665C27.8533 51.79 27.4316 50.78 27.4316 49.605ZM36.3033 49.6616C36.3116 48.8233 35.9433 48.2216 35.2733 47.9783C34.5999 47.735 34.1533 47.9166 33.6033 48.655C33.1216 49.3 32.4383 49.2583 31.9333 48.525C31.5916 48.0283 31.1549 47.79 30.5549 47.8916C29.9633 47.9916 29.5883 48.355 29.4149 48.915C29.1349 49.8283 29.3083 50.7133 29.9816 51.3383C30.7799 52.0783 31.7183 52.67 32.6099 53.3033C32.7083 53.3733 32.9466 53.36 33.0516 53.2866C33.8699 52.7233 34.7049 52.1766 35.4666 51.5416C36.0233 51.0766 36.2999 50.4116 36.3049 49.6616H36.3033Z" fill="white"/>
<path d="M47.8633 14.7233C49.2533 14.7233 50.6616 14.7233 52.0683 14.7233C53.8466 14.725 54.7883 15.6716 54.7883 17.46C54.7883 20.3083 54.7916 23.155 54.7833 26.0033C54.7783 27.4116 53.8599 28.48 52.4583 28.5C49.2999 28.5466 46.1383 28.5533 42.9816 28.4566C42.0183 28.4266 41.0666 28.0083 40.1299 27.7716C39.7216 27.8716 39.2699 28.0666 38.8133 28.08C37.3383 28.1216 35.8616 28.1 34.3849 28.0933C33.5966 28.09 33.2749 27.785 33.2733 27.0083C33.2666 23.35 33.2666 19.6916 33.2733 16.0333C33.2733 15.24 33.5799 14.9283 34.3633 14.9216C35.9216 14.91 37.4816 14.9033 39.0416 14.93C39.3716 14.935 39.6999 15.09 40.1766 15.215C41.1266 14.0716 42.2399 12.8866 43.1566 11.5666C43.6049 10.9216 43.7066 10.0283 43.9299 9.23662C44.0299 8.88162 43.9799 8.47829 44.1033 8.13496C44.3716 7.38829 44.9449 6.94996 45.7349 6.87329C46.5299 6.79662 47.1666 7.12662 47.5566 7.82662C48.6399 9.76662 48.8099 11.795 48.0849 13.8983C48.0033 14.1333 47.9183 14.365 47.8366 14.6C47.8316 14.6166 47.8449 14.64 47.8666 14.7216L47.8633 14.7233ZM45.9133 8.73329C45.8549 8.97662 45.8233 9.05162 45.8199 9.12829C45.7416 11.07 44.9199 12.6733 43.6266 14.085C42.5599 15.2483 41.5216 16.4383 40.4933 17.6366C40.3216 17.8366 40.1833 18.1383 40.1799 18.395C40.1549 20.555 40.1549 22.715 40.1816 24.875C40.1849 25.115 40.3549 25.4183 40.5433 25.58C41.4499 26.355 42.5349 26.66 43.7149 26.66C46.4783 26.66 49.2416 26.6616 52.0049 26.66C52.7866 26.66 52.9166 26.5266 52.9166 25.7616C52.9183 23.02 52.9183 20.2783 52.9166 17.535C52.9166 16.69 52.8266 16.5983 51.9949 16.5966C50.2283 16.5916 48.4633 16.5916 46.6966 16.585C45.5583 16.58 45.1849 16.0283 45.6099 14.9916C45.8616 14.3783 46.1433 13.7733 46.3533 13.145C46.8449 11.6766 46.7183 10.2516 45.9116 8.73496L45.9133 8.73329ZM35.1816 16.8183V26.1883H38.2583V16.8183H35.1816Z" fill="white"/>
</g>
<defs>
<clipPath id="clip0_741_5032">
<rect width="64" height="64" fill="white"/>
</clipPath>
</defs>
</svg>
