<svg width="64" height="64" viewBox="0 0 64 64" fill="none" xmlns="http://www.w3.org/2000/svg">
<path d="M64 48.6231C63.4773 50.0543 62.5272 50.8977 60.9325 50.8844C60.8239 50.8844 60.677 51.048 60.6102 51.1699C60.5016 51.3687 60.4716 51.6108 60.3597 51.8062C59.9105 52.5978 59.7586 53.2458 60.4916 54.0859C61.2664 54.976 61.0343 56.4089 60.2211 57.3091C59.6216 57.9738 58.9921 58.6168 58.3225 59.208C57.1269 60.2618 55.629 60.0981 54.1729 58.7888C53.4765 59.0643 52.7618 59.3282 52.0655 59.6388C51.9536 59.6889 51.8852 59.9344 51.8751 60.0948C51.7566 61.9202 50.6311 62.9907 48.8026 62.9974C48.1564 62.999 47.5118 63.0024 46.8656 62.9974C45.2208 62.9823 44.0535 61.9185 43.955 60.2785C43.9266 59.8008 43.788 59.5403 43.3171 59.4785C43.277 59.4735 43.2386 59.4518 43.2019 59.4318C42.3085 58.9424 41.5487 58.6953 40.5852 59.5453C39.7469 60.2835 38.3443 59.9862 37.4776 59.1996C36.8314 58.6118 36.2035 57.9972 35.619 57.3475C34.6105 56.2286 34.6221 54.6487 35.6591 53.5548C35.9747 53.2208 36.0248 52.9753 35.7894 52.5962C35.6174 52.3156 35.4671 52 35.402 51.681C35.265 51.0146 34.911 50.8426 34.2364 50.851C31.0503 50.8927 27.8625 50.8727 24.6748 50.8677C23.8232 50.8677 23.2905 50.4217 23.242 49.707C23.1886 48.9087 23.7213 48.3659 24.5996 48.3626C26.7655 48.3542 28.9329 48.3592 31.0987 48.3592C31.3025 48.3592 31.5079 48.3592 31.7901 48.3592C31.7901 47.5592 31.7867 46.8177 31.7901 46.0746C31.8001 44.1657 32.8003 43.1002 34.6889 42.9315C34.8776 42.9148 35.0647 42.7127 35.2216 42.5624C35.3018 42.4856 35.3001 42.3286 35.3552 42.2184C35.7961 41.3433 36.0733 40.5984 35.2417 39.6532C34.4819 38.7914 34.7641 37.3652 35.5673 36.49C36.1584 35.8454 36.7763 35.2241 37.4225 34.6346C38.5163 33.6359 40.0976 33.6559 41.2164 34.6914C41.5304 34.982 41.7508 35.0254 42.1298 34.825C42.6776 34.5344 43.2704 34.3307 43.8348 34.0952C43.8932 33.676 43.8966 33.2484 44.0151 32.8577C44.3624 31.722 45.1322 30.9855 46.3245 30.8669C47.273 30.7717 48.2399 30.7784 49.1933 30.8385C50.6394 30.9287 51.6764 31.9541 51.7833 33.4021C51.8234 33.9482 51.9954 34.2455 52.5297 34.3307C52.6299 34.3474 52.7318 34.3891 52.8203 34.4409C53.6101 34.9085 54.3048 35.1056 55.1013 34.3023C55.467 33.9332 56.2068 33.9332 56.8613 33.7411V21.234H2.54579C2.53578 21.4544 2.51574 21.6732 2.51574 21.8937C2.51574 29.1852 2.51574 36.4767 2.5124 43.7682C2.5124 44.9005 2.73783 45.9627 3.40243 46.8962C4.08541 47.8582 5.00049 48.3742 6.20947 48.3676C8.54226 48.3525 10.8751 48.3575 13.2079 48.3676C13.9977 48.3709 14.517 48.8402 14.5571 49.5433C14.5938 50.198 14.1396 50.8409 13.4734 50.8459C10.7047 50.866 7.92275 50.9929 5.17082 50.7591C2.57919 50.5403 0.563671 48.2056 0.131177 45.4316C0.0510235 44.9189 0.00760714 44.3961 0.00593728 43.8784C-0.000742164 32.2531 -0.000742159 20.6294 0.000927701 9.00408C0.000927701 6.72277 0.732327 4.75376 2.51574 3.25738C3.50596 2.42569 4.66151 2.00149 5.96066 2.00149C21.7909 2.00149 37.6229 1.99648 53.4532 2.00483C56.2185 2.00483 58.5963 4.09408 59.2225 7.06346C59.3795 7.80998 59.4313 8.59158 59.4329 9.35814C59.4463 17.9206 59.4396 26.483 59.453 35.0454C59.453 35.3477 59.5431 35.7268 59.7352 35.9373C61.3065 37.6608 61.3399 38.8599 59.8036 40.6468C60.0758 41.3282 60.3413 42.0213 60.6336 42.7027C60.6786 42.8079 60.839 42.9365 60.9442 42.9348C62.5138 42.9081 63.4406 43.7565 63.9967 45.1293V48.6298L64 48.6231ZM2.51407 18.607H56.9114C56.9114 18.2028 56.9114 17.8337 56.9114 17.4646C56.9048 14.4452 56.9515 11.424 56.8747 8.4062C56.8129 5.96456 55.2099 4.50325 52.7936 4.50325C37.4058 4.50325 22.018 4.50325 6.6286 4.50325C4.38097 4.50325 2.92151 5.69735 2.62929 7.93357C2.479 9.08257 2.52576 10.2583 2.51908 11.4223C2.50572 13.7938 2.51407 16.1653 2.51407 18.6053V18.607ZM61.4869 46.9513C61.4869 45.9794 61.0093 45.4873 60.0541 45.475C60.0124 45.475 59.9706 45.475 59.9289 45.475C59.0823 45.4466 58.75 45.126 58.4594 44.3076C58.1071 43.3123 57.718 42.3236 57.2538 41.3767C56.7845 40.4214 56.7929 40.0556 57.5543 39.2774C58.6598 38.1468 58.6581 38.4707 57.5644 37.3618C56.5057 36.288 56.5007 36.2947 55.4269 37.3318C54.7523 37.9848 54.3282 37.9881 53.4699 37.5739C52.5214 37.1147 51.5412 36.7055 50.5426 36.3681C49.5975 36.0475 49.2985 35.7335 49.2885 34.7114C49.2796 33.7985 48.8304 33.342 47.941 33.342C46.9257 33.342 46.4114 33.8402 46.398 34.8367C46.3863 35.7669 46.0874 36.0725 45.179 36.3815C44.2389 36.7005 43.3071 37.0712 42.4221 37.5188C41.3817 38.0449 41.0361 38.0432 40.2195 37.2416C39.1508 36.1911 39.408 36.1911 38.3359 37.2549C37.619 37.9664 37.6056 38.6789 38.2958 39.3926C38.9638 40.084 38.9821 40.4798 38.5647 41.3466C38.1255 42.2601 37.7097 43.1937 37.3891 44.154C37.0451 45.1844 36.7529 45.4683 35.6591 45.475C34.3199 45.4834 34.3132 45.4834 34.3216 46.8528C34.3316 48.598 34.1262 48.3375 35.8011 48.3559C36.7529 48.3676 37.0652 48.6548 37.3691 49.545C37.6964 50.5036 38.0687 51.4555 38.5196 52.3624C39.0139 53.3577 39.0122 53.7352 38.2357 54.5117C37.5978 55.1508 37.5984 55.7899 38.2374 56.429C38.9465 57.1382 39.659 57.1443 40.3748 56.4473C41.0394 55.801 41.4552 55.781 42.2768 56.1835C43.1685 56.621 44.0786 57.0436 45.0187 57.3542C46.2377 57.7567 46.4548 57.9688 46.4581 59.243C46.4615 60.6242 46.3329 60.4839 47.6938 60.4872C48.7759 60.4895 49.3269 59.9601 49.347 58.899C49.3637 58.0573 49.6526 57.7383 50.4424 57.4561C51.436 57.102 52.4312 56.7279 53.3764 56.2603C54.3816 55.7626 54.7139 55.7626 55.5255 56.5576C56.6443 57.6548 56.327 57.6414 57.4425 56.5409C58.5145 55.4854 58.5078 55.477 57.4541 54.3998C56.8129 53.7435 56.7996 53.3243 57.2003 52.4993C57.6512 51.5691 58.0653 50.6121 58.401 49.6351C58.7533 48.6081 59.0054 48.3609 60.0858 48.3575C61.6622 48.3509 61.4735 48.5145 61.4835 46.9513H61.4869Z" fill="white"/>
<path d="M28.1782 34.7432C27.1979 33.6376 26.2211 32.5604 25.2759 31.4548C25.0705 31.2143 24.8935 30.8937 24.8418 30.5864C24.7483 30.0436 25.0071 29.6044 25.5064 29.3605C26.0524 29.0933 26.5751 29.1818 26.9875 29.6294C27.7507 30.4561 28.4921 31.3011 29.2419 32.1412C29.6727 32.6222 30.1135 33.0948 30.526 33.5925C31.1438 34.3357 31.1555 35.1924 30.5226 35.9239C29.3905 37.2316 28.2383 38.5192 27.0794 39.8035C26.5434 40.3963 25.7769 40.4548 25.2442 39.9888C24.6881 39.5012 24.6714 38.738 25.2275 38.1017C26.0791 37.1297 26.9441 36.1711 27.8024 35.2058C27.9243 35.0688 28.0345 34.9219 28.1798 34.7448L28.1782 34.7432Z" fill="white"/>
<path d="M9.92324 34.7599C10.8216 35.7702 11.69 36.7472 12.5566 37.7242C12.7086 37.8962 12.8689 38.0599 13.0058 38.2436C13.435 38.8215 13.3748 39.5429 12.8689 39.9872C12.3696 40.4264 11.6198 40.4064 11.1239 39.892C10.6029 39.3525 10.1203 38.778 9.62266 38.2186C8.95806 37.472 8.28344 36.7339 7.63219 35.9757C6.9559 35.1874 6.94922 34.3273 7.62718 33.5507C8.751 32.2648 9.88817 30.9905 11.032 29.7229C11.5764 29.12 12.3178 29.0566 12.8605 29.5259C13.4183 30.0085 13.4416 30.7818 12.8906 31.413C11.9187 32.5236 10.9335 33.6192 9.9199 34.7599H9.92324Z" fill="white"/>
<path d="M21.6206 29.4123C21.2967 30.7934 21.0145 32.0076 20.7256 33.2217C20.1912 35.468 19.6602 37.7142 19.1058 39.9554C19.024 40.2861 18.8787 40.6418 18.6549 40.889C18.2659 41.3182 17.7365 41.375 17.2255 41.0961C16.6962 40.8072 16.4541 40.3345 16.591 39.7333C16.97 38.0699 17.3675 36.4116 17.7616 34.7532C18.184 32.9729 18.6015 31.1909 19.039 29.4123C19.2912 28.3852 20.2664 27.9276 21.0128 28.5171C21.3083 28.7493 21.4603 29.1635 21.6239 29.414L21.6206 29.4123Z" fill="white"/>
<path d="M18.9455 48.3592C19.6619 48.3709 20.2012 48.9354 20.1779 49.6468C20.1545 50.3282 19.6068 50.861 18.9238 50.8626C18.2341 50.8643 17.6397 50.2748 17.6463 49.5917C17.653 48.897 18.2341 48.3459 18.9455 48.3575V48.3592Z" fill="white"/>
<path d="M43.0683 15.858C41.173 15.858 39.2777 15.8864 37.3841 15.8497C35.6057 15.8163 34.0744 14.6606 33.5017 13.0072C32.9306 11.3555 33.4132 9.57525 34.7541 8.41789C35.5439 7.7365 36.474 7.40082 37.506 7.39748C41.2131 7.38412 44.9202 7.36742 48.6256 7.40082C51.0853 7.42253 52.9105 9.30135 52.8871 11.6896C52.8654 14.0327 51.0102 15.8246 48.5655 15.863C48.5237 15.863 48.482 15.863 48.4402 15.863C46.6502 15.863 44.8584 15.863 43.0683 15.863V15.8564V15.858ZM43.0616 9.92596C41.2298 9.92596 39.3963 9.90759 37.5644 9.93264C36.5141 9.94767 35.7777 10.6875 35.7827 11.6361C35.7894 12.588 36.5275 13.3329 37.5728 13.3379C41.2365 13.3563 44.9018 13.3496 48.5655 13.3429C49.2852 13.3429 49.8613 13.0406 50.1919 12.3776C50.773 11.2136 49.9481 9.95602 48.5555 9.93264C46.7236 9.90258 44.8918 9.92596 43.0583 9.92596H43.0616Z" fill="white"/>
<path d="M26.879 11.6111C26.884 13.9558 24.9804 15.8664 22.6442 15.8597C20.3382 15.8547 18.4445 13.9625 18.4262 11.6495C18.4078 9.32975 20.3465 7.38579 22.6676 7.39748C24.9787 7.40917 26.8723 9.3047 26.8773 11.6127L26.879 11.6111ZM22.6459 9.93431C21.6974 9.93932 20.951 10.7059 20.966 11.6612C20.9811 12.5814 21.7258 13.3296 22.6409 13.3396C23.566 13.3496 24.3625 12.563 24.3659 11.6344C24.3692 10.7009 23.5877 9.9293 22.6459 9.93431Z" fill="white"/>
<path d="M15.9147 11.6561C15.8997 14.0076 13.9843 15.8898 11.6415 15.8597C9.3271 15.8296 7.47522 13.9341 7.48357 11.6044C7.49359 9.28799 9.3822 7.39915 11.6933 7.39581C14.0278 7.39247 15.9297 9.31304 15.9147 11.6561ZM11.7033 9.93264C10.7598 9.9293 9.99337 10.6975 10.0001 11.6411C10.0051 12.5513 10.7498 13.3145 11.6599 13.3396C12.5867 13.3646 13.3815 12.5914 13.3915 11.6545C13.4016 10.7025 12.6518 9.93765 11.7033 9.93431V9.93264Z" fill="white"/>
<path d="M40.2062 46.9296C40.1895 42.676 43.6294 39.2206 47.8858 39.2156C52.1356 39.2106 55.6073 42.6693 55.6056 46.9046C55.6039 51.1031 52.1407 54.5836 47.941 54.6053C43.7045 54.627 40.2212 51.1716 40.2045 46.928L40.2062 46.9296ZM47.8842 41.7357C45.0237 41.7424 42.731 44.0404 42.731 46.9012C42.731 49.7537 45.0304 52.0668 47.8808 52.0851C50.7263 52.1035 53.1075 49.7153 53.0791 46.8729C53.0507 44.0154 50.7396 41.7307 47.8842 41.7357Z" fill="white"/>
</svg>
