<svg width="64" height="64" viewBox="0 0 64 64" fill="none" xmlns="http://www.w3.org/2000/svg">
<path d="M58.32 32.7781C58.2938 36.5655 57.3781 40.4435 55.5328 44.0987C55.1134 44.9284 54.4235 45.3079 53.5738 45.2034C52.8532 45.1159 52.1664 44.5719 52.0742 43.8222C52.0159 43.3443 52.108 42.7804 52.3185 42.3456C53.9287 39.0253 54.7001 35.5345 54.6325 31.8439C54.4573 22.2779 47.7414 13.6553 38.4966 11.1571C26.9731 8.04112 15.3606 14.2484 11.5594 25.5537C8.0117 36.1076 13.1681 48.0505 23.384 52.5047C31.5441 56.0616 39.2617 55.0275 46.3863 49.6622C46.7566 49.3826 47.1914 49.1091 47.6339 49.02C48.4697 48.8525 49.2241 49.3181 49.556 50.0571C49.8925 50.8069 49.7296 51.7288 49.0213 52.2312C47.5402 53.2821 46.0821 54.3991 44.4857 55.2473C29.811 63.0386 11.4764 54.7664 7.54154 38.6182C4.41485 25.7795 11.4134 12.6659 23.7727 8.20552C37.8927 3.10909 53.2896 11.0526 57.3781 25.5491C58.0157 27.8107 58.3123 30.1246 58.32 32.7781Z" fill="white"/>
<path d="M32.5704 29.8865C34.007 29.8942 35.1686 31.0573 35.1655 32.4831C35.1625 33.932 33.9671 35.1012 32.5075 35.0812C31.0862 35.0628 29.9185 33.8644 29.9431 32.4478C29.9677 31.0142 31.1323 29.8788 32.572 29.8849L32.5704 29.8865Z" fill="white"/>
<path d="M44.3597 29.8865C45.8086 29.8865 46.9486 31.0189 46.9548 32.4662C46.9609 33.935 45.7978 35.0951 44.3336 35.0843C42.9093 35.0736 41.7508 33.8982 41.7569 32.4693C41.7631 31.0388 42.9231 29.888 44.3597 29.888V29.8865Z" fill="white"/>
<path d="M20.772 29.8865C22.2055 29.8988 23.3563 31.0634 23.3502 32.4954C23.344 33.9427 22.1471 35.1058 20.6875 35.0828C19.257 35.0597 18.1354 33.8905 18.1523 32.4401C18.1692 30.9958 19.32 29.8757 20.772 29.888V29.8865Z" fill="white"/>
</svg>
